<svg xmlns="http://www.w3.org/2000/svg"><symbol id="footer-pattern" viewBox="0 0 107.9 35.9"><style>.st0{fill:#424242;}</style><pattern id="footerPattern" width="108" height="36" patternUnits="userSpaceOnUse"><path id="community" class="st0" d="M76.1 6.6H72v-.7h4.1v.7zm27.7-.7v.7h4.1v-.7h-4.1zM76.1 17.6H72v.7h4.1v-.7zm27.7.7h4.1v-.7h-4.1v.7zM72 30.1h4.1v-.7H72v.7zm31.8 0h4.1v-.7h-4.1v.7zM102 0h-.7v4.1h.7V0zm0 8.3h-.7v3.5h-3.5v.7h3.5V16h.7v-3.5h5.9v-.7H102V8.3zm0 11.7h-.7v3.5h-3.5v.7h3.5V27h.7v-2.8h5.9v-.7H102V20zm-.7 15.9h.7v-4.1h-.7v4.1zM90.3 0h-.7v4.1h.7V0zm-.7 35.9h.7v-4.1h-.7v4.1zM78.5 0h-.7v4.1h.7V0zm-.7 15.9h.7v-3.5H82v-.7h-3.5V8.3h-.7v3.5H72v.7h5.9v3.4zm0 20h.7v-4.1h-.7v4.1zm.4-29.3c.2 0 .3-.2.3-.3 0-.2-.2-.3-.3-.3s-.4 0-.4.2.2.4.4.4zm7.9 5.8h3.5v3.5h.7v-3.5h3.5v-.7h-3.5V8.3h-.7v3.5h-3.5v.6zm-1.7-.3c0-.2-.2-.3-.3-.3s-.3.2-.3.3c0 .2.2.3.3.3s.3-.1.3-.3zm11.7 0c0-.2-.2-.3-.3-.3s-.3.2-.3.3c0 .2.2.3.3.3s.3-.1.3-.3zM82 24.2v-.7h-3.5V20h-.7v3.5H72v.7h5.9V27h.7v-2.8H82zM95.5 10h.7V6.6H99v-.7h-2.8V0h-.7v5.9H92v.7h3.5V10zm-11.8 0h.7V6.6h3.5v-.7h-3.5V0h-.7v5.9h-3.5v.7h3.5V10zm.7 8.3h3.5v-.7h-3.5v-3.5h-.7v3.5h-3.5v.7h3.5v3.5h.7v-3.5zm0 7.6h-.7v3.5h-3.5v.7h3.5V36h.7v-5.9h3.5v-.7h-3.5v-3.5zm-.7-2.1c0 .2.2.3.3.3s.3-.2.3-.3c0-.2-.2-.3-.3-.3s-.3.2-.3.3zm10-.3h-3.5V20h-.7v3.5H86v.7h3.5V27h.7v-2.8h3.5v-.7zm2.4-5.2h2.8v-.7h-2.8v-3.5h-.7v3.5H92v.7h3.5v3.5h.7v-3.5zm0 7.6h-.7v3.5H92v.7h3.5V36h.7v-5.9H99v-.7h-2.8v-3.5zm-.6-2.1c0 .2.2.3.3.3s.3-.2.3-.3c0-.2-.2-.3-.3-.3s-.3.2-.3.3zM89.9 6.6c.2 0 .3-.2.3-.3 0-.2-.2-.3-.3-.3s-.3 0-.3.2.1.4.3.4zm11.4 0c.2 0 .3-.2.3-.3 0-.2-.2-.3-.3-.3-.2 0-.3.2-.3.3 0 .1.1.3.3.3zM77.8 18c0 .2.2.3.3.3s.3-.2.3-.3c0-.2-.2-.3-.3-.3s-.3.1-.3.3zm11.8 0c0 .2.2.3.3.3s.3-.2.3-.3c0-.2-.2-.3-.3-.3s-.3.1-.3.3zm12.1 0c0-.2-.2-.3-.3-.3-.2 0-.3.2-.3.3 0 .2.2.3.3.3.1 0 .3-.1.3-.3zM78.2 29.4c-.2 0-.3.2-.3.3 0 .2.2.3.3.3s.3-.2.3-.3c0-.2-.1-.3-.3-.3zm11.7 0c-.2 0-.3.2-.3.3 0 .2.2.3.3.3s.3-.2.3-.3c.1-.2-.1-.3-.3-.3zm11.8.3c0-.2-.2-.3-.3-.3-.2 0-.3.2-.3.3 0 .2.2.3.3.3.1.1.3-.1.3-.3zm4.5-27.6c.2 0 .3-.2.3-.3 0-.2-.2-.3-.3-.3-.2 0-.3.2-.3.3-.1.1.1.3.3.3zm-2.1 0c.2 0 .3-.2.3-.3 0-.2-.2-.3-.3-.3s-.3.2-.3.3c0 .1.1.3.3.3zm2.1 2c.2 0 .3-.2.3-.3 0-.2-.2-.3-.3-.3-.2 0-.3.2-.3.3-.1.2.1.3.3.3zm-32.5-2c.2 0 .3-.2.3-.3 0-.2-.2-.3-.3-.3s-.3.2-.3.3c-.1.1.1.3.3.3zm2.1 0c.2 0 .3-.2.3-.3 0-.2-.2-.3-.3-.3s-.3.2-.3.3c-.1.1.1.3.3.3zm-2.1 2c.2 0 .3-.1.3-.3 0-.2-.2-.3-.3-.3s-.3.2-.3.3c-.1.2.1.3.3.3zm32.5 29.8c-.2 0-.3.2-.3.3 0 .2.2.3.3.3.2 0 .3-.2.3-.3 0-.2-.1-.3-.3-.3zm-2.1 0c-.2 0-.3.2-.3.3 0 .2.2.3.3.3s.3-.2.3-.3c0-.2-.1-.3-.3-.3zm2.1-2.1c-.2 0-.3.2-.3.3 0 .2.2.3.3.3.2 0 .3-.2.3-.3 0-.1-.1-.3-.3-.3zm-32.5 2.1c-.2 0-.3.2-.3.3 0 .2.2.3.3.3s.3-.2.3-.3c0-.2-.1-.3-.3-.3zm2.1 0c-.2 0-.3.2-.3.3 0 .2.2.3.3.3s.3-.2.3-.3c0-.2-.2-.3-.3-.3zm-2.1-2.1c-.2 0-.3.2-.3.3 0 .2.2.3.3.3s.3-.2.3-.3c0-.1-.1-.3-.3-.3z"/><path id="land" class="st0" d="M53.9 0C44 0 36 8.1 36 18s8.1 18 18 18 18-8.1 18-18S63.8 0 53.9 0zm0 35.3c-9.5 0-17.3-7.8-17.3-17.3S44.4.7 53.9.7 71.2 8.5 71.2 18s-7.7 17.3-17.3 17.3zm0-31.2c-7.6 0-13.8 6.2-13.8 13.8s6.2 13.8 13.8 13.8S67.8 25.6 67.8 18 61.6 4.1 53.9 4.1zm0 27c-7.2 0-13.1-5.9-13.1-13.1S46.7 4.8 53.9 4.8c7.2 0 13.1 5.9 13.1 13.1s-5.8 13.2-13.1 13.2zm0-22.8c-5.3 0-9.7 4.3-9.7 9.7s4.3 9.7 9.7 9.7c5.3 0 9.7-4.3 9.7-9.7s-4.3-9.7-9.7-9.7zm0 18.7c-5 0-9-4-9-9s4-9 9-9 9 4 9 9-4 9-9 9zm0-14.6c-3 0-5.5 2.5-5.5 5.5s2.5 5.5 5.5 5.5 5.5-2.5 5.5-5.5-2.4-5.5-5.5-5.5zm0 10.4c-2.7 0-4.8-2.2-4.8-4.8s2.2-4.8 4.8-4.8c2.7 0 4.8 2.2 4.8 4.8s-2.1 4.8-4.8 4.8zM69.8 1.7c0-.2.2-.3.3-.3s.3.2.3.3c0 .2-.2.3-.3.3s-.3-.1-.3-.3zm-2 0c0-.2.2-.3.3-.3s.3.2.3.3c0 .2-.2.3-.3.3s-.3-.1-.3-.3zm2 2.1c0-.2.2-.3.3-.3s.3.2.3.3c0 .2-.2.3-.3.3s-.3-.1-.3-.3zM37.3 1.7c0-.2.2-.3.3-.3s.4.1.4.3c0 .2-.2.3-.3.3s-.4-.1-.4-.3zM38.7 18c0 .2-.2.3-.3.3-.2 0-.3-.2-.3-.3 0-.2.2-.3.3-.3.2-.1.3.1.3.3zm7.4 7.8c.1.1.1.4 0 .5-.1.1-.4.1-.5 0-.1-.1-.1-.4 0-.5.2-.1.4-.1.5 0zm15.6-15.6c-.1-.1-.1-.4 0-.5s.4-.1.5 0 .1.4 0 .5c-.1.1-.3.1-.5 0zm-16.1 0c-.1-.1-.1-.4 0-.5s.4-.1.5 0c.1.1.1.4 0 .5-.1.1-.3.1-.5 0zm16.6 15.6c.1.1.1.4 0 .5-.1.1-.4.1-.5 0-.1-.1-.1-.4 0-.5.2-.1.4-.1.5 0zm7.6-7.8c0 .2-.2.3-.3.3s-.3-.2-.3-.3c0-.2.2-.3.3-.3s.3.1.3.3zm-13.5 0c0 .2-.2.3-.3.3-.2 0-.3-.2-.3-.3 0-.2.2-.3.3-.3.2-.1.3.1.3.3zm-2 0c0 .2-.2.3-.3.3-.2 0-.3-.2-.3-.3 0-.2.2-.3.3-.3.1-.1.3.1.3.3zm-2.1 0c0 .2-.2.3-.3.3-.2 0-.3-.2-.3-.3 0-.2.2-.3.3-.3.1-.1.3.1.3.3zm2.1-2.1c0 .2-.2.3-.3.3-.2 0-.3-.2-.3-.3 0-.2.2-.3.3-.3.1 0 .3.1.3.3zm0 4.1c0 .2-.2.3-.3.3-.2 0-.3-.2-.3-.3 0-.2.2-.3.3-.3.1 0 .3.2.3.3zm-.7-17.6c0-.2.2-.3.3-.3.2 0 .3.2.3.3 0 .2-.2.3-.3.3-.2.1-.3-.1-.3-.3zm.7 31.1c0 .2-.2.3-.3.3-.2 0-.3-.2-.3-.3 0-.2.2-.3.3-.3.1 0 .3.1.3.3zM42.7 7.2c-.1-.1-.1-.4 0-.5.1-.1.4-.1.5 0 .1.1.1.4 0 .5-.2.2-.4.2-.5 0zm22.5 21.5c.1.1.1.4 0 .5-.1.1-.4.1-.5 0-.1-.1-.1-.4 0-.5.1-.1.3-.1.5 0zm-.5-21.5c-.1-.1-.1-.4 0-.5.1-.1.4-.1.5 0 .1.1.1.4 0 .5-.2.2-.4.2-.5 0zM43.2 28.7c.1.1.1.4 0 .5-.1.1-.4.1-.5 0-.1-.1-.1-.4 0-.5.1-.1.3-.1.5 0zm-3.8-27c0-.2.2-.3.3-.3.2 0 .3.2.3.3 0 .2-.2.3-.3.3-.1.1-.3-.1-.3-.3zm-2.1 2.1c0-.2.2-.3.3-.3s.4.1.4.3c0 .2-.2.3-.3.3s-.4-.1-.4-.3zm33.2 30.4c0 .2-.2.3-.3.3s-.3-.2-.3-.3c0-.2.2-.3.3-.3s.3.1.3.3zm-2.1 0c0 .2-.2.3-.3.3s-.3-.2-.3-.3c0-.2.2-.3.3-.3s.3.1.3.3zm2.1-2.1c0 .2-.2.3-.3.3s-.3-.2-.3-.3c0-.2.2-.3.3-.3s.3.2.3.3zM38 34.2c0 .2-.2.3-.3.3s-.3-.2-.3-.3c0-.2.2-.3.3-.3s.3.1.3.3zm2.1 0c0 .2-.2.3-.3.3-.2 0-.3-.2-.3-.3 0-.2.2-.3.3-.3.1 0 .3.1.3.3zM38 32.1c0 .2-.2.3-.3.3s-.3-.2-.3-.3c0-.2.2-.3.3-.3s.3.2.3.3z"/><path id="water" class="st0" d="M31.6 34.3s2 1 4.3 1v.7c-2.5 0-4.6-1-4.7-1.1 0 0-2-1-4.3-1s-4.3 1-4.3 1c-.1 0-2.1 1.1-4.7 1.1s-4.6-1-4.7-1.1c0 0-2-1-4.3-1s-4.3 1-4.3 1c-.1 0-2.1 1.1-4.7 1.1v-.7c2.4 0 4.3-1 4.3-1 .1 0 2.1-1.1 4.7-1.1s4.6 1 4.7 1.1c0 0 2 1 4.3 1s4.3-1 4.3-1c.1 0 2.1-1.1 4.7-1.1s4.6 1 4.7 1.1zM27 29c-2.5 0-4.6 1-4.7 1.1 0 0-2 1-4.3 1s-4.3-1-4.3-1c-.1 0-2.1-1.1-4.7-1.1s-4.6 1-4.7 1.1c0 0-2 1-4.3 1v.7c2.5 0 4.6-1 4.7-1.1 0 0 2-1 4.3-1s4.3 1 4.3 1c.1 0 2.1 1.1 4.7 1.1s4.6-1 4.7-1.1c0 0 2-1 4.3-1s4.3 1 4.3 1c.1 0 2.1 1.1 4.7 1.1v-.7c-2.4 0-4.3-1-4.3-1-.2 0-2.2-1.1-4.7-1.1zm0-4.1c-2.5 0-4.6 1-4.7 1.1 0 0-2 1-4.3 1s-4.3-1-4.3-1c-.1 0-2.1-1.1-4.7-1.1s-4.6 1-4.7 1.1c0 0-2 1-4.3 1v.7c2.5 0 4.6-1 4.7-1.1 0 0 2-1 4.3-1s4.3 1 4.3 1c.1 0 2.1 1.1 4.7 1.1s4.6-1 4.7-1.1c0 0 2-1 4.3-1s4.3 1 4.3 1c.1 0 2.1 1.1 4.7 1.1V27c-2.4 0-4.3-1-4.3-1-.2-.1-2.2-1.1-4.7-1.1zm0-4.2c-2.5 0-4.6 1-4.7 1.1 0 0-2 1-4.3 1s-4.3-1-4.3-1c-.1 0-2.1-1.1-4.7-1.1s-4.6 1-4.7 1.1c0 0-2 1-4.3 1v.7c2.5 0 4.6-1 4.7-1.1 0 0 2-1 4.3-1s4.3 1 4.3 1c.1 0 2.1 1.1 4.7 1.1s4.6-1 4.7-1.1c0 0 2-1 4.3-1s4.3 1 4.3 1c.1 0 2.1 1.1 4.7 1.1v-.7c-2.4 0-4.3-1-4.3-1-.2 0-2.2-1.1-4.7-1.1zm0-4.1c-2.5 0-4.6 1-4.7 1.1 0 0-2 1-4.3 1s-4.3-1-4.3-1c-.1 0-2.1-1.1-4.7-1.1s-4.6 1-4.7 1.1c0 0-2 1-4.3 1v.7c2.5 0 4.6-1 4.7-1.1 0 0 2-1 4.3-1s4.3 1 4.3 1c.1 0 2.1 1.1 4.7 1.1s4.6-1 4.7-1.1c0 0 2-1 4.3-1s4.3 1 4.3 1c.1 0 2.1 1.1 4.7 1.1v-.7c-2.4 0-4.3-1-4.3-1-.2-.1-2.2-1.1-4.7-1.1zm0-4.2c-2.5 0-4.6 1-4.7 1.1 0 0-2 1-4.3 1s-4.3-1-4.3-1c-.1 0-2.1-1.1-4.7-1.1s-4.6 1-4.7 1.1c0 0-2 1-4.3 1v.7c2.5 0 4.6-1 4.7-1.1 0 0 2-1 4.3-1s4.3 1 4.3 1c.1 0 2.1 1.1 4.7 1.1s4.6-1 4.7-1.1c0 0 2-1 4.3-1s4.3 1 4.3 1c.1 0 2.1 1.1 4.7 1.1v-.7c-2.4 0-4.3-1-4.3-1-.2 0-2.2-1.1-4.7-1.1zm0-4.1c-2.5 0-4.6 1-4.7 1.1 0 0-2 1-4.3 1s-4.3-1-4.3-1c-.1 0-2.1-1.1-4.7-1.1s-4.6 1-4.7 1.1c0 0-2 1-4.3 1v.7c2.5 0 4.6-1 4.7-1.1 0 0 2-1 4.3-1s4.3 1 4.3 1c.1 0 2.1 1.1 4.7 1.1s4.6-1 4.7-1.1c0 0 2-1 4.3-1s4.3 1 4.3 1c.1 0 2.1 1.1 4.7 1.1v-.7c-2.4 0-4.3-1-4.3-1-.2-.1-2.2-1.1-4.7-1.1zm0-4.2c-2.5 0-4.6 1-4.7 1.1 0 0-2 1-4.3 1s-4.3-1-4.3-1c-.1 0-2.1-1.1-4.7-1.1s-4.6 1-4.7 1.1c0 0-2 1-4.3 1v.7c2.5 0 4.6-1 4.7-1.1 0 0 2-1 4.3-1s4.3 1 4.3 1c.1 0 2.1 1.1 4.7 1.1s4.6-1 4.7-1.1c0 0 2-1 4.3-1s4.3 1 4.3 1c.1 0 2.1 1.1 4.7 1.1v-.7c-2.4 0-4.3-1-4.3-1-.2 0-2.2-1.1-4.7-1.1zm4.6-3C31.5 1 29.5 0 27 0s-4.6 1-4.7 1.1c0 0-2 1-4.3 1s-4.3-1-4.3-1C13.6 1 11.5 0 9 0S4.4 1 4.3 1.1c0 0-2 1-4.3 1v.7c2.5 0 4.6-1 4.7-1.1 0 0 2-1 4.3-1s4.3 1 4.3 1c.1 0 2.1 1.1 4.7 1.1s4.6-1 4.7-1.1c0 0 2-1 4.3-1s4.3 1 4.3 1c.1 0 2.1 1.1 4.7 1.1v-.7c-2.4 0-4.4-1-4.4-1zm-4.3 13.8c0-.2-.2-.3-.3-.3-.2 0-.3.2-.3.3 0 .2.2.3.3.3.2 0 .3-.1.3-.3zm0-8.7c0-.2-.2-.3-.3-.3-.2 0-.3.2-.3.3 0 .2.2.3.3.3.2.1.3-.1.3-.3zM9.3 19c0-.2-.2-.3-.3-.3-.2 0-.3.2-.3.3 0 .2.2.3.3.3.2.1.3-.1.3-.3zm9 2.1c0-.2-.2-.3-.3-.3-.2 0-.3.2-.3.3 0 .2.2.3.3.3.2 0 .3-.1.3-.3zm-9 10.4c0-.2-.2-.3-.3-.3-.2 0-.3.2-.3.3 0 .2.2.3.3.3.2 0 .3-.2.3-.3zm18-4.2c0-.2-.2-.3-.3-.3-.2 0-.3.2-.3.3 0 .2.2.3.3.3.2.1.3-.1.3-.3zM.7 29.4c0-.2-.2-.3-.3-.3-.2-.1-.4.1-.4.3 0 .2.2.3.3.3.2 0 .4-.1.4-.3zm0-24.9c0-.2-.2-.3-.3-.3-.2-.1-.4.1-.4.3 0 .2.2.3.3.3.2 0 .4-.1.4-.3zm17.6 4.1c0-.2-.2-.3-.3-.3-.2 0-.3.2-.3.3-.1.2.1.4.3.4.2 0 .3-.2.3-.4zm0 4.2c0-.2-.2-.3-.3-.3-.2 0-.3.2-.3.3 0 .2.2.3.3.3.2 0 .3-.1.3-.3zm-9-2.1c0-.2-.2-.3-.3-.3-.2 0-.3.2-.3.3 0 .2.2.3.3.3.2.1.3-.1.3-.3zm4.5 5.2c0-.2-.2-.3-.3-.3-.2 0-.3.2-.3.3 0 .2.2.3.3.3.2 0 .3-.1.3-.3zm-9 0c0-.2-.2-.3-.3-.3-.2 0-.3.2-.3.3 0 .2.2.3.3.3.2 0 .3-.1.3-.3zm18.4 8.3c0-.2-.2-.3-.3-.3-.2 0-.3.2-.3.3 0 .2.2.3.3.3.1 0 .3-.1.3-.3zm12.4-7.6c-.2 0-.3.2-.3.3 0 .2.2.3.3.3.2 0 .3-.2.3-.3 0-.2-.1-.3-.3-.3zM23.2 32.5c0-.2-.2-.3-.3-.3-.2 0-.3.2-.3.3 0 .2.2.3.3.3.1 0 .3-.1.3-.3zm-4.9 1c0-.2-.2-.3-.3-.3-.2 0-.3.2-.3.3 0 .2.2.3.3.3.2.1.3-.1.3-.3zm-9-6.2c0-.2-.1-.3-.3-.3-.2 0-.3.2-.3.3 0 .2.2.3.3.3.2.1.3-.1.3-.3zm4.5-23.8c0-.2-.2-.3-.3-.3-.2 0-.3.2-.3.3 0 .2.2.3.3.3.2 0 .3-.2.3-.3z"/></pattern></symbol><symbol id="icon-city" viewBox="0 0 108 108"><path d="M6.2 76.8h8.3V58.2H6.2v18.6zm2.1-16.6h4.2v14.5H8.3V60.2zM6.2 99.7h8.3V83.1H6.2v16.6zm2.1-14.5h4.2v12.5H8.3V85.2zm10.4-8.4H27V58.2h-8.3v18.6zm2.1-16.6H25v14.5h-4.2V60.2zm62.3-15.9v13.9H33.2V24.9H14.5v-6.2H6.2v6.2H0V108h108.1V44.3L95.5 28.4 83.1 44.3zm2.1.7l9.3-11.9v19.5l-9.3 11.9V45zm-2.1 15.2V81H33.2V60.2h49.9zM8.3 35.3h4.2v6.2H8.3v-6.2zm0-14.5h4.2v12.5H8.3V20.8zM2.1 27h4.2v16.6h8.3V27h16.6v20.8H2.1V27zm18.7 78.9v-2.1H25v2.1h-4.2zm4.1-8.3h-4.2V85.2h4.2v12.4zm0 2.1v2.1h-4.2v-2.1h4.2zm6.3 6.2H27V83.1h-8.3V106H2.1V49.8h29.1v56.1zm41.5 0V89.3h4.2v16.6h-4.2zm10.4 0h-4.2V87.2h-8.3v18.7H33.2V83.1H83v22.8zm10.4 0V93.5h4.2V106h-4.2zm12.4-38V106h-6.2V91.4h-8.3v14.5h-6.2v-38l10.4-13.2 10.3 13.2zm0-3.4l-9.3-11.9V33.1l9.3 11.9v19.5zm-6.2 14.4V66.5h-8.3v18.7h8.3v-6.3zm-6.2-10.4h4.2v8.3h-4.2v-8.3zm4.1 14.6h-4.2v-4.2h4.2v4.2zM108 20.8v16.6h-2.1V22.8H85.2v-1c0-.7 0-1.4-.1-2.1 0-.3-.1-.6-.1-.9-1.5-9.1-9.1-16.2-18.5-16.7v22.8h-8.3v-13l-8.3 8.3v27.6h-8.3v-27h-6.2V2.1H24.9v10.4H2.1v8.3H0V10.4h22.8V0h14.5v18.7h6.2v27h4.2V19.3L58.2 8.9V0h2.1v22.8h4.2V0h1c11.7 0 21.2 9.2 21.8 20.7H108zm-37.4-5.2c0-.6.5-1 1-1s1 .5 1 1c0 .6-.5 1-1 1s-1-.4-1-1zm0-4.2c0-.6.5-1 1-1s1 .5 1 1c0 .6-.5 1-1 1s-1-.4-1-1zm0-4.1c0-.6.5-1 1-1s1 .5 1 1c0 .6-.5 1-1 1s-1-.5-1-1zm4.2 12.4c0-.6.5-1 1-1s1 .5 1 1c0 .6-.5 1-1 1s-1-.4-1-1zm0-8.3c0-.6.5-1 1-1s1 .5 1 1c0 .6-.5 1-1 1s-1-.4-1-1zm4.1 8.3c0-.6.5-1 1-1s1 .5 1 1c0 .6-.5 1-1 1s-1-.4-1-1zm-8.3 4.2c0-.6.5-1 1-1s1 .5 1 1c0 .6-.5 1-1 1s-1-.4-1-1zm0 8.3c0-.6.5-1 1-1s1 .5 1 1c0 .6-.5 1-1 1s-1-.4-1-1zm4.2 0c0-.6.5-1 1-1s1 .5 1 1c0 .6-.5 1-1 1s-1-.4-1-1zm4.1 0c0-.6.5-1 1-1s1 .5 1 1c0 .6-.5 1-1 1s-1-.4-1-1zm0-4.2c0-.6.5-1 1-1s1 .5 1 1c0 .6-.5 1-1 1s-1-.4-1-1zm9.4 1.1c-.6 0-1-.5-1-1 0-.6.5-1 1-1 .6 0 1 .5 1 1s-.5 1-1 1zm-4.2 4.1c-.6 0-1-.5-1-1 0-.6.5-1 1-1s1 .5 1 1c.1.6-.4 1-1 1zM53 21.8c0-.6.5-1 1-1s1 .5 1 1c0 .6-.5 1-1 1s-1-.4-1-1zm0 4.2c0-.6.5-1 1-1s1 .5 1 1c0 .6-.5 1-1 1s-1-.5-1-1zm0 4.1c0-.6.5-1 1-1s1 .5 1 1c0 .6-.5 1-1 1s-1-.4-1-1zm0 4.2c0-.6.5-1 1-1s1 .5 1 1c0 .6-.5 1-1 1s-1-.5-1-1zm0 8.3c0-.6.5-1 1-1s1 .5 1 1c0 .6-.5 1-1 1s-1-.4-1-1zm4.1 0c0-.6.5-1 1-1s1 .5 1 1c0 .6-.5 1-1 1s-1-.4-1-1zm4.2 0c0-.6.5-1 1-1 .6 0 1 .5 1 1 0 .6-.5 1-1 1-.6 0-1-.4-1-1zm-4.2 4.1c0-.6.5-1 1-1s1 .5 1 1c0 .6-.5 1-1 1s-1-.4-1-1zm4.2 0c0-.6.5-1 1-1 .6 0 1 .5 1 1 0 .6-.5 1-1 1-.6.1-1-.4-1-1zM53 50.9c0-.6.5-1 1-1s1 .5 1 1c0 .6-.5 1-1 1s-1-.4-1-1zM23.9 18.7c-.6 0-1-.5-1-1 0-.6.5-1 1-1 .6 0 1 .5 1 1s-.4 1-1 1zm-4.2 0c-.6 0-1-.5-1-1 0-.6.5-1 1-1 .6 0 1 .5 1 1 .1.5-.4 1-1 1zm55.1 5.2c0-.6.5-1 1-1s1 .5 1 1c0 .6-.5 1-1 1s-1-.4-1-1zm0 4.1c0-.6.5-1 1-1s1 .5 1 1c0 .6-.5 1-1 1s-1-.4-1-1zM27 5.2c0-.6.5-1 1-1s1 .5 1 1c0 .6-.5 1-1 1s-1-.4-1-1zm0 4.1c0-.6.5-1 1-1s1 .5 1 1c0 .6-.5 1-1 1s-1-.4-1-1zm4.2 0c0-.6.5-1 1-1 .6 0 1 .5 1 1 0 .6-.5 1-1 1-.6.1-1-.4-1-1zm0 4.2c0-.6.5-1 1-1 .6 0 1 .5 1 1 0 .6-.5 1-1 1-.6 0-1-.4-1-1zm0 4.2c0-.6.5-1 1-1 .6 0 1 .5 1 1 0 .6-.5 1-1 1-.6 0-1-.5-1-1zm-4.2 0c0-.6.5-1 1-1s1 .5 1 1c0 .6-.5 1-1 1s-1-.5-1-1zm0-4.2c0-.6.5-1 1-1s1 .5 1 1c0 .6-.5 1-1 1s-1-.4-1-1zm17.7 88.3c4 0 7.3-3.3 7.3-7.3s-3.3-7.3-7.3-7.3-7.3 3.3-7.3 7.3 3.2 7.3 7.3 7.3zm0-12.5c2.9 0 5.2 2.3 5.2 5.2s-2.3 5.2-5.2 5.2-5.2-2.3-5.2-5.2 2.3-5.2 5.2-5.2zm16.6 12.5c4 0 7.3-3.3 7.3-7.3s-3.3-7.3-7.3-7.3-7.3 3.3-7.3 7.3 3.3 7.3 7.3 7.3zm0-12.5c2.9 0 5.2 2.3 5.2 5.2s-2.3 5.2-5.2 5.2-5.2-2.3-5.2-5.2 2.3-5.2 5.2-5.2z"/></symbol><symbol id="icon-community" viewBox="0 0 108 108"><path d="M12.5 19.7H0v-2.1h12.5v2.1zm83-2v2.1H108v-2.1H95.5zM12.5 53H0v2h12.5v-2zm83 2H108v-2H95.5v2zM0 90.3h12.5v-2.1H0v2.1zm95.5 0H108v-2.1H95.5v2.1zM90.3 0h-2.1v12.5h2.1V0zm0 24.9h-2.1v10.4H77.9v2.1h10.4v10.4h2.1V37.4H108v-2.1H90.3V24.9zm0 35.3h-2.1v10.4H77.9v2.1h10.4V81h2.1v-8.3H108v-2.1H90.3V60.2zm-2 47.8h2.1V95.5h-2.1V108zM55 0h-2v12.5h2V0zm-2 108h2V95.5h-2V108zM19.7 0h-2.1v12.5h2.1V0zm-2 47.8h2.1V37.4h10.4v-2.1H19.7V24.9h-2.1v10.4H0v2.1h17.7v10.4zm0 60.2h2.1V95.5h-2.1V108zm1-88.3c.6 0 1-.5 1-1 0-.6-.5-1-1-1-.6 0-1 .5-1 1 0 .6.4 1 1 1zm23.9 17.7H53v10.4h2V37.4h10.4v-2.1H55V24.9h-2v10.4H42.6v2.1zm-5.2-1.1c0-.6-.5-1-1-1s-1 .5-1 1c0 .6.5 1 1 1s1-.4 1-1zm35.3 0c0-.6-.5-1-1-1s-1 .5-1 1c0 .6.5 1 1 1s1-.4 1-1zM30.1 72.7v-2.1H19.7V60.2h-2.1v10.4H0v2.1h17.7V81h2.1v-8.3h10.3zm40.5-42.6h2.1V19.7H81v-2.1h-8.3V0h-2.1v17.7H60.2v2.1h10.4v10.3zm-35.3 0h2.1V19.7h10.4v-2.1H37.4V0h-2.1v17.7H24.9v2.1h10.4v10.3zM37.4 55h10.4v-2H37.4V42.6h-2.1V53H24.9v2h10.4v10.4h2.1V55zm0 22.9h-2.1v10.4H24.9v2.1h10.4V108h2.1V90.3h10.4v-2.1H37.4V77.9zm-2.1-6.2c0 .6.5 1 1 1s1-.5 1-1c0-.6-.5-1-1-1s-1 .4-1 1zm30.1-1.1H55V60.2h-2v10.4H42.6v2.1H53V81h2v-8.3h10.4v-2.1zM72.7 55H81v-2h-8.3V42.6h-2.1V53H60.2v2h10.4v10.4h2.1V55zm0 22.9h-2.1v10.4H60.2v2.1h10.4V108h2.1V90.3H81v-2.1h-8.3V77.9zm-2.1-6.2c0 .6.5 1 1 1s1-.5 1-1c0-.6-.5-1-1-1s-1 .4-1 1zM54 19.7c.6 0 1-.5 1-1 0-.6-.5-1-1-1s-1 .5-1 1c0 .6.4 1 1 1zm34.3 0c.6 0 1-.5 1-1 0-.6-.5-1-1-1-.6 0-1 .5-1 1-.1.6.4 1 1 1zM17.7 54c0 .6.5 1 1 1 .6 0 1-.5 1-1 0-.6-.5-1-1-1-.6 0-1 .4-1 1zM53 54c0 .6.5 1 1 1s1-.5 1-1c0-.6-.5-1-1-1s-1 .4-1 1zm36.3 0c0-.6-.5-1-1-1-.6 0-1 .5-1 1 0 .6.5 1 1 1s1-.4 1-1zM18.7 88.3c-.6 0-1 .5-1 1 0 .6.5 1 1 1 .6 0 1-.5 1-1 0-.6-.4-1-1-1zm35.3 0c-.6 0-1 .5-1 1 0 .6.5 1 1 1s1-.5 1-1c0-.6-.4-1-1-1zm35.3 1c0-.6-.5-1-1-1-.6 0-1 .5-1 1 0 .6.5 1 1 1s1-.4 1-1zm13.5-83.1c.6 0 1-.5 1-1 0-.6-.5-1-1-1s-1 .5-1 1c0 .6.4 1 1 1zm-6.2 0c.6 0 1-.5 1-1 0-.6-.5-1-1-1-.6 0-1 .5-1 1-.1.6.4 1 1 1zm6.2 6.3c.6 0 1-.5 1-1 0-.6-.5-1-1-1s-1 .5-1 1 .4 1 1 1zM5.2 6.2c.6 0 1-.5 1-1 0-.6-.5-1-1-1s-1 .5-1 1c0 .6.4 1 1 1zm6.2 0c.6 0 1-.5 1-1 0-.6-.5-1-1-1-.6 0-1 .5-1 1 0 .6.4 1 1 1zm-6.2 6.3c.6 0 1-.5 1-1 0-.6-.5-1-1-1s-1 .5-1 1 .4 1 1 1zm97.6 89.3c-.6 0-1 .5-1 1 0 .6.5 1 1 1s1-.5 1-1c0-.6-.4-1-1-1zm-6.2 0c-.6 0-1 .5-1 1 0 .6.5 1 1 1 .6 0 1-.5 1-1 0-.6-.4-1-1-1zm6.2-6.3c-.6 0-1 .5-1 1 0 .6.5 1 1 1s1-.5 1-1-.4-1-1-1zm-97.6 6.3c-.6 0-1 .5-1 1 0 .6.5 1 1 1s1-.5 1-1c0-.6-.4-1-1-1zm6.2 0c-.6 0-1 .5-1 1 0 .6.5 1 1 1 .6 0 1-.5 1-1 .1-.6-.4-1-1-1zm-6.2-6.3c-.6 0-1 .5-1 1 0 .6.5 1 1 1s1-.5 1-1-.4-1-1-1z"/></symbol><symbol id="icon-energy" viewBox="0 0 108 108"><path d="M95.2 57.9l-4.5 4.5h3.7c.4 0 .8.3 1 .6.2.4.1.8-.2 1.1l-4.5 4.5h3.7c.4 0 .8.3 1 .6.2.4.1.8-.2 1.1L89 76.6c-.2.2-.5.3-.7.3-.3 0-.5-.1-.7-.3-.4-.4-.4-1.1 0-1.5l4.5-4.5h-3.7c-.4 0-.8-.3-1-.6-.2-.4-.1-.8.2-1.1l4.5-4.5h-3.7c-.4 0-.8-.3-1-.6-.2-.4-.1-.8.2-1.1l6.2-6.2c.4-.4 1.1-.4 1.5 0 .3.3.3 1-.1 1.4zM108 34.3v37.4c0 3.6-1.1 7.1-3.3 10-3.2 4.2-8 6.6-13.3 6.6-5.3 0-10.1-2.4-13.3-6.6-2.2-2.9-3.3-6.3-3.3-10v-3.1h-8.3v3.1c0 3.4-2.8 6.2-6.2 6.2H54v10.4h-6.2V77.9H18.7v10.4h-6.2V77.9H6.2c-3.4 0-6.2-2.8-6.2-6.2V55.1c0-3.4 2.8-6.2 6.2-6.2h54c3.4 0 6.2 2.8 6.2 6.2v3.1h8.3V32.8c.7-8.5 7.9-15.1 16.5-15.1 8.7 0 15.8 6.6 16.5 15.1v.8c.3.3.3.5.3.7zM6.2 50.9c-2.3 0-4.2 1.9-4.2 4.2v16.6c0 2.3 1.9 4.2 4.2 4.2v-25zm18.7 0v24.9h16.6V50.9H24.9zm-8.3 20.8h-2.1v14.5h2.1V71.7zm2.1-2.1v6.2h4.2V50.9H8.3v24.9h4.2v-6.2h6.2zm33.2 2.1h-2.1v14.5h2.1V71.7zm6.3-20.8H43.6v24.9h4.2v-6.2H54v6.2h4.2V50.9zm6.2 4.2c0-2.3-1.9-4.2-4.2-4.2v24.9c2.3 0 4.2-1.9 4.2-4.2V55.1zm41.5-20.5c-9.5-1.7-19.5-1.7-29.1 0v1c0 .2 0 .4.1.6 0 .2 0 .4.1.5 0 .2.1.4.1.6 0 .2.1.3.1.5.1.2.1.4.2.6 0 .2.1.3.1.5.1.2.2.4.2.6.1.1.1.3.2.4l.3.6c.1.1.1.3.2.4.1.2.3.5.4.7.1.1.1.2.2.3.2.3.4.6.7 1 2.8 3.7 7 5.8 11.6 5.8s8.9-2.1 11.6-5.8c.2-.3.5-.6.7-1 .1-.1.1-.2.2-.3.1-.2.3-.5.4-.7.1-.1.1-.3.2-.4l.3-.6c.1-.1.1-.3.2-.4.1-.2.2-.4.2-.6.1-.2.1-.3.1-.5.1-.2.1-.4.2-.6 0-.2.1-.3.1-.5s.1-.4.1-.6c0-.2 0-.4.1-.5 0-.2.1-.4.1-.6v-.5c.1-.2.1-.4.1-.5zM77 32.4c9.5-1.6 19.4-1.6 28.8 0-.9-7.2-7-12.7-14.4-12.7-7.4.1-13.5 5.5-14.4 12.7zM66.5 60.3v2.1h8.3v-2.1h-8.3zm8.3 6.2v-2.1h-8.3v2.1h8.3zm30.8-23.6c-.1.1-.1.2-.2.4-.2.4-.5.7-.7 1-3.2 4.2-8 6.6-13.3 6.6-5.3 0-10.1-2.4-13.3-6.6-.3-.3-.5-.7-.7-1-.1-.1-.1-.2-.2-.3-.1-.2-.2-.4-.3-.5v29.3c0 3.2 1 6.2 2.9 8.7 2.8 3.7 7 5.8 11.6 5.8s8.9-2.1 11.6-5.8c1.9-2.5 2.9-5.5 2.9-8.7V42.4c-.1.1-.2.3-.3.5zM6.2 107h2.1V96.6H6.2V107zm1.1-14.5c-.6 0-1 .5-1 1 0 .6.5 1 1 1s1-.5 1-1c0-.6-.5-1-1-1zm-4.2 2c-.6 0-1 .5-1 1 0 .6.5 1 1 1s1-.5 1-1c.1-.5-.4-1-1-1zm0 4.2c-.6 0-1 .5-1 1 0 .6.5 1 1 1s1-.5 1-1c.1-.5-.4-1-1-1zm8.3-4.2c-.6 0-1 .5-1 1 0 .6.5 1 1 1s1-.5 1-1c.1-.5-.4-1-1-1zm0 4.2c-.6 0-1 .5-1 1 0 .6.5 1 1 1s1-.5 1-1c.1-.5-.4-1-1-1zm88.3 8.3h2.1V96.6h-2.1V107zm1-14.5c-.6 0-1 .5-1 1 0 .6.5 1 1 1s1-.5 1-1c.1-.6-.4-1-1-1zm-4.1 2c-.6 0-1 .5-1 1 0 .6.5 1 1 1s1-.5 1-1-.4-1-1-1zm0 4.2c-.6 0-1 .5-1 1 0 .6.5 1 1 1s1-.5 1-1-.4-1-1-1zm8.3-4.2c-.6 0-1 .5-1 1 0 .6.5 1 1 1s1-.5 1-1-.4-1-1-1zm0 4.2c-.6 0-1 .5-1 1 0 .6.5 1 1 1s1-.5 1-1-.4-1-1-1zM68.5 107h2.1V96.6h-2.1V107zm1.1-14.5c-.6 0-1 .5-1 1 0 .6.5 1 1 1s1-.5 1-1c0-.6-.4-1-1-1zm-4.2 2c-.6 0-1 .5-1 1 0 .6.5 1 1 1s1-.5 1-1c.1-.5-.4-1-1-1zm0 4.2c-.6 0-1 .5-1 1 0 .6.5 1 1 1s1-.5 1-1c.1-.5-.4-1-1-1zm8.3-4.2c-.6 0-1 .5-1 1 0 .6.5 1 1 1s1-.5 1-1c.1-.5-.4-1-1-1zm0 4.2c-.6 0-1 .5-1 1 0 .6.5 1 1 1s1-.5 1-1c.1-.5-.4-1-1-1zm10.4 8.3h2.1V96.6h-2.1V107zm1.1-14.5c-.6 0-1 .5-1 1 0 .6.5 1 1 1s1-.5 1-1c0-.6-.5-1-1-1zm-4.2 2c-.6 0-1 .5-1 1 0 .6.5 1 1 1s1-.5 1-1-.4-1-1-1zm0 4.2c-.6 0-1 .5-1 1 0 .6.5 1 1 1s1-.5 1-1-.4-1-1-1zm8.3-4.2c-.6 0-1 .5-1 1 0 .6.5 1 1 1s1-.5 1-1-.4-1-1-1zm0 4.2c-.6 0-1 .5-1 1 0 .6.5 1 1 1s1-.5 1-1-.4-1-1-1zM53 107h2V96.6h-2V107zm1-14.5c-.6 0-1 .5-1 1 0 .6.5 1 1 1s1-.5 1-1c0-.6-.4-1-1-1zm-4.2 2c-.6 0-1 .5-1 1 0 .6.5 1 1 1s1-.5 1-1c.1-.5-.4-1-1-1zm0 4.2c-.6 0-1 .5-1 1 0 .6.5 1 1 1s1-.5 1-1c.1-.5-.4-1-1-1zm8.4-4.2c-.6 0-1 .5-1 1 0 .6.5 1 1 1s1-.5 1-1-.5-1-1-1zm0 4.2c-.6 0-1 .5-1 1 0 .6.5 1 1 1s1-.5 1-1-.5-1-1-1zM37.4 107h2.1V96.6h-2.1V107zm1-14.5c-.6 0-1 .5-1 1 0 .6.5 1 1 1s1-.5 1-1c.1-.6-.4-1-1-1zm-4.1 2c-.6 0-1 .5-1 1 0 .6.5 1 1 1s1-.5 1-1-.5-1-1-1zm0 4.2c-.6 0-1 .5-1 1 0 .6.5 1 1 1s1-.5 1-1-.5-1-1-1zm8.3-4.2c-.6 0-1 .5-1 1 0 .6.5 1 1 1s1-.5 1-1-.4-1-1-1zm0 4.2c-.6 0-1 .5-1 1 0 .6.5 1 1 1s1-.5 1-1-.4-1-1-1zM21.8 107h2.1V96.6h-2.1V107zm1-14.5c-.6 0-1 .5-1 1 0 .6.5 1 1 1s1-.5 1-1c.1-.6-.4-1-1-1zm-4.1 2c-.6 0-1 .5-1 1 0 .6.5 1 1 1s1-.5 1-1-.4-1-1-1zm0 4.2c-.6 0-1 .5-1 1 0 .6.5 1 1 1s1-.5 1-1-.4-1-1-1zm8.3-4.2c-.6 0-1 .5-1 1 0 .6.5 1 1 1s1-.5 1-1-.4-1-1-1zm0 4.2c-.6 0-1 .5-1 1 0 .6.5 1 1 1s1-.5 1-1-.4-1-1-1zM8.3 32.2H6.2v10.4h2.1V32.2zm-1-2c.6 0 1-.5 1-1 0-.6-.5-1-1-1s-1 .5-1 1c-.1.5.4 1 1 1zm-4.2 2c.6 0 1-.5 1-1 0-.6-.5-1-1-1s-1 .5-1 1c0 .6.4 1 1 1zm0 4.2c.6 0 1-.5 1-1 0-.6-.5-1-1-1s-1 .5-1 1 .4 1 1 1zm8.3-4.2c.6 0 1-.5 1-1 0-.6-.5-1-1-1s-1 .5-1 1c0 .6.4 1 1 1zm0 4.2c.6 0 1-.5 1-1 0-.6-.5-1-1-1s-1 .5-1 1 .4 1 1 1zM55 32.2h-2v10.4h2V32.2zm-1-2c.6 0 1-.5 1-1 0-.6-.5-1-1-1s-1 .5-1 1 .4 1 1 1zm-4.2 2c.6 0 1-.5 1-1 0-.6-.5-1-1-1s-1 .5-1 1c0 .6.5 1 1 1zm0 4.2c.6 0 1-.5 1-1 0-.6-.5-1-1-1s-1 .5-1 1 .5 1 1 1zm8.4-4.2c.6 0 1-.5 1-1 0-.6-.5-1-1-1s-1 .5-1 1c-.1.6.4 1 1 1zm0 4.2c.6 0 1-.5 1-1 0-.6-.5-1-1-1s-1 .5-1 1c-.1.5.4 1 1 1zm-18.7-4.2h-2.1v10.4h2.1V32.2zm-1.1-2c.6 0 1-.5 1-1 0-.6-.5-1-1-1s-1 .5-1 1 .4 1 1 1zm-4.1 2c.6 0 1-.5 1-1 0-.6-.5-1-1-1s-1 .5-1 1c-.1.6.4 1 1 1zm0 4.2c.6 0 1-.5 1-1 0-.6-.5-1-1-1s-1 .5-1 1c-.1.5.4 1 1 1zm8.3-4.2c.6 0 1-.5 1-1 0-.6-.5-1-1-1s-1 .5-1 1c-.1.6.4 1 1 1zm0 4.2c.6 0 1-.5 1-1 0-.6-.5-1-1-1s-1 .5-1 1c-.1.5.4 1 1 1zm-18.7-4.2h-2.1v10.4h2.1V32.2zm-1.1-2c.6 0 1-.5 1-1 0-.6-.5-1-1-1s-1 .5-1 1 .5 1 1 1zm-4.1 2c.6 0 1-.5 1-1 0-.6-.5-1-1-1s-1 .5-1 1c0 .6.4 1 1 1zm0 4.2c.6 0 1-.5 1-1 0-.6-.5-1-1-1s-1 .5-1 1 .4 1 1 1zm8.3-4.2c.6 0 1-.5 1-1 0-.6-.5-1-1-1s-1 .5-1 1c0 .6.4 1 1 1zm0 4.2c.6 0 1-.5 1-1 0-.6-.5-1-1-1s-1 .5-1 1 .4 1 1 1zM8.3 3.2H6.2v10.4h2.1V3.2zm-1-2.1c.6 0 1-.5 1-1 0-.6-.5-1-1-1s-1 .5-1 1c-.1.5.4 1 1 1zM3.1 3.2c.6 0 1-.5 1-1 0-.6-.5-1-1-1s-1 .5-1 1 .4 1 1 1zm0 4.1c.6 0 1-.5 1-1 0-.6-.5-1-1-1s-1 .5-1 1 .4 1 1 1zm8.3-4.1c.6 0 1-.5 1-1 0-.6-.5-1-1-1s-1 .5-1 1 .4 1 1 1zm0 4.1c.6 0 1-.5 1-1 0-.6-.5-1-1-1s-1 .5-1 1 .4 1 1 1zM55 3.2h-2v10.4h2V3.2zm-1-2.1c.6 0 1-.5 1-1 0-.6-.5-1-1-1s-1 .5-1 1 .4 1 1 1zm-4.2 2.1c.6 0 1-.5 1-1 0-.6-.5-1-1-1s-1 .5-1 1 .5 1 1 1zm0 4.1c.6 0 1-.5 1-1 0-.6-.5-1-1-1s-1 .5-1 1 .5 1 1 1zm8.4-4.1c.6 0 1-.5 1-1 0-.6-.5-1-1-1s-1 .5-1 1c-.1.5.4 1 1 1zm0 4.1c.6 0 1-.5 1-1 0-.6-.5-1-1-1s-1 .5-1 1c-.1.5.4 1 1 1zm12.4-4.1h-2.1v10.4h2.1V3.2zm-1-2.1c.6 0 1-.5 1-1 0-.6-.5-1-1-1s-1 .5-1 1c-.1.5.4 1 1 1zm-4.2 2.1c.6 0 1-.5 1-1 0-.6-.5-1-1-1s-1 .5-1 1 .4 1 1 1zm0 4.1c.6 0 1-.5 1-1 0-.6-.5-1-1-1s-1 .5-1 1 .4 1 1 1zm8.3-4.1c.6 0 1-.5 1-1 0-.6-.5-1-1-1s-1 .5-1 1 .5 1 1 1zm0 4.1c.6 0 1-.5 1-1 0-.6-.5-1-1-1s-1 .5-1 1 .5 1 1 1zm12.5-4.1h-2.1v10.4h2.1V3.2zm-1-2.1c.6 0 1-.5 1-1 0-.6-.5-1-1-1s-1 .5-1 1c-.1.5.4 1 1 1zM81 3.2c.6 0 1-.5 1-1 0-.6-.5-1-1-1s-1 .5-1 1 .4 1 1 1zm0 4.1c.6 0 1-.5 1-1 0-.6-.5-1-1-1s-1 .5-1 1 .4 1 1 1zm8.3-4.1c.6 0 1-.5 1-1 0-.6-.5-1-1-1s-1 .5-1 1 .4 1 1 1zm0 4.1c.6 0 1-.5 1-1 0-.6-.5-1-1-1s-1 .5-1 1 .4 1 1 1zm12.5-4.1h-2.1v10.4h2.1V3.2zm-1.1-2.1c.6 0 1-.5 1-1 0-.6-.5-1-1-1s-1 .5-1 1 .5 1 1 1zm-4.1 2.1c.6 0 1-.5 1-1 0-.6-.5-1-1-1s-1 .5-1 1c-.1.5.4 1 1 1zm0 4.1c.6 0 1-.5 1-1 0-.6-.5-1-1-1s-1 .5-1 1c-.1.5.4 1 1 1zm8.3-4.1c.6 0 1-.5 1-1 0-.6-.5-1-1-1s-1 .5-1 1c-.1.5.4 1 1 1zm0 4.1c.6 0 1-.5 1-1 0-.6-.5-1-1-1s-1 .5-1 1c-.1.5.4 1 1 1zM39.5 3.2h-2.1v10.4h2.1V3.2zm-1.1-2.1c.6 0 1-.5 1-1 0-.6-.5-1-1-1s-1 .5-1 1 .4 1 1 1zm-4.1 2.1c.6 0 1-.5 1-1 0-.6-.5-1-1-1s-1 .5-1 1c-.1.5.4 1 1 1zm0 4.1c.6 0 1-.5 1-1 0-.6-.5-1-1-1s-1 .5-1 1c-.1.5.4 1 1 1zm8.3-4.1c.6 0 1-.5 1-1 0-.6-.5-1-1-1s-1 .5-1 1c-.1.5.4 1 1 1zm0 4.1c.6 0 1-.5 1-1 0-.6-.5-1-1-1s-1 .5-1 1c-.1.5.4 1 1 1zM23.9 3.2h-2.1v10.4h2.1V3.2zm-1.1-2.1c.6 0 1-.5 1-1 0-.6-.5-1-1-1s-1 .5-1 1 .5 1 1 1zm-4.1 2.1c.6 0 1-.5 1-1 0-.6-.5-1-1-1s-1 .5-1 1 .4 1 1 1zm0 4.1c.6 0 1-.5 1-1 0-.6-.5-1-1-1s-1 .5-1 1 .4 1 1 1zM27 3.2c.6 0 1-.5 1-1 0-.6-.5-1-1-1s-1 .5-1 1 .4 1 1 1zm0 4.1c.6 0 1-.5 1-1 0-.6-.5-1-1-1s-1 .5-1 1 .4 1 1 1zm20.8 10.4h-2.1v10.4h2.1V17.7zm-1.1-2.1c.6 0 1-.5 1-1 0-.6-.5-1-1-1s-1 .5-1 1c0 .6.5 1 1 1zm-4.1 2.1c.6 0 1-.5 1-1 0-.6-.5-1-1-1s-1 .5-1 1c-.1.5.4 1 1 1zm0 4.1c.6 0 1-.5 1-1 0-.6-.5-1-1-1s-1 .5-1 1c-.1.6.4 1 1 1zm7.2-5.1c0 .6.5 1 1 1s1-.5 1-1c0-.6-.5-1-1-1s-1 .4-1 1zm1.1 3.1c-.6 0-1 .5-1 1 0 .6.5 1 1 1s1-.5 1-1c0-.6-.4-1-1-1zm12.4-2.1h-2.1v10.4h2.1V17.7zm-1-2.1c.6 0 1-.5 1-1 0-.6-.5-1-1-1s-1 .5-1 1c0 .6.4 1 1 1zm-4.1 2.1c.6 0 1-.5 1-1 0-.6-.5-1-1-1s-1 .5-1 1c-.1.5.4 1 1 1zm0 4.1c.6 0 1-.5 1-1 0-.6-.5-1-1-1s-1 .5-1 1c-.1.6.4 1 1 1zm7.2-5.1c0 .6.5 1 1 1s1-.5 1-1c0-.6-.5-1-1-1s-1 .4-1 1zm1.1 3.1c-.6 0-1 .5-1 1 0 .6.5 1 1 1s1-.5 1-1c0-.6-.5-1-1-1zm-34.3-2.1h-2.1v10.4h2.1V17.7zm-1-2.1c.6 0 1-.5 1-1 0-.6-.5-1-1-1s-1 .5-1 1c-.1.6.4 1 1 1zM27 17.7c.6 0 1-.5 1-1 0-.6-.5-1-1-1s-1 .5-1 1 .4 1 1 1zm0 4.1c.6 0 1-.5 1-1 0-.6-.5-1-1-1s-1 .5-1 1c0 .6.4 1 1 1zm7.3-5.1c0 .6.5 1 1 1s1-.5 1-1c0-.6-.5-1-1-1s-1 .4-1 1zm1 3.1c-.6 0-1 .5-1 1 0 .6.5 1 1 1s1-.5 1-1c0-.6-.4-1-1-1zm-18.7-2.1h-2.1v10.4h2.1V17.7zm-1-2.1c.6 0 1-.5 1-1 0-.6-.5-1-1-1s-1 .5-1 1c-.1.6.4 1 1 1zm-4.2 2.1c.6 0 1-.5 1-1 0-.6-.5-1-1-1s-1 .5-1 1 .4 1 1 1zm0 4.1c.6 0 1-.5 1-1 0-.6-.5-1-1-1s-1 .5-1 1c0 .6.4 1 1 1zm7.3-5.1c0 .6.5 1 1 1s1-.5 1-1c0-.6-.5-1-1-1s-1 .4-1 1zm1 3.1c-.6 0-1 .5-1 1 0 .6.5 1 1 1s1-.5 1-1c.1-.6-.4-1-1-1zm9.4 36.3c.6 0 1-.5 1-1 0-.6-.5-1-1-1s-1 .5-1 1c-.1.6.4 1 1 1zm0 4.2c.6 0 1-.5 1-1 0-.6-.5-1-1-1s-1 .5-1 1c-.1.5.4 1 1 1zm0 4.1c.6 0 1-.5 1-1 0-.6-.5-1-1-1s-1 .5-1 1c-.1.6.4 1 1 1zm0 4.2c.6 0 1-.5 1-1 0-.6-.5-1-1-1s-1 .5-1 1c-.1.5.4 1 1 1zm0 2.1c-.6 0-1 .5-1 1 0 .6.5 1 1 1s1-.5 1-1c0-.6-.4-1-1-1zm18.7-14.6c.6 0 1-.5 1-1 0-.6-.5-1-1-1s-1 .5-1 1c-.1.6.4 1 1 1zm0 4.2c.6 0 1-.5 1-1 0-.6-.5-1-1-1s-1 .5-1 1c-.1.5.4 1 1 1zm0 2c-.6 0-1 .5-1 1 0 .6.5 1 1 1s1-.5 1-1-.5-1-1-1z"/></symbol><symbol id="icon-facebook" viewBox="0 0 5.6 12"><path d="M1.4 2.1v1.4H0v2.1h1.4V12h2.1V5.6h1.9s.2-.7.2-2.1H3.5V2.2c0-.2.5-.8.8-.8h1.4V0H3.8C1.2 0 1.4 1.7 1.4 2"/></symbol><symbol id="icon-factory" viewBox="0 0 108 108"><path d="M6.2 97.6h2.1V108H6.2V97.6zm1.1-4.1c-.6 0-1 .5-1 1 0 .6.5 1 1 1s1-.5 1-1c0-.6-.5-1-1-1zm-4.2 2c-.6 0-1 .5-1 1 0 .6.5 1 1 1s1-.5 1-1c.1-.5-.4-1-1-1zm0 4.2c-.6 0-1 .5-1 1 0 .6.5 1 1 1s1-.5 1-1c.1-.5-.4-1-1-1zm8.3-4.2c-.6 0-1 .5-1 1 0 .6.5 1 1 1s1-.5 1-1c.1-.5-.4-1-1-1zm0 4.2c-.6 0-1 .5-1 1 0 .6.5 1 1 1s1-.5 1-1c.1-.5-.4-1-1-1zm88.3 8.3h2.1V97.6h-2.1V108zm1-14.5c-.6 0-1 .5-1 1 0 .6.5 1 1 1s1-.5 1-1c.1-.6-.4-1-1-1zm-4.1 2c-.6 0-1 .5-1 1 0 .6.5 1 1 1s1-.5 1-1-.4-1-1-1zm0 4.2c-.6 0-1 .5-1 1 0 .6.5 1 1 1s1-.5 1-1-.4-1-1-1zm8.3-4.2c-.6 0-1 .5-1 1 0 .6.5 1 1 1s1-.5 1-1-.4-1-1-1zm0 4.2c-.6 0-1 .5-1 1 0 .6.5 1 1 1s1-.5 1-1-.4-1-1-1zM68.5 108h2.1V97.6h-2.1V108zm1.1-14.5c-.6 0-1 .5-1 1 0 .6.5 1 1 1s1-.5 1-1c0-.6-.4-1-1-1zm-4.2 2c-.6 0-1 .5-1 1 0 .6.5 1 1 1s1-.5 1-1c.1-.5-.4-1-1-1zm0 4.2c-.6 0-1 .5-1 1 0 .6.5 1 1 1s1-.5 1-1c.1-.5-.4-1-1-1zm8.3-4.2c-.6 0-1 .5-1 1 0 .6.5 1 1 1s1-.5 1-1c.1-.5-.4-1-1-1zm0 4.2c-.6 0-1 .5-1 1 0 .6.5 1 1 1s1-.5 1-1c.1-.5-.4-1-1-1zm10.4 8.3h2.1V97.6h-2.1V108zm1.1-14.5c-.6 0-1 .5-1 1 0 .6.5 1 1 1s1-.5 1-1c0-.6-.5-1-1-1zm-4.2 2c-.6 0-1 .5-1 1 0 .6.5 1 1 1s1-.5 1-1-.4-1-1-1zm0 4.2c-.6 0-1 .5-1 1 0 .6.5 1 1 1s1-.5 1-1-.4-1-1-1zm8.3-4.2c-.6 0-1 .5-1 1 0 .6.5 1 1 1s1-.5 1-1-.4-1-1-1zm0 4.2c-.6 0-1 .5-1 1 0 .6.5 1 1 1s1-.5 1-1-.4-1-1-1zM53 108h2V97.6h-2V108zm1-14.5c-.6 0-1 .5-1 1 0 .6.5 1 1 1s1-.5 1-1c0-.6-.4-1-1-1zm-4.2 2c-.6 0-1 .5-1 1 0 .6.5 1 1 1s1-.5 1-1c.1-.5-.4-1-1-1zm0 4.2c-.6 0-1 .5-1 1 0 .6.5 1 1 1s1-.5 1-1c.1-.5-.4-1-1-1zm8.4-4.2c-.6 0-1 .5-1 1 0 .6.5 1 1 1s1-.5 1-1-.5-1-1-1zm0 4.2c-.6 0-1 .5-1 1 0 .6.5 1 1 1s1-.5 1-1-.5-1-1-1zM37.4 108h2.1V97.6h-2.1V108zm1-14.5c-.6 0-1 .5-1 1 0 .6.5 1 1 1s1-.5 1-1c.1-.6-.4-1-1-1zm-4.1 2c-.6 0-1 .5-1 1 0 .6.5 1 1 1s1-.5 1-1-.5-1-1-1zm0 4.2c-.6 0-1 .5-1 1 0 .6.5 1 1 1s1-.5 1-1-.5-1-1-1zm8.3-4.2c-.6 0-1 .5-1 1 0 .6.5 1 1 1s1-.5 1-1-.4-1-1-1zm0 4.2c-.6 0-1 .5-1 1 0 .6.5 1 1 1s1-.5 1-1-.4-1-1-1zM21.8 108h2.1V97.6h-2.1V108zm1-14.5c-.6 0-1 .5-1 1 0 .6.5 1 1 1s1-.5 1-1c.1-.6-.4-1-1-1zm-4.1 2c-.6 0-1 .5-1 1 0 .6.5 1 1 1s1-.5 1-1-.4-1-1-1zm0 4.2c-.6 0-1 .5-1 1 0 .6.5 1 1 1s1-.5 1-1-.4-1-1-1zm8.3-4.2c-.6 0-1 .5-1 1 0 .6.5 1 1 1s1-.5 1-1-.4-1-1-1zm0 4.2c-.6 0-1 .5-1 1 0 .6.5 1 1 1s1-.5 1-1-.4-1-1-1zm81-76.9v64.4H0V1C0 .6.3.2.6 0c.4-.1.9 0 1.2.3l21.1 21.1V1c0-.4.3-.8.6-1 .4-.2.8-.1 1.1.2l21.1 21.1V1c0-.4.3-.8.6-1 .4-.2.8-.1 1.1.2L70 22.8h3.7V6.2C73.7 2.8 76.5 0 80 0c3.4 0 6.2 2.8 6.2 6.2v16.6h4.2V6.2c0-3.4 2.8-6.2 6.2-6.2 3.4 0 6.2 2.8 6.2 6.2v16.6h5.2zM100.6 11l-.2.2c-.1.1-.2.1-.2.2l-.2.2c-.1.1-.2.1-.3.2-.1 0-.2.1-.2.1-.1 0-.2.1-.3.1-.1 0-.2.1-.2.1-.1 0-.2.1-.3.1-.1 0-.2.1-.2.1-.1 0-.2.1-.3.1-.1 0-.2 0-.2.1-.1 0-.3 0-.4.1H96c-.1 0-.3 0-.4-.1-.1 0-.2 0-.2-.1-.1 0-.2-.1-.3-.1-.1 0-.2-.1-.2-.1-.1 0-.2-.1-.3-.1-.1 0-.2-.1-.2-.1-.1 0-.2-.1-.3-.1-.1 0-.2-.1-.2-.1-.1-.1-.2-.1-.3-.2-.1 0-.1-.1-.2-.2s-.2-.1-.2-.2L93 11l-.1-.1v24.4c0 2.3 1.9 4.2 4.2 4.2 2.3 0 4.2-1.9 4.2-4.2V10.9c-.6 0-.6 0-.7.1zm-8.2-4.8c0 2.3 1.9 4.2 4.2 4.2 2.3 0 4.2-1.9 4.2-4.2S98.9 2 96.6 2c-2.3.1-4.2 1.9-4.2 4.2zM84 11l-.2.2c-.1.1-.2.1-.2.2l-.2.2c-.1.1-.2.1-.3.2-.1 0-.2.1-.2.1-.1 0-.2.1-.3.1-.1 0-.2.1-.2.1-.1 0-.2.1-.3.1-.1 0-.2.1-.2.1-.1 0-.2.1-.3.1-.1 0-.2 0-.2.1-.1 0-.3 0-.4.1h-1.6c-.1 0-.3 0-.4-.1-.1 0-.2 0-.2-.1-.1 0-.2-.1-.3-.1-.1 0-.2-.1-.2-.1-.1 0-.2-.1-.3-.1-.1 0-.2-.1-.2-.1-.1 0-.2-.1-.3-.1-.1 0-.2-.1-.2-.1-.1-.1-.2-.1-.3-.2-.1 0-.1-.1-.2-.2s-.2-.1-.2-.2c-.6-.1-.6-.2-.7-.2l-.1-.1v24.4c0 2.3 1.9 4.2 4.2 4.2s4.2-1.9 4.2-4.2V10.9c-.1 0-.2 0-.2.1zm-8.2-4.8c0 2.3 1.9 4.2 4.2 4.2s4.2-1.9 4.2-4.2-1.9-4.1-4.2-4.1-4.2 1.8-4.2 4.1zm-28 17.3l20.8 20.8v-20L47.8 3.5v20zm-22.9 0l20.8 20.8v-20L24.9 3.5v20zm-22.8-.7v.6l20.8 20.8V24.3L2.1 3.5v19.3zM81 85.2V70.6h-4.2v14.5H81zm-6.2-37.4v-2.1H106V24.9h-3.1v10.4c0 3.4-2.8 6.2-6.2 6.2-3.4 0-6.2-2.8-6.2-6.2V24.9h-4.2v10.4c0 3.4-2.8 6.2-6.2 6.2-3.4 0-6.2-2.8-6.2-6.2V24.9h-3.1v21.8c0 .4-.3.8-.6 1-.1.1-.3.1-.4.1-.3 0-.5-.1-.7-.3L47.8 26.4v19.3h8.3v2.1h-9.3c-.3 0-.5-.1-.7-.3L24.9 26.4v19.3h8.3v2.1h-9.3c-.2 0-.3 0-.5-.1h-.1c-.1 0-.2-.1-.2-.2l-21-21.1v19.3h8.3v2.1H2.1v37.4h72.7V68.5h8.3v16.6h22.8V47.8H74.8zM16.6 59.2c0 2.3-1.9 4.2-4.2 4.2s-4.2-1.9-4.2-4.2c0-2.3 1.9-4.2 4.2-4.2s4.2 1.9 4.2 4.2zm-2.1 0c0-1.1-.9-2.1-2.1-2.1s-2.1.9-2.1 2.1.9 2.1 2.1 2.1 2.1-1 2.1-2.1zm2.1 14.5c0 2.3-1.9 4.2-4.2 4.2S8.3 76 8.3 73.7c0-2.3 1.9-4.2 4.2-4.2s4.1 1.9 4.1 4.2zm-2.1 0c0-1.1-.9-2.1-2.1-2.1s-2.1.9-2.1 2.1c0 1.1.9 2.1 2.1 2.1s2.1-.9 2.1-2.1zm18.7-14.5c0 2.3-1.9 4.2-4.2 4.2s-4.2-1.9-4.2-4.2c0-2.3 1.9-4.2 4.2-4.2s4.2 1.9 4.2 4.2zm-2 0c0-1.1-.9-2.1-2.1-2.1-1.1 0-2.1.9-2.1 2.1s.9 2.1 2.1 2.1c1.1 0 2.1-1 2.1-2.1zm2 14.5c0 2.3-1.9 4.2-4.2 4.2s-4.2-1.9-4.2-4.2c0-2.3 1.9-4.2 4.2-4.2s4.2 1.9 4.2 4.2zm-2 0c0-1.1-.9-2.1-2.1-2.1-1.1 0-2.1.9-2.1 2.1 0 1.1.9 2.1 2.1 2.1 1.1 0 2.1-.9 2.1-2.1zm18.6-14.5c0 2.3-1.9 4.2-4.2 4.2-2.3 0-4.2-1.9-4.2-4.2 0-2.3 1.9-4.2 4.2-4.2 2.4 0 4.2 1.9 4.2 4.2zm-2 0c0-1.1-.9-2.1-2.1-2.1-1.1 0-2.1.9-2.1 2.1s.9 2.1 2.1 2.1c1.1 0 2.1-1 2.1-2.1zm2 14.5c0 2.3-1.9 4.2-4.2 4.2-2.3 0-4.2-1.9-4.2-4.2 0-2.3 1.9-4.2 4.2-4.2 2.4.1 4.2 1.9 4.2 4.2zm-2 0c0-1.1-.9-2.1-2.1-2.1-1.1 0-2.1.9-2.1 2.1 0 1.1.9 2.1 2.1 2.1 1.1 0 2.1-.9 2.1-2.1zm18.7-14.5c0 2.3-1.9 4.2-4.2 4.2s-4.2-1.9-4.2-4.2c0-2.3 1.9-4.2 4.2-4.2s4.2 1.9 4.2 4.2zm-2.1 0c0-1.1-.9-2.1-2.1-2.1-1.1 0-2.1.9-2.1 2.1s.9 2.1 2.1 2.1c1.2 0 2.1-1 2.1-2.1zm2.1 14.5c0 2.3-1.9 4.2-4.2 4.2s-4.2-1.9-4.2-4.2c0-2.3 1.9-4.2 4.2-4.2s4.2 1.9 4.2 4.2zm-2.1 0c0-1.1-.9-2.1-2.1-2.1-1.1 0-2.1.9-2.1 2.1 0 1.1.9 2.1 2.1 2.1 1.2 0 2.1-.9 2.1-2.1zm27-14.5c0-2.3 1.9-4.2 4.2-4.2s4.2 1.9 4.2 4.2c0 2.3-1.9 4.2-4.2 4.2s-4.2-1.9-4.2-4.2zm2.1 0c0 1.1.9 2.1 2.1 2.1 1.1 0 2.1-.9 2.1-2.1s-.9-2.1-2.1-2.1c-1.2 0-2.1.9-2.1 2.1zm-18.7 0c0-2.3 1.9-4.2 4.2-4.2 2.3 0 4.2 1.9 4.2 4.2 0 2.3-1.9 4.2-4.2 4.2-2.4-.1-4.2-1.9-4.2-4.2zm2 0c0 1.1.9 2.1 2.1 2.1 1.1 0 2.1-.9 2.1-2.1s-.9-2.1-2.1-2.1c-1.1 0-2.1.9-2.1 2.1zm14.6 14.5c0-2.3 1.9-4.2 4.2-4.2s4.2 1.9 4.2 4.2c0 2.3-1.9 4.2-4.2 4.2s-4.2-1.9-4.2-4.2zm2.1 0c0 1.1.9 2.1 2.1 2.1 1.1 0 2.1-.9 2.1-2.1 0-1.1-.9-2.1-2.1-2.1-1.2.1-2.1 1-2.1 2.1z"/></symbol><symbol id="icon-farm" viewBox="0 0 108 108"><path d="M34.3 73.7c0 .6-.5 1-1 1s-1-.5-1-1c0-.6.5-1 1-1s1 .5 1 1zm-10.2 27.9l4.6 4.6c.4.4.4 1.1 0 1.5-.2.2-.5.3-.7.3s-.5-.1-.7-.3l-4.5-4.5v3.7c0 .6-.5 1-1 1s-1-.5-1-1v-5.2c-8.1-.5-14.5-7.3-14.5-15.5V77c-2.4.5-4.2 2.6-4.2 5.1v1H0v-1c0-4 3.3-7.3 7.3-7.3 3.7 0 6.7 2.7 7.2 6.2h8.4c.5-6.6 5.7-11.8 12.3-12.4-.4-1.2-1.6-2.1-3-2.1H26v-2.1h6.2c.5 0 1 .1 1.4.2-1.5-2-3.9-3.3-6.6-3.3h-1v-2.1h1c5.7 0 10.4 4.7 10.4 10.4v3.1h4.2v2.1h-4.2v11.4c0 7.8-5.8 14.3-13.3 15.4zM12.5 83.1H8.4c.5 3.5 3.5 6.2 7.2 6.2s6.7-2.7 7.2-6.2H12.5zM8.3 81h4c-.4-2-2-3.6-4-4v4zm27 5.2V70.7c-5.5.5-9.8 4.8-10.3 10.3h5.1v2.1h-5.3c-.5 4.7-4.5 8.3-9.3 8.3-2.9 0-5.4-1.3-7.1-3.3.9 6.6 6.6 11.6 13.4 11.6 7.5 0 13.5-6.1 13.5-13.5zM54 39.5c-.6 0-1 .5-1 1 0 .6.5 1 1 1s1-.5 1-1c0-.6-.4-1-1-1zm53 4.1h1v21.8c0 16.3-13 29.5-29.1 30.1V107c0 .6-.5 1-1 1s-1-.5-1-1V97l-10.7 10.7c-.2.2-.5.3-.7.3-.3 0-.5-.1-.7-.3-.4-.4-.4-1.1 0-1.5l10.8-10.8c-15.5-1.2-27.7-14.2-27.7-30V41.6h-8.3v-2.1h8.3v-7.2c0-5.2 4.2-9.3 9.3-9.3h1v2.1h-1c-3.7 0-6.7 2.7-7.2 6.3 13.5.6 24.3 11.4 24.8 24.9h18.7c.5-7.2 6.4-12.7 13.5-12.7zM93.5 58.2H74.8c.5 8.1 7.3 14.5 15.5 14.5s15-6.4 15.5-14.5H93.5zm12.4 7.2c-3 5.6-8.8 9.3-15.6 9.3-9.4 0-17.1-7.4-17.6-16.6H62.3V56h10.4c-.5-12.3-10.5-22.3-22.8-22.8v32.1c0 15.5 12.6 28 28 28s28-12.4 28-27.9zm0-9.3V45.8c-5.5.5-9.8 4.9-10.3 10.3h10.3zM30.1 23.9c.6 0 1-.5 1-1 0-.6-.5-1-1-1s-1 .5-1 1 .4 1 1 1zM0 11.4V0h1c3.7 0 6.7 2.7 7.2 6.2h10.5c9.2 0 16.6 7.5 16.6 16.6v1.9c1.2-.4 2.1-1.6 2.1-2.9v-1h2.1v1c0 2.9-2.3 5.2-5.2 5.2h-3.1v4.2h-2.1V27h-11l4.5 4.5c.4.4.4 1.1 0 1.5-.2.2-.5.3-.7.3-.3 0-.5-.1-.7-.3l-4.5-4.5v3.7c0 .6-.5 1-1 1s-1-.5-1-1V27C6.4 26.4 0 19.7 0 11.4zm18.7-3.1c-.6 4.7-4.5 8.3-9.3 8.3-2.9 0-5.4-1.3-7.1-3.3.9 6.6 6.6 11.6 13.4 11.6h17.7v-2.1c-.2-8-6.7-14.5-14.7-14.5zm-9.4 6.3c3.7 0 6.7-2.7 7.2-6.2H2.2c.5 3.4 3.5 6.2 7.1 6.2zM2.1 6.2h4c-.4-2-2-3.6-4-4v4zM0 63.4c0-3.1 2.3-5.7 5.3-6.2.5-3 3-5.3 6.2-5.3 3.1 0 5.6 2.3 6.1 5.2h4.2v2.1h-4.2v4.2c0 3.4-2.8 6.2-6.2 6.2h-.6l1.3 1.3c.4.4.4 1.1 0 1.5-.2.2-.5.3-.7.3-.3 0-.5-.1-.7-.3l-2.8-2.8H6.2v2.1c0 .6-.5 1-1 1s-1-.5-1-1v-2.4C1.7 68.4 0 66.1 0 63.4zm2.1 0c0 1.3.6 2.5 1.6 3.2 1-.8 1.6-2 1.6-3.2h2.1c0 1.5-.6 3-1.6 4.1h5.7c2.3 0 4.2-1.9 4.2-4.2v-5.2c0-2.3-1.9-4.2-4.2-4.2s-4.2 1.9-4.2 4.2v1h-1c-2.4.1-4.2 2-4.2 4.3zm10.4-4.2c.6 0 1-.5 1-1 0-.6-.5-1-1-1s-1 .5-1 1c-.1.5.4 1 1 1zM27 51.9h-.6l1.3 1.3c.4.4.4 1.1 0 1.5-.2.2-.5.3-.7.3s-.5-.1-.7-.3l-2.8-2.8h-1.6V54c0 .6-.5 1-1 1s-1-.5-1-1v-2.4c-2.4-.9-4.2-3.2-4.2-5.9 0-3.1 2.3-5.7 5.3-6.2.5-3 3-5.3 6.2-5.3 3.1 0 5.6 2.3 6.1 5.2h4.2v2.1h-4.2v4.2c-.1 3.4-2.9 6.2-6.3 6.2zm-5.2-2H27c2.3 0 4.2-1.9 4.2-4.2v-5.2c0-2.3-1.9-4.2-4.2-4.2s-4.2 1.9-4.2 4.2v1h-1c-2.3 0-4.2 1.9-4.2 4.2 0 1.3.6 2.5 1.6 3.2 1-.8 1.6-2 1.6-3.2h2.1c0 1.5-.6 3-1.6 4.1.1 0 .3.1.5.1zm6.2-8.3c.6 0 1-.5 1-1 0-.6-.5-1-1-1s-1 .5-1 1 .5 1 1 1zm8.3-30.2c0-3.1 2.3-5.7 5.3-6.2.5-3 3-5.3 6.2-5.3 3.1 0 5.6 2.3 6.1 5.2h4.2v2.1H54v4.2c0 3.4-2.8 6.2-6.2 6.2h-.6l1.3 1.3c.4.4.4 1.1 0 1.5-.2.2-.5.3-.7.3-.3 0-.5-.1-.7-.3l-2.8-2.8h-1.6v2.1c0 .6-.5 1-1 1s-1-.5-1-1v-2.4c-2.6-.9-4.4-3.2-4.4-5.9zm2.1 0c0 1.3.6 2.5 1.6 3.2 1-.8 1.6-2 1.6-3.2h2.1c0 1.5-.6 3-1.6 4.1h5.7c2.3 0 4.2-1.9 4.2-4.2v-5c0-2.3-1.9-4.2-4.2-4.2-2.3 0-4.2 1.9-4.2 4.2v1h-1c-2.3 0-4.2 1.8-4.2 4.1zm10.4-4.1c.6 0 1-.5 1-1 0-.6-.5-1-1-1s-1 .5-1 1 .4 1 1 1zM108 5.4v10.4l-2.1-.5v9.6h-4.2v6.2h-2.1v-6.2H89.3v10.5c2.9.5 5.2 3.1 5.2 6.1 0 2.7-1.7 5-4.2 5.9v2.4c0 .6-.5 1-1 1s-1-.5-1-1v-2.1h-1.6l-2.8 2.8c-.2.2-.5.3-.7.3-.3 0-.5-.1-.7-.3-.4-.4-.4-1.1 0-1.5l1.3-1.3h-.6c-3.4 0-6.2-2.8-6.2-6.2v-4.2h-4.2v-2.1H77c.2-1.4 1-2.7 2-3.6v-6.8H68.5V31h-2.1v-6.2h-4.2v-9.6l-2.1.5V5.4l24-5.4L108 5.4zm-45.7 7.9l20.8-4.7V2.4L62.3 7.1v6.2zm26 24.1h-1v-1c0-2.3-1.9-4.2-4.2-4.2-2.3 0-4.2 1.9-4.2 4.2v5.2c0 2.3 1.9 4.2 4.2 4.2h5.7c-1-1.1-1.6-2.6-1.6-4.1h2.1c0 1.3.6 2.5 1.6 3.2.9-.8 1.6-1.9 1.6-3.2-.1-2.4-1.9-4.3-4.2-4.3zm-1.1-12.5H81v5.6c.7-.2 1.3-.4 2.1-.4 1.6 0 3.1.6 4.2 1.6v-6.8zm0-9.3H81v7.3h6.2v-7.3zm16.6-.7l-19.7-4.5-19.7 4.5v8h14.5v-9.3h10.4v9.3h14.5v-8zm2.1-7.8L85.2 2.4v6.2l20.8 4.7V7.1zM82 35.3c-.6 0-1 .5-1 1 0 .6.5 1 1 1s1-.5 1-1c.1-.5-.4-1-1-1zM39.5 96.6c0 .6.5 1 1 1s1-.5 1-1c0-.6-.5-1-1-1s-1 .4-1 1zm5.2 1c.6 0 1-.5 1-1 0-.6-.5-1-1-1s-1 .5-1 1c-.1.6.4 1 1 1zm4.1 0c.6 0 1-.5 1-1 0-.6-.5-1-1-1s-1 .5-1 1c0 .6.4 1 1 1zm-2.1-6.2c-.6 0-1 .5-1 1 0 .6.5 1 1 1s1-.5 1-1c.1-.5-.4-1-1-1zm-4.1 0c-.6 0-1 .5-1 1 0 .6.5 1 1 1s1-.5 1-1-.4-1-1-1zm2.1-4.2c-.6 0-1 .5-1 1 0 .6.5 1 1 1s1-.5 1-1-.5-1-1-1zM53 97.6c.6 0 1-.5 1-1 0-.6-.5-1-1-1s-1 .5-1 1c-.1.6.4 1 1 1zm-2.1-6.2c-.6 0-1 .5-1 1 0 .6.5 1 1 1s1-.5 1-1-.4-1-1-1zm-2.1-4.2c-.6 0-1 .5-1 1 0 .6.5 1 1 1s1-.5 1-1-.4-1-1-1zm-13.5-55c0-.6-.5-1-1-1s-1 .5-1 1c0 .6.5 1 1 1s1-.4 1-1zm3.1-1c-.6 0-1 .5-1 1 0 .6.5 1 1 1s1-.5 1-1c.1-.6-.4-1-1-1zm-2.1 4.1c-.6 0-1 .5-1 1 0 .6.5 1 1 1s1-.5 1-1c.1-.5-.4-1-1-1zm4.2 2.1c.6 0 1-.5 1-1 0-.6-.5-1-1-1s-1 .5-1 1 .4 1 1 1zm-4.2 62.3h20.8v4.2c0 2.3-1.9 4.2-4.2 4.2H40.5c-2.3 0-4.2-1.9-4.2-4.2v-4.2zm2.1 4.2c0 1.1.9 2.1 2.1 2.1H53c1.1 0 2.1-.9 2.1-2.1v-2.1H38.4v2.1z"/></symbol><symbol id="icon-fish" viewBox="0 0 108 108"><path d="M11.2 7.7c3 3 7 4.7 11.2 4.7 4.6 0 9-2 12-5.6l.6-.6-.6-.7C31.5 2 27.1 0 22.5 0c-4.2 0-8.3 1.7-11.2 4.7C8.4 1.8 4.5 0 1 0H0v12.5h1c3.5 0 7.4-1.9 10.2-4.8zm12.5 2.6c-.6-1.3-.8-2.7-.8-4.1 0-1.4.3-2.8.8-4.1 3.3.3 6.3 1.7 8.6 4.1-2.3 2.4-5.4 3.8-8.6 4.1zm-2.2-8.2c-.5 1.3-.7 2.7-.7 4.1 0 1.4.2 2.8.7 4.1-3.3-.2-6.5-1.7-8.8-4.1 2.3-2.4 5.4-3.8 8.8-4.1zM9.8 6.2C7.7 8.4 4.7 10 2.1 10.3v-3h3.1V5.2H2.1v-3c2.6.3 5.6 1.8 7.7 4zm16.2 0c0-.6.5-1 1-1s1 .5 1 1c0 .6-.5 1-1 1s-1-.4-1-1zm57.9 1.5c3 3 7 4.7 11.2 4.7 4.6 0 9-2 12-5.6l.6-.7-.6-.7c-3-3.5-7.4-5.6-12-5.6-4.2 0-8.3 1.7-11.2 4.7C81.1 1.8 77.2 0 73.7 0h-1v12.5h1c3.5 0 7.4-1.9 10.2-4.8zm12.5 2.6c-.6-1.3-.8-2.7-.8-4.1 0-1.4.3-2.8.8-4.1 3.3.3 6.3 1.7 8.6 4.1-2.3 2.4-5.4 3.8-8.6 4.1zm-2.2-8.2c-.5 1.3-.7 2.7-.7 4.1 0 1.4.2 2.8.7 4.1-3.3-.2-6.5-1.7-8.8-4.1 2.3-2.4 5.4-3.8 8.8-4.1zM82.5 6.2c-2.2 2.2-5.1 3.8-7.7 4.1v-3h3.1V5.2h-3.1v-3c2.6.3 5.6 1.8 7.7 4zm16.2 0c0-.6.5-1 1-1s1 .5 1 1c0 .6-.5 1-1 1s-1-.4-1-1zM24 22.4c-3-3-7-4.7-11.2-4.7-4.6 0-9 2-12 5.6l-.6.7.6.7c3 3.5 7.4 5.6 12 5.6 4.2 0 8.3-1.7 11.2-4.7 2.8 2.9 6.7 4.7 10.2 4.7h1V17.7h-1c-3.5 0-7.4 1.8-10.2 4.7zm-12.5-2.6c.6 1.3.8 2.7.8 4.1 0 1.4-.3 2.8-.8 4.1-3.3-.3-6.3-1.7-8.6-4.1 2.3-2.4 5.4-3.8 8.6-4.1zm2.3 8.2c.5-1.3.7-2.7.7-4.1 0-1.4-.2-2.8-.7-4.1 3.3.2 6.5 1.7 8.8 4.1-2.4 2.4-5.5 3.9-8.8 4.1zm11.6-4.1c2.2-2.2 5.1-3.8 7.7-4.1v3H30v2.1h3.1v3c-2.6-.3-5.5-1.8-7.7-4zm-16.1 0c0 .6-.5 1-1 1-.6 0-1-.5-1-1 0-.6.5-1 1-1 .5-.1 1 .4 1 1zm39.8 6.2c4.2 0 8.3-1.7 11.2-4.7 2.8 2.9 6.7 4.7 10.2 4.7h1V17.7h-1c-3.5 0-7.4 1.8-10.2 4.7-3-3-7-4.7-11.2-4.7-4.6 0-9 2-12 5.6l-.6.7.6.7c3 3.4 7.4 5.4 12 5.4zm20.4-10.3v3h-3.1v2.1h3.1v3c-2.7-.3-5.6-1.9-7.7-4.1 2.1-2.1 5-3.7 7.7-4zM50.1 28c.5-1.3.7-2.7.7-4.1 0-1.4-.2-2.8-.7-4.1 3.3.2 6.5 1.7 8.8 4.1-2.3 2.4-5.4 3.9-8.8 4.1zm-2.2-8.2c.6 1.3.8 2.7.8 4.1 0 1.4-.3 2.8-.8 4.1-3.3-.3-6.3-1.7-8.6-4.1 2.3-2.4 5.3-3.8 8.6-4.1zm-2.3 4.1c0 .6-.5 1-1 1-.6 0-1-.5-1-1 0-.6.5-1 1-1 .6-.1 1 .4 1 1zm61.4-6.2c-3.5 0-7.4 1.8-10.2 4.7-3-3-7-4.7-11.2-4.7-4.6 0-9 2-12 5.6l-.6.6.6.7c3 3.5 7.4 5.6 12 5.6 4.2 0 8.3-1.7 11.2-4.7 2.8 2.9 6.7 4.7 10.2 4.7h1V17.7h-1zm-22.7 2.1c.6 1.3.8 2.7.8 4.1 0 1.4-.3 2.8-.8 4.1-3.3-.3-6.3-1.7-8.6-4.1 2.3-2.4 5.4-3.8 8.6-4.1zm2.2 8.2c.5-1.3.7-2.7.7-4.1 0-1.4-.2-2.8-.7-4.1 3.3.2 6.5 1.7 8.8 4.1-2.3 2.4-5.4 3.9-8.8 4.1zm11.7-4.1c2.2-2.2 5.1-3.8 7.7-4.1v3h-3.1v2.1h3.1v3c-2.6-.3-5.6-1.8-7.7-4zm-16.2 0c0 .6-.5 1-1 1s-1-.5-1-1c0-.6.5-1 1-1s1 .4 1 1zM62.4 44.3l.6-.7-.6-.7c-4.7-5.5-11.5-8.7-18.7-8.7-6.8 0-13.3 2.8-18 7.8-4.4-4.8-10.7-7.8-16.3-7.8h-1V53h1c5.6 0 11.9-3 16.3-7.8 4.6 5 11.1 7.8 18 7.8 7.2 0 14.1-3.2 18.7-8.7zm-2.1-.7c-2.8 3-6.3 5.2-10.2 6.3-.8-2-1.2-4.1-1.2-6.3s.4-4.3 1.2-6.3c3.9 1.1 7.4 3.3 10.2 6.3zm-49.8 7.2v-6.2h5.6v-2.1h-5.6v-6.2c4.8.4 10.1 3.1 13.9 7.2-3.9 4.3-9.1 7-13.9 7.3zm16.6-7.2c4.3-4.6 10.2-7.3 16.6-7.3 1.5 0 2.9.1 4.4.4-.8 2.2-1.3 4.5-1.3 6.8 0 2.4.4 4.7 1.3 6.8-1.4.3-2.9.4-4.4.4-6.3.2-12.3-2.5-16.6-7.1zm25.9 0c0-.6.5-1 1-1 .6 0 1 .5 1 1 0 .6-.5 1-1 1-.5.1-1-.4-1-1zm42.2-6.2c-4.2 0-8.3 1.7-11.2 4.7-2.8-2.9-6.7-4.7-10.2-4.7h-1v12.5h1c3.5 0 7.4-1.8 10.2-4.7 3 3 7 4.7 11.2 4.7 4.6 0 9-2 12-5.6l.6-.7-.6-.7c-3-3.5-7.4-5.5-12-5.5zM74.8 47.7v-3h3.1v-2.1h-3.1v-3c2.7.3 5.6 1.9 7.7 4.1-2.1 2.1-5.1 3.7-7.7 4zm19.4-8.2c-.5 1.3-.7 2.7-.7 4.1 0 1.4.2 2.8.7 4.1-3.3-.2-6.5-1.7-8.8-4.1 2.3-2.4 5.4-3.9 8.8-4.1zm2.2 8.2c-.6-1.3-.8-2.7-.8-4.1 0-1.4.3-2.8.8-4.1 3.3.3 6.3 1.7 8.6 4.1-2.3 2.4-5.4 3.8-8.6 4.1zm2.3-4.1c0-.6.5-1 1-1s1 .5 1 1-.5 1-1 1-1-.4-1-1zM24 62.9c-3-3-7-4.7-11.2-4.7-4.6 0-9 2-12 5.6l-.6.7.6.7c3 3.5 7.4 5.6 12 5.6 4.2 0 8.3-1.7 11.2-4.7 2.8 2.9 6.7 4.7 10.2 4.7h1V58.2h-1c-3.5 0-7.4 1.8-10.2 4.7zm-12.5-2.6c.6 1.3.8 2.7.8 4.1 0 1.4-.3 2.8-.8 4.1-3.3-.3-6.3-1.7-8.6-4.1 2.3-2.4 5.4-3.8 8.6-4.1zm2.3 8.2c.5-1.3.7-2.7.7-4.1 0-1.4-.2-2.8-.7-4.1 3.3.2 6.5 1.7 8.8 4.1-2.4 2.4-5.5 3.9-8.8 4.1zm11.6-4.1c2.2-2.2 5.1-3.8 7.7-4.1v3H30v2.1h3.1v3c-2.6-.3-5.5-1.8-7.7-4zm-16.1 0c0 .6-.5 1-1 1-.6 0-1-.5-1-1 0-.6.5-1 1-1 .5-.1 1 .4 1 1zm72.9 1.5c4.4 4.8 10.7 7.8 16.3 7.8h1V55h-1c-5.6 0-11.9 3-16.3 7.8-4.6-5-11.1-7.8-18-7.8-7.2 0-14.1 3.2-18.7 8.7l-.6.7.6.7c4.7 5.5 11.5 8.7 18.7 8.7 6.9-.1 13.4-2.9 18-7.9zm15.3-8.7v6.2h-5.6v2.1h5.6v6.2c-4.8-.4-10.1-3.1-13.9-7.2 3.8-4.3 9.1-7 13.9-7.3zm-49.8 7.2c2.8-3 6.3-5.2 10.2-6.3.8 2 1.2 4.1 1.2 6.3s-.4 4.3-1.2 6.3c-3.9-1.1-7.4-3.3-10.2-6.3zm16.5 7.3c-1.5 0-2.9-.1-4.4-.4.8-2.2 1.3-4.5 1.3-6.8s-.4-4.7-1.3-6.8c1.4-.3 2.9-.4 4.4-.4 6.3 0 12.3 2.6 16.6 7.3-4.3 4.4-10.3 7.1-16.6 7.1zm-9.3-7.3c0 .6-.5 1-1 1-.6 0-1-.5-1-1 0-.6.5-1 1-1 .5-.1 1 .4 1 1zm40.3 13.5c-4.2 0-8.3 1.7-11.2 4.7-2.8-2.9-6.7-4.7-10.2-4.7h-1v12.5h1c3.5 0 7.4-1.8 10.2-4.7 3 3 7 4.7 11.2 4.7 4.6 0 9-2 12-5.6l.6-.7-.6-.7c-3-3.5-7.4-5.5-12-5.5zM74.8 88.2v-3h3.1v-2.1h-3.1v-3c2.7.3 5.6 1.9 7.7 4.1-2.1 2.1-5.1 3.7-7.7 4zM94.2 80c-.5 1.3-.7 2.7-.7 4.1 0 1.4.2 2.8.7 4.1-3.3-.2-6.5-1.7-8.8-4.1 2.3-2.4 5.4-3.9 8.8-4.1zm2.2 8.2c-.6-1.3-.8-2.7-.8-4.1 0-1.4.3-2.8.8-4.1 3.3.3 6.3 1.7 8.6 4.1-2.3 2.4-5.4 3.8-8.6 4.1zm2.3-4.1c0-.6.5-1 1-1s1 .5 1 1c0 .6-.5 1-1 1s-1-.4-1-1zm-87.5 1.5c3 3 7 4.7 11.2 4.7 4.6 0 9-2 12-5.6l.6-.7-.6-.7c-3-3.5-7.4-5.6-12-5.6-4.2 0-8.3 1.7-11.2 4.7-2.8-2.7-6.7-4.5-10.2-4.5H0v12.5h1c3.5-.1 7.4-1.9 10.2-4.8zm12.5 2.6c-.6-1.3-.8-2.7-.8-4.1 0-1.4.3-2.8.8-4.1 3.3.3 6.3 1.7 8.6 4.1-2.3 2.4-5.4 3.8-8.6 4.1zM21.5 80c-.5 1.3-.7 2.7-.7 4.1 0 1.4.2 2.8.7 4.1-3.3-.2-6.5-1.7-8.8-4.1 2.3-2.4 5.4-3.9 8.8-4.1zM9.8 84.1c-2.2 2.2-5.1 3.8-7.7 4.1v-3h3.1v-2.1H2.1v-3c2.6.3 5.6 1.8 7.7 4zm16.2 0c0-.6.5-1 1-1s1 .5 1 1c0 .6-.5 1-1 1s-1-.4-1-1zm-2 16.2c-3-3-7-4.7-11.2-4.7-4.6 0-9 2-12 5.6l-.6.7.6.7c3 3.5 7.4 5.6 12 5.6 4.2 0 8.3-1.7 11.2-4.7 2.8 2.9 6.7 4.7 10.2 4.7h1V95.5h-1c-3.5 0-7.4 1.9-10.2 4.8zm-12.5-2.6c.6 1.3.8 2.7.8 4.1 0 1.4-.3 2.8-.8 4.1-3.3-.3-6.3-1.7-8.6-4.1 2.3-2.4 5.4-3.8 8.6-4.1zm2.3 8.2c.5-1.3.7-2.7.7-4.1 0-1.4-.2-2.8-.7-4.1 3.3.2 6.5 1.7 8.8 4.1-2.4 2.4-5.5 3.8-8.8 4.1zm11.6-4.1c2.2-2.2 5.1-3.8 7.7-4.1v3H30v2.1h3.1v3c-2.6-.3-5.5-1.8-7.7-4zm-16.1 0c0 .6-.5 1-1 1-.6 0-1-.5-1-1 0-.6.5-1 1-1 .5-.1 1 .4 1 1zm51-1.5c-3-3-7-4.7-11.2-4.7-4.6 0-9 2-12 5.6l-.6.7.6.7c3 3.5 7.4 5.6 12 5.6 4.2 0 8.3-1.7 11.2-4.7 2.8 2.9 6.7 4.7 10.2 4.7h1V95.5h-1c-3.4 0-7.3 1.9-10.2 4.8zm-12.4-2.6c.6 1.3.8 2.7.8 4.1 0 1.4-.3 2.8-.8 4.1-3.3-.3-6.3-1.7-8.6-4.1 2.3-2.4 5.3-3.8 8.6-4.1zm2.2 8.2c.5-1.3.7-2.7.7-4.1 0-1.4-.2-2.8-.7-4.1 3.3.2 6.5 1.7 8.8 4.1-2.3 2.4-5.4 3.8-8.8 4.1zm11.7-4.1c2.2-2.2 5.1-3.8 7.7-4.1v3h-3.1v2.1h3.1v3c-2.7-.3-5.6-1.8-7.7-4zm-16.2 0c0 .6-.5 1-1 1-.6 0-1-.5-1-1 0-.6.5-1 1-1 .6-.1 1 .4 1 1zM37.4 5.2V3.1c2.7 0 4.8 2.3 4.9 2.4 0 0 1.6 1.7 3.4 1.7 1.8 0 3.4-1.7 3.4-1.7.1-.1 2.2-2.4 4.9-2.4s4.8 2.3 4.9 2.4c0 0 1.6 1.7 3.4 1.7 1.8 0 3.4-1.7 3.4-1.7.1-.1 2.2-2.4 4.9-2.4v2.1c-1.8 0-3.4 1.7-3.4 1.7-.1.1-2.2 2.4-4.9 2.4S57.5 7 57.4 6.9c0 0-1.6-1.7-3.4-1.7s-3.4 1.7-3.4 1.7c-.1.1-2.2 2.4-4.9 2.4S40.9 7 40.8 6.9c0 0-1.6-1.7-3.4-1.7zm24.9 77.9c-1.8 0-3.4 1.7-3.4 1.7-.1.1-2.2 2.4-4.9 2.4s-4.8-2.3-4.9-2.4c0 0-1.6-1.7-3.4-1.7-1.8 0-3.4 1.7-3.4 1.7-.1.1-2.2 2.4-4.9 2.4v-2.1c1.8 0 3.4-1.7 3.4-1.7.1-.1 2.2-2.4 4.9-2.4s4.8 2.3 4.9 2.4c0 0 1.6 1.7 3.4 1.7s3.4-1.7 3.4-1.7c.1-.1 2.2-2.4 4.9-2.4s4.8 2.3 4.9 2.4c0 0 1.6 1.7 3.4 1.7v2.1c-2.7 0-4.8-2.3-4.9-2.4 0 0-1.6-1.7-3.4-1.7zM107 98.7v2.1c-1.8 0-3.4 1.7-3.4 1.7-.1.1-2.2 2.4-4.9 2.4s-4.8-2.3-4.9-2.4c0 0-1.6-1.7-3.4-1.7s-3.4 1.7-3.4 1.7c-.1.1-2.2 2.4-4.9 2.4s-4.8-2.3-4.9-2.4c0 0-1.6-1.7-3.4-1.7v-2.1c2.7 0 4.8 2.3 4.9 2.4 0 0 1.6 1.7 3.4 1.7s3.4-1.7 3.4-1.7c.1-.1 2.2-2.4 4.9-2.4s4.8 2.3 4.9 2.4c0 0 1.6 1.7 3.4 1.7s3.4-1.7 3.4-1.7c0-.1 2.1-2.4 4.9-2.4zM54 80c-.6 0-1-.5-1-1 0-.6.5-1 1-1s1 .5 1 1-.4 1-1 1zm10.9-15.6c0 .6-.5 1-1 1-.6 0-1-.5-1-1 0-.6.5-1 1-1 .5-.1 1 .4 1 1zm-2.6-4.2c0-.6.5-1 1-1s1 .5 1 1c0 .6-.5 1-1 1s-1-.4-1-1zm2.1 8.3c0 .6-.5 1-1 1s-1-.5-1-1c0-.6.5-1 1-1s1 .5 1 1zm3.6-4.1c0 .6-.5 1-1 1-.6 0-1-.5-1-1 0-.6.5-1 1-1 .6-.1 1 .4 1 1zm-2.6-4.2c0-.6.5-1 1-1s1 .5 1 1c0 .6-.5 1-1 1s-1-.4-1-1zm2.1 8.3c0 .6-.5 1-1 1s-1-.5-1-1c0-.6.5-1 1-1s1 .5 1 1zm3.6-4.1c0 .6-.5 1-1 1s-1-.5-1-1c0-.6.5-1 1-1s1 .4 1 1zm-27-19.7c-.6 0-1-.5-1-1 0-.6.5-1 1-1 .6 0 1 .5 1 1 .1.5-.4 1-1 1zm-.5 3.1c0-.6.5-1 1-1s1 .5 1 1c0 .6-.5 1-1 1s-1-.5-1-1zm0-8.3c0-.6.5-1 1-1s1 .5 1 1c0 .6-.5 1-1 1s-1-.5-1-1zM41 44.7c-.6 0-1-.5-1-1 0-.6.5-1 1-1 .6 0 1 .5 1 1 .1.5-.4 1-1 1zm1.6 3.1c0 .6-.5 1-1 1-.6 0-1-.5-1-1 0-.6.5-1 1-1 .5-.1 1 .4 1 1zm0-8.3c0 .6-.5 1-1 1-.6 0-1-.5-1-1 0-.6.5-1 1-1 .5-.1 1 .4 1 1zm-3.7 4.1c0 .6-.5 1-1 1s-1-.5-1-1c0-.6.5-1 1-1s1 .4 1 1zm23.4 44.7c.6 0 1 .5 1 1 0 .6-.5 1-1 1-.6 0-1-.5-1-1 0-.6.4-1 1-1zM91.4 107c0 .6-.5 1-1 1s-1-.5-1-1c0-.6.5-1 1-1s1 .4 1 1zm7.3-9.4c-.6 0-1-.5-1-1 0-.6.5-1 1-1s1 .5 1 1c0 .6-.5 1-1 1zm-16.7 0c-.6 0-1-.5-1-1 0-.6.5-1 1-1s1 .5 1 1c.1.6-.4 1-1 1zm-36.3-9.3c.6 0 1 .5 1 1 0 .6-.5 1-1 1-.6 0-1-.5-1-1 0-.6.4-1 1-1zM54 10.4c.6 0 1 .5 1 1 0 .6-.5 1-1 1s-1-.5-1-1c0-.6.4-1 1-1zM61.3 1c0-.6.5-1 1-1 .6 0 1 .5 1 1 0 .6-.5 1-1 1-.6.1-1-.4-1-1zM44.7 1c0-.6.5-1 1-1 .6 0 1 .5 1 1 0 .6-.5 1-1 1-.6.1-1-.4-1-1z"/></symbol><symbol id="icon-flowers" viewBox="0 0 108 108"><path d="M94.5 81c-.6 0-1-.5-1-1 0-.6.5-1 1-1s1 .5 1 1-.4 1-1 1zm6.2 2.1c.6 0 1-.5 1-1 0-.6-.5-1-1-1s-1 .5-1 1 .5 1 1 1zm2.1 4.1c-.6 0-1 .5-1 1 0 .6.5 1 1 1s1-.5 1-1-.4-1-1-1zm-15.6 1.1c0-.6-.5-1-1-1s-1 .5-1 1c0 .6.5 1 1 1s1-.5 1-1zm13.5 7.2c.6 0 1-.5 1-1 0-.6-.5-1-1-1s-1 .5-1 1c0 .6.5 1 1 1zM89.3 82c0-.6-.5-1-1-1s-1 .5-1 1c0 .6.5 1 1 1s1-.4 1-1zm13.5 15.6h1v5.2c0 2.9-2.3 5.2-5.2 5.2H85.1v-2.1h8.3v-2.1h-3.1c-2.9 0-5.2-2.3-5.2-5.2v-5.2h1c2.9 0 5.6 1.4 7.3 3.5v-3.6c-2.4-.5-4.2-2.6-4.2-5.1 0-2.9 2.3-5.2 5.2-5.2s5.2 2.3 5.2 5.2c0 2.5-1.8 4.6-4.2 5.1v7.7c1.9-2 4.5-3.4 7.4-3.4zm-9.4 4.2c-.5-3.2-3-5.7-6.2-6.2v3c0 1.7 1.4 3.1 3.1 3.1h3.1zm1.1-10.4c1.7 0 3.1-1.4 3.1-3.1s-1.4-3.1-3.1-3.1-3.1 1.4-3.1 3.1 1.4 3.1 3.1 3.1zm7.3 8.4c-3.2.5-5.7 3-6.2 6.2h3c1.7 0 3.1-1.4 3.1-3.1v-3.1zM68.5 27c0 8-6.5 14.5-14.5 14.5S39.5 35 39.5 27 46 12.5 54 12.5 68.5 19 68.5 27zm-2 0c0-6.9-5.6-12.5-12.5-12.5S41.5 20.1 41.5 27 47.1 39.5 54 39.5 66.5 33.9 66.5 27zm11.6-1.5c-.5.9-.5 2 0 3l1.4 2.8c1.3 2.7.3 5.8-2.4 7.2L74.3 40c-.9.5-1.6 1.4-1.8 2.4l-.5 3c-.5 2.9-3.2 4.9-6.2 4.5l-3-.4c-1-.1-2.1.2-2.8.9l-2.2 2.1c-.8.8-1.8 1.2-2.8 1.4v4.9c2.1-2.9 5.5-4.9 9.3-4.9h1v6.2c0 3.4-2.8 6.2-6.2 6.2H55v9.4c3-5.6 8.8-9.4 15.6-9.4h1v9.3c0 5.2-4.2 9.3-9.3 9.3H55v12.5c3.5-7.4 11-12.5 19.7-12.5h1v11.4c0 6.3-5.1 11.4-11.4 11.4H43.7c-6.3 0-11.4-5.1-11.4-11.4V85.2h1c8.7 0 16.2 5.1 19.7 12.5V85.2h-7.3c-5.2 0-9.3-4.2-9.3-9.3v-9.3h1c6.7 0 12.6 3.8 15.6 9.4v-9.4h-4.2c-3.4 0-6.2-2.8-6.2-6.2V54h1c3.9 0 7.3 1.9 9.3 4.9V54c-1-.2-2-.7-2.8-1.4L48 50.4c-.8-.7-1.8-1.1-2.8-.9l-3 .4c-2.9.4-5.6-1.5-6.2-4.5l-.5-3c-.2-1-.8-1.9-1.8-2.4L31 38.6c-2.6-1.4-3.7-4.6-2.4-7.2l1.4-2.8c.5-.9.5-2 0-3l-1.4-2.8c-1.3-2.7-.3-5.8 2.4-7.2l2.7-1.4c.9-.5 1.6-1.4 1.8-2.4l.5-3c.5-2.9 3.2-4.9 6.2-4.5l3 .4c1 .1 2.1-.2 2.8-.9l2.2-2.1c2.1-2.1 5.5-2.1 7.6 0l2.2 2c.8.7 1.8 1.1 2.8.9l3-.4c2.9-.4 5.6 1.5 6.2 4.5l.5 3c.2 1 .8 1.9 1.8 2.4l2.7 1.4c2.6 1.4 3.7 4.6 2.4 7.2l-1.3 2.8zM52.9 64.4c-.5-4.3-3.9-7.8-8.3-8.3v4.1c0 2.3 1.9 4.2 4.2 4.2h4.1zm-7.2 18.7H51l-7.9-6 1.3-1.6 8.4 6.5c-1-7.2-7-12.8-14.4-13.3v7.2c0 3.9 3.3 7.2 7.3 7.2zm-2.1 22.8h7.3L39 96.8l1.3-1.6 12.5 9.6c-1.1-9.5-8.9-17-18.6-17.5v9.3c.1 5.1 4.3 9.3 9.4 9.3zm11.6-1.1l12.5-9.6 1.3 1.6-11.9 9.2h7.3c5.2 0 9.3-4.2 9.3-9.3v-9.3c-9.6.4-17.5 7.9-18.5 17.4zm0-22.9l8.4-6.5 1.3 1.6-7.9 6h5.3c4 0 7.3-3.3 7.3-7.3v-7.2c-7.4.6-13.4 6.2-14.4 13.4zm-.1-17.5h4.1c2.3 0 4.2-1.9 4.2-4.2v-4.1c-4.4.5-7.8 4-8.3 8.3zm21-47L73.4 16c-1.5-.8-2.5-2.2-2.8-3.9L70 9c-.3-1.8-2-3-3.8-2.8l-3 .4c-1.7.2-3.3-.3-4.6-1.5L56.4 3C55 1.8 53 1.8 51.6 3l-2.2 2.1c-1.2 1.2-2.9 1.7-4.6 1.5l-3-.4C40 6 38.3 7.2 38 9l-.5 3c-.3 1.7-1.3 3.1-2.8 3.9L32 17.3c-1.6.9-2.3 2.8-1.5 4.5l1.4 2.8c.7 1.5.7 3.3 0 4.8l-1.4 2.8c-.8 1.7-.2 3.6 1.5 4.5l2.7 1.4c1.5.8 2.5 2.2 2.8 3.9l.5 3c.3 1.8 2 3 3.8 2.8l3-.4c.3 0 .5-.1.8-.1 1.4 0 2.8.5 3.8 1.5l2.2 2.1c.5.5 1.2.8 1.9.9h.9c.7-.1 1.4-.4 1.9-.9l2.2-2.1c1.2-1.2 2.9-1.7 4.6-1.5l3 .4c1.8.3 3.5-1 3.8-2.8l.5-3c.3-1.7 1.3-3.1 2.8-3.9l2.7-1.4c1.6-.9 2.3-2.8 1.5-4.5L76 29.3c-.7-1.5-.7-3.3 0-4.8l1.4-2.8c.9-1.5.3-3.5-1.3-4.3zM15 57.1l8.3-8.3-1.5-1.5-7.3 7.3v-5.4l.4-.4 4.2-4.2-1.5-1.5-3.1 3.1v-6.8h-2.1v6.8l-3.1-3.1-1.5 1.5 4.2 4.2.4.4v5.4l-7.3-7.3-1.5 1.5 8.3 8.3.4.4v5.4L5 55.6l-1.5 1.5 8.3 8.3.4.4v4.8h-8v2.1h18.7v-2.1h-8.3v-4.8l.4-.4 8.3-8.3-1.5-1.5-7.3 7.3v-5.4l.5-.4zM71.7 26c-.6 0-1 .5-1 1 0 .6.5 1 1 1s1-.5 1-1c0-.6-.5-1-1-1zm-34.3 1c0-.6-.5-1-1-1s-1 .5-1 1c0 .6.5 1 1 1s1-.4 1-1zM54 43.6c-.6 0-1 .5-1 1 0 .6.5 1 1 1s1-.5 1-1-.4-1-1-1zm0-33.2c.6 0 1-.5 1-1 0-.6-.5-1-1-1s-1 .5-1 1 .4 1 1 1zm16.7 10.8c.5-.2.8-.8.6-1.4-.2-.5-.8-.8-1.4-.6-.5.2-.8.8-.6 1.4.3.6.9.8 1.4.6zM37.3 32.8c-.5.2-.8.8-.6 1.4.2.5.8.8 1.4.6.5-.2.8-.8.6-1.4-.3-.6-.9-.8-1.4-.6zm23.1 9.6c-.5.2-.8.8-.6 1.4.2.5.8.8 1.4.6.5-.2.8-.8.6-1.4-.3-.6-.9-.9-1.4-.6zM47.6 11.7c.5-.2.8-.8.6-1.4-.2-.5-.8-.8-1.4-.6-.5.2-.8.8-.6 1.4.3.5.9.8 1.4.6zm19.6 3.6c.4-.4.4-1.1 0-1.5-.4-.4-1.1-.4-1.5 0s-.4 1.1 0 1.5 1.1.4 1.5 0zM40.8 38.8c-.4.4-.4 1.1 0 1.5.4.4 1.1.4 1.5 0 .4-.4.4-1.1 0-1.5-.5-.5-1.1-.5-1.5 0zm24.9 0c-.4.4-.4 1.1 0 1.5.4.4 1.1.4 1.5 0 .4-.4.4-1.1 0-1.5-.4-.5-1-.5-1.5 0zM42.3 15.3c.4-.4.4-1.1 0-1.5s-1.1-.4-1.5 0c-.4.4-.4 1.1 0 1.5.4.4 1 .4 1.5 0zm18.1-3.6c.5.2 1.1 0 1.4-.6.2-.5 0-1.1-.6-1.4-.5-.2-1.1 0-1.4.6-.2.5 0 1.1.6 1.4zM47.6 42.4c-.5-.2-1.1 0-1.4.6-.2.5 0 1.1.6 1.4.5.2 1.1 0 1.4-.6.2-.6 0-1.2-.6-1.4zm23.1-9.6c-.5-.2-1.1 0-1.4.6-.2.5 0 1.1.6 1.4.5.2 1.1 0 1.4-.6.2-.6-.1-1.2-.6-1.4zM38.1 19.3c-.5-.2-1.1 0-1.4.6-.2.5 0 1.1.6 1.4.5.2 1.1 0 1.4-.6.2-.6-.1-1.2-.6-1.4zM12.5 36.4c0 .6.5 1 1 1s1-.5 1-1c0-.6-.5-1-1-1s-1 .4-1 1zM1 43.6c-.6 0-1 .5-1 1 0 .6.5 1 1 1s1-.5 1-1c.1-.5-.4-1-1-1zm5.2-3.1c0 .6.5 1 1 1s1-.5 1-1c0-.6-.5-1-1-1s-1 .4-1 1zM26 43.6c-.6 0-1 .5-1 1 0 .6.5 1 1 1s1-.5 1-1-.5-1-1-1zM1 51.9c-.6 0-1 .5-1 1 0 .6.5 1 1 1s1-.5 1-1c.1-.5-.4-1-1-1zm25 0c-.6 0-1 .5-1 1 0 .6.5 1 1 1s1-.5 1-1-.5-1-1-1zm-7.3-11.4c0 .6.5 1 1 1s1-.5 1-1c0-.6-.5-1-1-1s-1 .4-1 1zM96 57.1l8.3-8.3-1.5-1.5-7.3 7.3v-5.4l.4-.4 4.2-4.2-1.5-1.5-3.1 3.1v-6.8h-2.1v6.8l-3.1-3.1-1.5 1.5 4.2 4.2.4.4v5.4l-7.3-7.3-1.5 1.5 8.3 8.3.4.4v5.4L86 55.6l-1.5 1.5 8.3 8.3.4.4v4.8h-8.3v2.1h18.7v-2.1h-8.3v-4.8l.4-.4 8.3-8.3-1.5-1.5-7.3 7.3v-5.4l.8-.4zm-2.5-20.7c0 .6.5 1 1 1s1-.5 1-1c0-.6-.5-1-1-1s-1 .4-1 1zM82 43.6c-.6 0-1 .5-1 1 0 .6.5 1 1 1s1-.5 1-1c.1-.5-.4-1-1-1zm5.2-3.1c0 .6.5 1 1 1s1-.5 1-1c0-.6-.5-1-1-1s-1 .4-1 1zm19.8 5.2c.6 0 1-.5 1-1 0-.6-.5-1-1-1s-1 .5-1 1c-.1.5.4 1 1 1zm-25 6.2c-.6 0-1 .5-1 1 0 .6.5 1 1 1s1-.5 1-1c.1-.5-.4-1-1-1zm25 0c-.6 0-1 .5-1 1 0 .6.5 1 1 1s1-.5 1-1-.5-1-1-1zm-7.3-11.4c0 .6.5 1 1 1s1-.5 1-1c0-.6-.5-1-1-1s-1 .4-1 1zM94.5 2.1c.6 0 1-.5 1-1 0-.6-.5-1-1-1s-1 .5-1 1 .4 1 1 1zm6.2 2.1c.6 0 1-.5 1-1 0-.6-.5-1-1-1s-1 .5-1 1 .5 1 1 1zm2.1 6.2c.6 0 1-.5 1-1 0-.6-.5-1-1-1s-1 .5-1 1 .4 1 1 1zm-16.6 0c.6 0 1-.5 1-1 0-.6-.5-1-1-1s-1 .5-1 1 .4 1 1 1zm14.5 4.1c-.6 0-1 .5-1 1 0 .6.5 1 1 1s1-.5 1-1c.1-.5-.4-1-1-1zM88.3 4.2c.6 0 1-.5 1-1 0-.6-.5-1-1-1s-1 .5-1 1c-.1.5.4 1 1 1zm5.2 24.9h-8.3V27h8.3v-2.1h-3.1c-2.9 0-5.2-2.3-5.2-5.2v-5.2h1c2.9 0 5.6 1.4 7.3 3.5v-3.6c-2.4-.5-4.2-2.6-4.2-5.1 0-2.9 2.3-5.2 5.2-5.2s5.2 2.3 5.2 5.2c0 2.5-1.8 4.6-4.2 5.1v7.7c1.7-2.1 4.3-3.5 7.3-3.5h1v5.2c0 2.9-2.3 5.2-5.2 5.2h-5.1zm-.1-6.2c-.5-3.2-3-5.7-6.2-6.2v3c0 1.7 1.4 3.1 3.1 3.1h3.1zm2.2 4.1h3c1.7 0 3.1-1.4 3.1-3.1v-3c-3.1.4-5.6 2.9-6.1 6.1zm-1.1-14.5c1.7 0 3.1-1.4 3.1-3.1s-1.4-3.1-3.1-3.1-3.1 1.4-3.1 3.1 1.4 3.1 3.1 3.1zM14.5 80c0-.6-.5-1-1-1s-1 .5-1 1c0 .6.5 1 1 1s1-.5 1-1zm-7.2 3.1c.6 0 1-.5 1-1 0-.6-.5-1-1-1s-1 .5-1 1c-.1.5.4 1 1 1zm-2.1 4.1c-.6 0-1 .5-1 1 0 .6.5 1 1 1s1-.5 1-1-.4-1-1-1zm16.6 0c-.6 0-1 .5-1 1 0 .6.5 1 1 1s1-.5 1-1-.4-1-1-1zM7.3 95.5c.6 0 1-.5 1-1 0-.6-.5-1-1-1s-1 .5-1 1c-.1.6.4 1 1 1zM20.8 82c0-.6-.5-1-1-1s-1 .5-1 1c0 .6.5 1 1 1s1-.4 1-1zm1 11.5h1v5.2c0 2.9-2.3 5.2-5.2 5.2h-3.1v2.1h8.3v2.1H9.3c-2.9 0-5.2-2.3-5.2-5.2v-5.2h1c2.9 0 5.6 1.4 7.3 3.5v-7.7c-2.4-.5-4.2-2.6-4.2-5.1 0-2.9 2.3-5.2 5.2-5.2s5.2 2.3 5.2 5.2c0 2.5-1.8 4.6-4.2 5.1V97c1.9-2.2 4.5-3.5 7.4-3.5zm-9.4 12.4c-.5-3.2-3-5.7-6.2-6.2v3c0 1.7 1.4 3.1 3.1 3.1h3.1zm1.1-14.5c1.7 0 3.1-1.4 3.1-3.1s-1.4-3.1-3.1-3.1-3.1 1.4-3.1 3.1 1.4 3.1 3.1 3.1zm7.3 4.2c-3.2.5-5.7 3-6.2 6.2h3c1.7 0 3.1-1.4 3.1-3.1v-3.1zM13.5 2.1c.6 0 1-.5 1-1 0-.6-.5-1-1-1s-1 .5-1 1 .4 1 1 1zM7.3 4.2c.6 0 1-.5 1-1 0-.6-.5-1-1-1s-1 .5-1 1c-.1.5.4 1 1 1zm-2.1 6.2c.6 0 1-.5 1-1 0-.6-.5-1-1-1s-1 .5-1 1 .4 1 1 1zm16.6 0c.6 0 1-.5 1-1 0-.6-.5-1-1-1s-1 .5-1 1 .4 1 1 1zM7.3 14.5c-.6 0-1 .5-1 1 0 .6.5 1 1 1s1-.5 1-1-.5-1-1-1zM19.7 4.2c.6 0 1-.5 1-1 0-.6-.5-1-1-1s-1 .5-1 1 .5 1 1 1zM4.2 23.9v-5.2h1c2.9 0 5.6 1.4 7.3 3.5v-7.7c-2.4-.5-4.2-2.6-4.2-5.1 0-2.9 2.3-5.2 5.2-5.2s5.2 2.3 5.2 5.2c0 2.5-1.8 4.6-4.2 5.1V18c1.7-2.1 4.3-3.5 7.3-3.5h1v5.2c0 2.9-2.3 5.2-5.2 5.2h-3.1V27h8.3v2.1H9.3c-2.8 0-5.1-2.3-5.1-5.2zm10.4-1h3c1.7 0 3.1-1.4 3.1-3.1v-3c-3.1.4-5.6 2.9-6.1 6.1zm-1.1-10.4c1.7 0 3.1-1.4 3.1-3.1s-1.4-3.1-3.1-3.1-3.1 1.4-3.1 3.1 1.4 3.1 3.1 3.1zM6.2 23.9c0 1.7 1.4 3.1 3.1 3.1h3c-.5-3.2-3-5.7-6.2-6.2v3.1z"/></symbol><symbol id="icon-instagram" viewBox="0 0 10 10"><path d="M8.6 10H1.3C.6 10 0 9.4 0 8.7V1.3C0 .6.6 0 1.3 0h7.5c.6 0 1.2.6 1.2 1.3v7.5c0 .6-.6 1.2-1.3 1.2M5 3.1C4 3.1 3.1 4 3.1 5 3.1 6 4 6.9 5 6.9 6 6.9 6.9 6 6.9 5 6.9 4 6 3.1 5 3.1m3.6-1.5c0-.2 0-.2-.2-.2H7.2c-.2 0-.1 0-.1.2v1.1c0 .3-.1.2.1.2h1.1c.2 0 .2.1.2-.1V1.6zm0 2.7h-.7c.1 0 .1.5.1.7 0 1.7-1.3 3-3 3S2 6.7 2 5c0-.3 0-.7.1-.7h-.7v4.1c0 .2 0 .2.2.2h6.7c.2 0 .2 0 .2-.2V4.3z"/></symbol><symbol id="icon-land" viewBox="0 0 108 108"><path d="M54 0C24.2 0 0 24.2 0 54s24.2 54 54 54 54-24.2 54-54S83.8 0 54 0zm0 105.9C25.4 105.9 2.1 82.6 2.1 54S25.4 2.1 54 2.1c28.6 0 51.9 23.3 51.9 51.9S82.6 105.9 54 105.9zm0-93.4c-22.9 0-41.5 18.6-41.5 41.5S31.1 95.5 54 95.5 95.5 76.9 95.5 54 76.9 12.5 54 12.5zm0 81c-21.8 0-39.5-17.7-39.5-39.5S32.2 14.5 54 14.5 93.5 32.2 93.5 54 75.8 93.5 54 93.5zm0-68.6c-16 0-29.1 13-29.1 29.1S38 83.1 54 83.1s29.1-13 29.1-29.1S70 24.9 54 24.9zM54 81c-14.9 0-27-12.1-27-27s12.1-27 27-27 27 12.1 27 27-12.1 27-27 27zm0-43.6c-9.2 0-16.6 7.5-16.6 16.6S44.8 70.6 54 70.6c9.2 0 16.6-7.5 16.6-16.6S63.2 37.4 54 37.4zm0 31.1c-8 0-14.5-6.5-14.5-14.5S46 39.5 54 39.5 68.5 46 68.5 54 62 68.5 54 68.5zm47.8-63.3c0-.6.5-1 1-1s1 .5 1 1c0 .6-.5 1-1 1s-1-.4-1-1zm-6.3 0c0-.6.5-1 1-1 .6 0 1 .5 1 1 0 .6-.5 1-1 1s-1-.4-1-1zm6.3 6.2c0-.6.5-1 1-1s1 .5 1 1c0 .6-.5 1-1 1s-1-.4-1-1zM4.2 5.2c0-.6.5-1 1-1s1 .5 1 1c0 .6-.5 1-1 1s-1-.4-1-1zM8.3 54c0 .6-.5 1-1 1s-1-.5-1-1c0-.6.5-1 1-1s1 .4 1 1zm22.2 23.5c.4.4.4 1.1 0 1.5-.4.4-1.1.4-1.5 0-.4-.4-.4-1.1 0-1.5.4-.4 1.1-.4 1.5 0zm47-47c-.4-.4-.4-1.1 0-1.5.4-.4 1.1-.4 1.5 0 .4.4.4 1.1 0 1.5-.4.4-1.1.4-1.5 0zm-48.5 0c-.4-.4-.4-1.1 0-1.5.4-.4 1.1-.4 1.5 0 .4.4.4 1.1 0 1.5-.4.4-1.1.4-1.5 0zm50 47c.4.4.4 1.1 0 1.5-.4.4-1.1.4-1.5 0-.4-.4-.4-1.1 0-1.5.4-.4 1.1-.4 1.5 0zM101.8 54c0 .6-.5 1-1 1-.6 0-1-.5-1-1 0-.6.5-1 1-1s1 .4 1 1zm-40.5 0c0 .6-.5 1-1 1-.6 0-1-.5-1-1 0-.6.5-1 1-1s1 .4 1 1zM55 54c0 .6-.5 1-1 1s-1-.5-1-1c0-.6.5-1 1-1s1 .4 1 1zm-6.2 0c0 .6-.5 1-1 1-.6 0-1-.5-1-1 0-.6.5-1 1-1s1 .4 1 1zm6.2-6.2c0 .6-.5 1-1 1s-1-.5-1-1c0-.6.5-1 1-1s1 .4 1 1zm0 12.4c0 .6-.5 1-1 1s-1-.5-1-1c0-.6.5-1 1-1s1 .5 1 1zM53 7.3c0-.6.5-1 1-1s1 .5 1 1c0 .6-.5 1-1 1s-1-.5-1-1zm2 93.4c0 .6-.5 1-1 1s-1-.5-1-1c0-.6.5-1 1-1s1 .5 1 1zm-34.8-79c-.4-.4-.4-1.1 0-1.5.4-.4 1.1-.4 1.5 0 .4.4.4 1.1 0 1.5-.4.4-1.1.4-1.5 0zm67.6 64.6c.4.4.4 1.1 0 1.5-.4.4-1.1.4-1.5 0-.4-.4-.4-1.1 0-1.5.4-.4 1.1-.4 1.5 0zm-1.5-64.6c-.4-.4-.4-1.1 0-1.5.4-.4 1.1-.4 1.5 0 .4.4.4 1.1 0 1.5-.4.4-1.1.4-1.5 0zM21.7 86.3c.4.4.4 1.1 0 1.5s-1.1.4-1.5 0-.4-1.1 0-1.5c.4-.4 1.1-.4 1.5 0zM10.4 5.2c0-.6.5-1 1-1 .6 0 1 .5 1 1 0 .6-.5 1-1 1-.6 0-1-.4-1-1zm-6.2 6.2c0-.6.5-1 1-1s1 .5 1 1c0 .6-.5 1-1 1s-1-.4-1-1zm99.6 91.4c0 .6-.5 1-1 1s-1-.5-1-1c0-.6.5-1 1-1s1 .4 1 1zm-6.2 0c0 .6-.5 1-1 1-.6 0-1-.5-1-1 0-.6.5-1 1-1 .6 0 1 .4 1 1zm6.2-6.2c0 .6-.5 1-1 1s-1-.5-1-1c0-.6.5-1 1-1s1 .4 1 1zm-97.6 6.2c0 .6-.5 1-1 1s-1-.5-1-1c0-.6.5-1 1-1s1 .4 1 1zm6.3 0c0 .6-.5 1-1 1-.6 0-1-.5-1-1 0-.6.5-1 1-1s1 .4 1 1zm-6.3-6.2c0 .6-.5 1-1 1s-1-.5-1-1c0-.6.5-1 1-1s1 .4 1 1z"/></symbol><symbol id="icon-logo" viewBox="0 0 195.4 70"><path d="M91.5 20.9c1.8 0 2.2-1.6 2.2-2.2 0-.8-.4-2.2-2.3-2.2h-2.9v4.4h3zm-3 8.1c0 .2-.2.4-.4.4h-2.3c-.2 0-.4-.2-.4-.4V14.1c0-.2.2-.4.4-.4h5.5c4.3 0 5.6 3 5.6 5 0 3.1-2.7 5.1-5.3 5.1h-3.1V29z"/><path d="M95.2 44.8c-.2.2-.4.2-.6 0-1-.9-2.4-1.7-3.7-1.7-4 0-4.6 3.9-4.6 5.1s.6 5 4.6 5.1c1.4 0 2.8-.8 3.9-1.6.2-.2.5-.1.6.1l1.3 1.6c.2.2.1.5-.1.6-1.5 1.5-3.3 2.3-5.7 2.3-5.9 0-7.7-4.8-7.7-8.1 0-3.2 1.8-8.1 7.7-8.1 2.5 0 4.3 1 5.8 2.6.2.2.2.5 0 .6l-1.5 1.5z"/><path d="M104.8 26.5h6.2c.2 0 .4.2.4.4v2c0 .2-.2.4-.4.4h-9c-.2 0-.4-.2-.4-.4V14.1c0-.2.2-.4.4-.4h2.3c.2 0 .4.2.4.4v12.4z"/><path d="M134.7 29.4c-.2 0-.4-.2-.4-.4V13.7c0-.1.1-.3.3-.3.2 0 .4.1.5.2l8.9 8.6v-8.1c0-.2.2-.4.4-.4h2.3c.2 0 .4.2.4.4v15.2c0 .1-.1.2-.3.2-.2 0-.3-.1-.4-.2l-9-8.8V29c0 .2-.2.4-.4.4h-2.3z"/><path d="M156 16.5h-3.8c-.2 0-.4-.2-.4-.4v-2c0-.2.2-.4.4-.4H163c.2 0 .4.2.4.4v2c0 .2-.2.4-.4.4h-3.9V29c0 .2-.2.4-.4.4h-2.3c-.2 0-.4-.2-.4-.4V16.5z"/><path d="M120.9 24.6h3.8l-1.9-4.5-1.9 4.5zm4.9 2.5h-5.9l-.8 1.9c-.1.2-.3.4-.6.4H116c-.2 0-.4-.2-.3-.4l6.8-15.2c.1-.1.2-.2.3-.2.1 0 .3.1.4.2L130 29c.1.2-.1.4-.2.4h-2.5c-.3 0-.5-.2-.6-.4l-.9-1.9z"/><path d="M104.9 55.7c0 .2-.2.4-.4.4h-2.3c-.2 0-.4-.2-.4-.4V40.8c0-.2.2-.4.4-.4h2.3c.2 0 .4.2.4.4v6.1h6.5v-6.1c0-.2.2-.4.4-.4h2.3c.2 0 .4.2.4.4v14.9c0 .2-.2.4-.4.4h-2.3c-.2 0-.4-.2-.4-.4v-5.9h-6.5v5.9z"/><path d="M123.7 55.7c0 .2-.2.4-.4.4H121c-.2 0-.4-.2-.4-.4V40.8c0-.2.2-.4.4-.4h2.3c.2 0 .4.2.4.4v14.9z"/><path d="M140.7 44.8c-.2.2-.4.2-.6 0-1-.9-2.4-1.7-3.7-1.7-4 0-4.6 3.9-4.6 5.1s.6 5 4.6 5.1c1.4 0 2.8-.8 3.9-1.6.2-.2.5-.1.6.1l1.3 1.6c.2.2.1.5-.1.6-1.5 1.5-3.3 2.3-5.7 2.3-5.9 0-7.7-4.8-7.7-8.1 0-3.2 1.8-8.1 7.7-8.1 2.5 0 4.3 1 5.8 2.6.2.2.2.5 0 .6l-1.5 1.5z"/><path d="M170 50.7c-.2 0-.4-.2-.4-.4v-2c0-.2.2-.4.4-.4h5.4c.2 0 .4.2.4.4v5.2c0 .3-.1.5-.3.7-1.4 1.2-3.1 2-5.4 2-6 0-7.7-4.7-7.7-8.1 0-3.2 1.8-8 7.7-8 2.4 0 4 .8 5.5 2.3.2.2.2.5 0 .6l-1.5 1.5c-.2.2-.4.2-.6 0-.9-.8-2.2-1.5-3.4-1.5-4 0-4.6 3.8-4.6 5.1 0 1.3.6 5.1 4.6 5.1.9 0 1.9-.3 2.6-.7v-1.9H170z"/><path d="M192.2 48.2c0-1.3-.6-5.1-4.5-5.1-4 0-4.6 3.8-4.6 5.1 0 1.3.6 5.1 4.6 5.1 3.9.1 4.5-3.8 4.5-5.1m3.2 0c0 3.3-1.8 8.1-7.7 8.1-6 0-7.7-4.7-7.7-8.1 0-3.2 1.8-8.1 7.7-8.1 5.9.1 7.7 4.9 7.7 8.1"/><path d="M150.8 51.3h3.8l-1.9-4.5-1.9 4.5zm4.9 2.5h-5.9l-.8 1.9c-.1.2-.3.4-.6.4h-2.5c-.2 0-.3-.2-.3-.4l6.8-15.2c.1-.1.2-.2.4-.2.1 0 .3.1.4.2l6.8 15.2c.1.2-.1.4-.2.4h-2.5c-.3 0-.5-.2-.6-.4l-1-1.9z"/><path d="M35 2.9C17.3 2.9 2.9 17.3 2.9 35S17.3 67.1 35 67.1 67.1 52.7 67.1 35 52.7 2.9 35 2.9M35 70C15.7 70 0 54.3 0 35S15.7 0 35 0s35 15.7 35 35-15.7 35-35 35"/><path d="M19.3 37.5c.3.1.4.4.3.7l-.8 1.6c-.2.3-.5.4-.9.4-1.8-.3-5.2.7-4.2 2.6 1.2 2.3 8.4-.4 8.4-7.8 0-7.5-7.3-10.1-8.4-7.8-1 1.9 2.4 2.9 4.2 2.6.3-.1.7.1.9.4.4.5.7 1.1.8 1.6.1.3 0 .6-.3.7-2.4.8-5.6.1-7.4-1.6-1.4-1.3-1.7-3.1-.9-4.9.9-2 3.1-3 5.8-2.4 2.1.4 4.1 1.7 5.6 3.5 1.8 2.1 2.7 4.8 2.7 7.9s-.9 5.8-2.7 7.9c-1.5 1.8-3.6 3.1-5.6 3.5-2.7.5-5-.4-5.8-2.4-.8-1.8-.4-3.6.9-4.9 1.8-1.7 5-2.4 7.4-1.6"/><path d="M50.7 37.5c-.3.1-.4.4-.3.7l.8 1.6c.2.3.5.4.9.4 1.8-.3 5.2.7 4.2 2.6-1.2 2.3-8.4-.4-8.4-7.8 0-7.5 7.3-10.1 8.4-7.8 1 1.9-2.4 2.9-4.2 2.6-.3-.1-.7.1-.9.4-.4.5-.7 1.1-.8 1.6-.1.3 0 .6.3.7 2.4.8 5.6.1 7.4-1.6 1.4-1.3 1.7-3.1.9-4.9-.9-2-3.1-3-5.8-2.4-2.1.4-4.1 1.7-5.6 3.5-1.8 2.1-2.7 4.8-2.7 7.9s.9 5.8 2.7 7.9c1.5 1.8 3.6 3.1 5.6 3.5 2.7.5 4.9-.4 5.8-2.4.8-1.8.4-3.6-.9-4.9-1.8-1.7-5-2.4-7.4-1.6"/><path d="M32.5 19.4c-.1.3-.4.4-.7.3l-1.6-.8c-.3-.2-.4-.5-.4-.9.3-1.8-.7-5.2-2.6-4.2-2.3 1.2.4 8.4 7.8 8.4 7.5 0 10.1-7.3 7.8-8.4-1.9-1-2.9 2.4-2.6 4.2.1.3-.1.7-.4.9-.5.4-1.1.7-1.6.8-.3.1-.6 0-.7-.3-.8-2.4-.1-5.6 1.6-7.4 1.3-1.4 3.1-1.7 4.9-.9 2 .9 3 3.1 2.4 5.8-.4 2.1-1.7 4.1-3.5 5.6-2.1 1.8-4.8 2.7-7.9 2.7s-5.8-.9-7.9-2.7C25.3 21 24 19 23.6 16.9c-.5-2.7.4-4.9 2.4-5.8 1.8-.8 3.6-.4 4.9.9 1.7 1.8 2.4 5.1 1.6 7.4"/><path d="M32.5 50.6c-.1-.3-.4-.4-.7-.3l-1.6.8c-.3.2-.4.5-.4.9.3 1.8-.7 5.2-2.6 4.2-2.3-1.2.4-8.4 7.8-8.4 7.5 0 10.1 7.3 7.8 8.4-1.9 1-2.9-2.4-2.6-4.2.1-.3-.1-.7-.4-.9-.5-.4-1.1-.7-1.6-.8-.3-.1-.6 0-.7.3-.8 2.4-.1 5.6 1.6 7.4 1.3 1.4 3.1 1.7 4.9.9 2-.9 3-3.1 2.4-5.8-.4-2.1-1.7-4.1-3.5-5.6-2.1-1.8-4.8-2.7-7.9-2.7s-5.8.9-7.9 2.7C25.3 49 24 51 23.6 53.1c-.5 2.7.4 4.9 2.4 5.8 1.8.8 3.6.4 4.9-.9 1.7-1.8 2.4-5.1 1.6-7.4"/><path d="M42.7 25.2c.5.8 1.5 1.7 2.3 2.3.1.1.2.3.1.5-.3.6-.6 1.1-.9 1.7-.1.2-.4.3-.6.2-1.1-.5-2.9-2.3-3.3-3.2-.1-.2-.1-.5.2-.6.6-.2 1.1-.5 1.7-.9.1-.2.4-.2.5 0"/><path d="M27.3 25.2c-.5.8-1.5 1.7-2.3 2.3-.1.1-.2.3-.1.5.3.6.6 1.1.9 1.7.1.2.4.3.6.2 1.1-.5 2.9-2.3 3.3-3.2.1-.2.1-.5-.2-.6-.6-.2-1.1-.5-1.7-.9-.2-.2-.4-.2-.5 0"/><path d="M42.7 44.7c.5-.8 1.5-1.7 2.3-2.3.1-.1.2-.3.1-.5-.3-.6-.6-1.1-.9-1.7-.1-.2-.4-.3-.6-.2-1.1.5-2.9 2.3-3.3 3.2-.1.2-.1.5.2.6.6.2 1.1.5 1.7.9.1.2.4.2.5 0"/><path d="M27.3 44.7c-.5-.8-1.5-1.7-2.3-2.3-.1-.1-.2-.3-.1-.5.3-.6.6-1.1.9-1.7.1-.2.4-.3.6-.2 1.1.5 2.9 2.3 3.3 3.2.1.2.1.5-.2.6-.6.2-1.1.5-1.7.9-.2.2-.4.2-.5 0"/></symbol><symbol id="icon-market" viewBox="0 0 108 108"><path d="M20.8 68.6h2.1V79h-2.1V68.6zm1-4.2c-.6 0-1 .5-1 1 0 .6.5 1 1 1s1-.5 1-1-.4-1-1-1zm-4.1 2.1c-.6 0-1 .5-1 1 0 .6.5 1 1 1s1-.5 1-1-.5-1-1-1zm0 4.2c-.6 0-1 .5-1 1 0 .6.5 1 1 1s1-.5 1-1c0-.6-.5-1-1-1zm8.3-4.2c-.6 0-1 .5-1 1 0 .6.5 1 1 1s1-.5 1-1-.5-1-1-1zm0 4.2c-.6 0-1 .5-1 1 0 .6.5 1 1 1s1-.5 1-1c0-.6-.5-1-1-1zm9.3 8.3h2.1V68.6h-2.1V79zm1-14.6c-.6 0-1 .5-1 1 0 .6.5 1 1 1s1-.5 1-1c.1-.5-.4-1-1-1zm-4.1 2.1c-.6 0-1 .5-1 1 0 .6.5 1 1 1 .6 0 1-.5 1-1s-.4-1-1-1zm0 4.2c-.6 0-1 .5-1 1 0 .6.5 1 1 1 .6 0 1-.5 1-1 0-.6-.4-1-1-1zm8.3-4.2c-.6 0-1 .5-1 1 0 .6.5 1 1 1s1-.5 1-1-.4-1-1-1zm0 4.2c-.6 0-1 .5-1 1 0 .6.5 1 1 1s1-.5 1-1c0-.6-.4-1-1-1zm9.3 8.3h2.1V68.6h-2.1V79zm1.1-14.6c-.6 0-1 .5-1 1 0 .6.5 1 1 1s1-.5 1-1-.4-1-1-1zm-4.2 2.1c-.6 0-1 .5-1 1 0 .6.5 1 1 1s1-.5 1-1c.1-.5-.4-1-1-1zm0 4.2c-.6 0-1 .5-1 1 0 .6.5 1 1 1s1-.5 1-1c.1-.6-.4-1-1-1zm8.3-4.2c-.6 0-1 .5-1 1 0 .6.5 1 1 1s1-.5 1-1c.1-.5-.4-1-1-1zm0 4.2c-.6 0-1 .5-1 1 0 .6.5 1 1 1s1-.5 1-1c.1-.6-.4-1-1-1zM36.8 44.6c-.8.8-2.2.8-2.9 0-.4-.4-1.1-.4-1.5 0-.4.4-.4 1.1 0 1.5.8.8 1.8 1.2 2.9 1.2 1.1 0 2.2-.4 2.9-1.2.4-.4.4-1.1 0-1.5-.4-.4-1-.4-1.4 0zm5.8-3v2.1c0 4-3.3 7.3-7.3 7.3S28 47.7 28 43.7v-2.1c0-4 3.3-7.3 7.3-7.3s7.3 3.3 7.3 7.3zm-2.1 0c0-2.9-2.3-5.2-5.2-5.2-2.9 0-5.2 2.3-5.2 5.2v2.1c0 2.9 2.3 5.2 5.2 5.2 2.9 0 5.2-2.3 5.2-5.2v-2.1zm27 0c0-.6-.5-1-1-1s-1 .5-1 1c0 .6.5 1 1 1s1-.4 1-1zM108 60.3v47.8H0V60.3h6.2V32c-1.9-1.3-3.1-3.5-3.1-6v-1h-.2L8.5-.1h91l5.7 25.1h-.3v1c0 2.5-1.2 4.6-3.1 6v28.3h6.2zM95.5 33c-1.8-.5-3.2-1.7-4.2-3.2-1.3 2.1-3.6 3.5-6.2 3.5s-5-1.4-6.2-3.5c-1.3 2.1-3.6 3.5-6.2 3.5s-5-1.4-6.2-3.5c-1.3 2.1-3.6 3.5-6.2 3.5s-5-1.4-6.2-3.5c-1.3 2.1-3.6 3.5-6.2 3.5s-5-1.4-6.2-3.5c-1.3 2.1-3.6 3.5-6.2 3.5s-5-1.4-6.2-3.5c-1.3 2.1-3.6 3.5-6.2 3.5s-5-1.4-6.2-3.5c-.9 1.5-2.4 2.7-4.2 3.2v27.3h11.7l1.1-4.4c.6-2.3 2.6-3.9 5-3.9h10.1c2.4 0 4.5 1.6 5 3.9l1.1 4.4h16.1c.7-1 1.5-2 2.4-2.9-3-3-4.7-7-4.7-11.2 0-4.6 2-9 5.6-12l.7-.6.7.6c3.5 3 5.6 7.4 5.6 12 0 4.2-1.7 8.3-4.7 11.2.9.9 1.7 1.9 2.4 2.9H75c.7-1 1.5-2 2.4-2.9-3-3-4.7-7-4.7-11.2 0-4.6 2-9 5.6-12l.7-.6.7.6c3.5 3 5.6 7.4 5.6 12 0 4.2-1.7 8.3-4.7 11.2.9.9 1.7 1.9 2.4 2.9h12.7V33zM80 63.4v3.1h3c-.3-2.7-1.9-5.6-4.1-7.7-2.2 2.2-3.8 5.1-4.1 7.7h3v-3.1H80zm-12.5 0v3.1h3c-.3-2.7-1.9-5.6-4.1-7.7-2.2 2.2-3.8 5.1-4.1 7.7h3v-3.1h2.2zm-5.2-16.3c.2 3.3 1.7 6.5 4.1 8.8 2.4-2.3 3.9-5.5 4.1-8.8-1.3.5-2.7.7-4.1.7-1.3 0-2.7-.2-4.1-.7zm4.2-1.3c1.4 0 2.8-.3 4.1-.8-.3-3.3-1.7-6.3-4.1-8.6-2.4 2.3-3.8 5.3-4.1 8.6 1.3.5 2.6.8 4.1.8zm8.3 1.3c.2 3.3 1.7 6.5 4.1 8.8 2.4-2.3 3.9-5.5 4.1-8.8-1.3.5-2.7.7-4.1.7-1.4 0-2.8-.2-4.1-.7zm4.1-1.3c1.4 0 2.8-.3 4.1-.8-.3-3.3-1.7-6.3-4.1-8.6-2.4 2.3-3.8 5.3-4.1 8.6 1.3.5 2.7.8 4.1.8zm-7.4 16.6c.8 1.7 1.2 3.5 1.2 5.2 0-1.7.4-3.5 1.2-5.2h-2.4zm-28.1-6c-.3-1.4-1.6-2.4-3-2.4H30.2c-1.4 0-2.7 1-3 2.4l-1 3.9h18.1l-.9-3.9zM17.7 26c0 2.9 2.3 5.2 5.2 5.2S28 28.9 28 26v-1H17.7v1zm72.6-1H80v1c0 2.9 2.3 5.2 5.2 5.2s5.2-2.3 5.2-5.2v-1zm-12.4 0H67.5v1c0 2.9 2.3 5.2 5.2 5.2s5.2-2.3 5.2-5.2v-1zm-12.5 0H55v1c0 2.9 2.3 5.2 5.2 5.2 2.9 0 5.2-2.3 5.2-5.2v-1zM53 25H42.6v1c0 2.9 2.3 5.2 5.2 5.2 2.9 0 5.2-2.3 5.2-5.2v-1zm-12.5 0H30.1v1c0 2.9 2.3 5.2 5.2 5.2 2.9 0 5.2-2.3 5.2-5.2v-1zm57.1 48.8c0 .6.5 1 1 1s1-.5 1-1V33c-.7.2-1.4.3-2.1.3v40.5zm5.2-48.8H92.4v1c0 2.9 2.3 5.2 5.2 5.2s5.2-2.3 5.2-5.2v-1zM5.5 22.9h97.1L97.8 2H10.2L5.5 22.9zm4.9 8.3c2.9 0 5.2-2.3 5.2-5.2v-1H5.2v1c0 2.9 2.3 5.2 5.2 5.2zM8.3 33v40.8c0 .6.5 1 1 1 .6 0 1-.5 1-1V33.3c-.6 0-1.3-.1-2-.3zm71.1 50.1H55v1c0 6.7 5.5 12.2 12.2 12.2s12.2-5.5 12.2-12.2v-1zm-26.4 0H28.6v1c0 6.7 5.5 12.2 12.2 12.2S53 90.9 53 84.2v-1.1zm-26.5 0H2.1v1c0 6.7 5.5 12.2 12.2 12.2s12.2-5.5 12.2-12.2v-1zm79.4 8.5c-2.5 4.1-7 6.9-12.2 6.9-6 0-11.1-3.7-13.2-8.9-2.1 5.2-7.3 8.9-13.2 8.9s-11.2-3.7-13.3-9c-2.1 5.2-7.3 8.9-13.2 8.9s-11.1-3.7-13.2-8.9c-2.1 5.2-7.3 8.9-13.2 8.9-5.2 0-9.7-2.8-12.2-6.9V106H106V91.6zm0-8.5H81.5v1c0 6.7 5.5 12.2 12.2 12.2s12.2-5.5 12.2-12.2v-1zm0-2V62.4h-4.2v11.4c0 1.7-1.4 3.1-3.1 3.1s-3.1-1.4-3.1-3.1V62.4H83.9c.8 1.7 1.2 3.5 1.2 5.2v1H60.2v-1c0-1.7.4-3.5 1.2-5.2h-49v11.4c0 1.7-1.4 3.1-3.1 3.1s-3.1-1.4-3.1-3.1V62.4H2.1v18.7h103.8zM80 41.6c0-.6-.5-1-1-1-.6 0-1 .5-1 1 0 .6.5 1 1 1s1-.4 1-1zm-60.3 59.2c-.6 0-1 .5-1 1 0 .6.5 1 1 1s1-.5 1-1c.1-.5-.4-1-1-1zm6.3 0c-.6 0-1 .5-1 1 0 .6.5 1 1 1s1-.5 1-1-.5-1-1-1zm6.2 0c-.6 0-1 .5-1 1 0 .6.5 1 1 1 .6 0 1-.5 1-1s-.4-1-1-1zm6.2 0c-.6 0-1 .5-1 1 0 .6.5 1 1 1s1-.5 1-1c.1-.5-.4-1-1-1zm6.3 0c-.6 0-1 .5-1 1 0 .6.5 1 1 1s1-.5 1-1-.5-1-1-1zm6.2 0c-.6 0-1 .5-1 1 0 .6.5 1 1 1s1-.5 1-1-.4-1-1-1zm6.2 0c-.6 0-1 .5-1 1 0 .6.5 1 1 1s1-.5 1-1c.1-.5-.4-1-1-1zm6.2 0c-.6 0-1 .5-1 1 0 .6.5 1 1 1s1-.5 1-1c.1-.5-.4-1-1-1zm6.3 0c-.6 0-1 .5-1 1 0 .6.5 1 1 1s1-.5 1-1-.4-1-1-1zm6.2 0c-.6 0-1 .5-1 1 0 .6.5 1 1 1s1-.5 1-1-.4-1-1-1zm6.2 0c-.6 0-1 .5-1 1 0 .6.5 1 1 1s1-.5 1-1c.1-.5-.4-1-1-1zm6.3 0c-.6 0-1 .5-1 1 0 .6.5 1 1 1s1-.5 1-1-.5-1-1-1zm6.2 0c-.6 0-1 .5-1 1 0 .6.5 1 1 1s1-.5 1-1-.4-1-1-1zm6.2 0c-.6 0-1 .5-1 1 0 .6.5 1 1 1s1-.5 1-1c.1-.5-.4-1-1-1zm-87.2 0c-.6 0-1 .5-1 1 0 .6.5 1 1 1s1-.5 1-1-.4-1-1-1zm-6.2 0c-.6 0-1 .5-1 1 0 .6.5 1 1 1s1-.5 1-1-.5-1-1-1z"/></symbol><symbol id="icon-plants" viewBox="0 0 108 108"><path d="M13.5 81c.6 0 1 .5 1 1 0 .6-.5 1-1 1s-1-.5-1-1 .4-1 1-1zm-7.3-7.3c0-.6-.5-1-1-1s-1 .5-1 1c0 .6.5 1 1 1s1-.4 1-1zm8.3-8.3c0-.6-.5-1-1-1s-1 .5-1 1c0 .6.5 1 1 1s1-.4 1-1zm80 17.7c.6 0 1-.5 1-1 0-.6-.5-1-1-1s-1 .5-1 1 .4 1 1 1zm7.3-9.4c0 .6.5 1 1 1s1-.5 1-1c0-.6-.5-1-1-1s-1 .5-1 1zm-6.3-8.3c0-.6-.5-1-1-1s-1 .5-1 1c0 .6.5 1 1 1s1-.4 1-1zM44.7 88.3c-.6 0-1 .5-1 1 0 .6.5 1 1 1s1-.5 1-1c0-.6-.5-1-1-1zm-27 0c-.6 0-1 .5-1 1 0 .6.5 1 1 1s1-.5 1-1c0-.6-.5-1-1-1zM40 79c-.4.4-.4 1.1 0 1.5.4.4 1.1.4 1.5 0 .4-.4.4-1.1 0-1.5-.5-.4-1.1-.4-1.5 0zM20.9 98.1c-.4.4-.4 1.1 0 1.5.4.4 1.1.4 1.5 0 .4-.4.4-1.1 0-1.5-.5-.4-1.1-.4-1.5 0zm1.4-17.6c.4-.4.4-1.1 0-1.5-.4-.4-1.1-.4-1.5 0-.4.4-.4 1.1 0 1.5.5.4 1.1.4 1.5 0zM40 98.1c-.4.4-.4 1.1 0 1.5.4.4 1.1.4 1.5 0 .4-.4.4-1.1 0-1.5-.5-.4-1.1-.4-1.5 0zm-8.8 3.7c-.6 0-1 .5-1 1 0 .6.5 1 1 1s1-.5 1-1c0-.6-.5-1-1-1zM27 88.3c-.6 0-1 .5-1 1 0 .6.5 1 1 1s1-.5 1-1c0-.6-.4-1-1-1zm8.3 0c-.6 0-1 .5-1 1 0 .6.5 1 1 1s1-.5 1-1c0-.6-.4-1-1-1zm-4.1 4.1c-.6 0-1 .5-1 1 0 .6.5 1 1 1s1-.5 1-1-.5-1-1-1zm0-4.1c-.6 0-1 .5-1 1 0 .6.5 1 1 1s1-.5 1-1c0-.6-.5-1-1-1zm0-4.2c-.6 0-1 .5-1 1 0 .6.5 1 1 1s1-.5 1-1-.5-1-1-1zm41.5 4.2c-.6 0-1 .5-1 1 0 .6.5 1 1 1s1-.5 1-1c0-.6-.4-1-1-1zm8.3 0c-.6 0-1 .5-1 1 0 .6.5 1 1 1s1-.5 1-1c0-.6-.4-1-1-1zm-4.2-4.2c-.6 0-1 .5-1 1 0 .6.5 1 1 1s1-.5 1-1c.1-.5-.4-1-1-1zm0 4.2c-.6 0-1 .5-1 1 0 .6.5 1 1 1s1-.5 1-1c.1-.6-.4-1-1-1zm0 4.1c-.6 0-1 .5-1 1 0 .6.5 1 1 1s1-.5 1-1c.1-.5-.4-1-1-1zM5.2 31.2c.6 0 1-.5 1-1 0-.6-.5-1-1-1s-1 .5-1 1 .4 1 1 1zm7.3-9.4c0 .6.5 1 1 1s1-.5 1-1c0-.6-.5-1-1-1s-1 .4-1 1zm-4.2 27c0 .6.5 1 1 1s1-.5 1-1c0-.6-.5-1-1-1s-1 .4-1 1zm89.3 0c0 .6.5 1 1 1s1-.5 1-1c0-.6-.5-1-1-1s-1 .4-1 1zM8.3 100.7c0 .6.5 1 1 1s1-.5 1-1c0-.6-.5-1-1-1s-1 .5-1 1zm89.3 0c0 .6.5 1 1 1s1-.5 1-1c0-.6-.5-1-1-1s-1 .5-1 1zM28 38.4c0-.6-.5-1-1-1s-1 .5-1 1c0 .6.5 1 1 1s1-.4 1-1zM28 55c0-.6-.5-1-1-1s-1 .5-1 1c0 .6.5 1 1 1s1-.4 1-1zm6.3-8.3c0 .6.5 1 1 1s1-.5 1-1c0-.6-.5-1-1-1s-1 .5-1 1zM28 21.8c0-.6-.5-1-1-1s-1 .5-1 1c0 .6.5 1 1 1s1-.4 1-1zm6.3 8.3c0 .6.5 1 1 1s1-.5 1-1c0-.6-.5-1-1-1s-1 .4-1 1zM27 6.2c.6 0 1-.5 1-1 0-.6-.5-1-1-1s-1 .5-1 1c0 .6.4 1 1 1zm7.3 7.3c0 .6.5 1 1 1s1-.5 1-1c0-.6-.5-1-1-1s-1 .4-1 1zm-29.1 1c.6 0 1-.5 1-1 0-.6-.5-1-1-1s-1 .5-1 1c0 .6.4 1 1 1zm45.7 15.6c0-.6-.5-1-1-1s-1 .5-1 1c0 .6.5 1 1 1s1-.4 1-1zm6.2-8.3c0 .6.5 1 1 1s1-.5 1-1c0-.6-.5-1-1-1s-1 .4-1 1zm-6.2 24.9c0-.6-.5-1-1-1s-1 .5-1 1c0 .6.5 1 1 1s1-.4 1-1zm6.2-8.3c0 .6.5 1 1 1s1-.5 1-1c0-.6-.5-1-1-1s-1 .4-1 1zm-6.2 24.9c0-.6-.5-1-1-1s-1 .5-1 1c0 .6.5 1 1 1s1-.4 1-1zm6.2-8.3c0 .6.5 1 1 1s1-.5 1-1c0-.6-.5-1-1-1s-1 .5-1 1zm-7.3 26c.6 0 1-.5 1-1 0-.6-.5-1-1-1s-1 .5-1 1 .5 1 1 1zm7.3-9.3c0 .6.5 1 1 1s1-.5 1-1c0-.6-.5-1-1-1s-1 .4-1 1zm-7.3-57.2c.6 0 1-.5 1-1 0-.6-.5-1-1-1s-1 .5-1 1c0 .6.5 1 1 1zm52 15.6c0 .6.5 1 1 1s1-.5 1-1c0-.6-.5-1-1-1s-1 .4-1 1zm-6.3-8.3c0-.6-.5-1-1-1s-1 .5-1 1c0 .6.5 1 1 1s1-.4 1-1zm7.3-7.3c.6 0 1-.5 1-1 0-.6-.5-1-1-1s-1 .5-1 1c0 .6.4 1 1 1zM53 100.7c0 .6.5 1 1 1s1-.5 1-1c0-.6-.5-1-1-1s-1 .5-1 1zm-14.5-4c-2 2-4.7 3-7.4 3-1.5 0-3-.3-4.5-1-1.1-.5-2-1.2-2.9-2-2-2-3-4.6-3-7.3 0-2.8 1.1-5.4 3-7.3l6.3-6.3v-7.1h-3c-2.9 0-5.2-2.3-5.2-5.2v-5.2h1c2.9 0 5.6 1.4 7.3 3.5v-9.7H27c-2.9 0-5.2-2.3-5.2-5.2v-5.2h1c2.9 0 5.6 1.4 7.3 3.5v-9.7H27c-2.9 0-5.2-2.3-5.2-5.2v-5.2h1c2.9 0 5.6 1.4 7.3 3.5v-9.9H27c-2.9 0-5.2-2.3-5.2-5.2V8.3h1c2.9 0 5.6 1.4 7.3 3.5V8.4h.1c.5-4.8 4.5-8.4 9.3-8.4h1v5.2c0 2.9-2.3 5.2-5.2 5.2h-3.1v9.7c1.7-2.1 4.3-3.5 7.3-3.5h1v5.2c0 2.9-2.3 5.2-5.2 5.2h-3.1v9.7c1.7-2.1 4.3-3.5 7.3-3.5h1v5.2c0 2.9-2.3 5.2-5.2 5.2h-3.1v9.7c1.7-2.1 4.3-3.5 7.3-3.5h1V55c0 2.9-2.3 5.2-5.2 5.2h-3.1v15.4l6.3 6.3c.8.8 1.5 1.8 2 2.9 1.9 4 1.1 8.7-2 11.9zm-6.2-38.5h3c1.7 0 3.1-1.4 3.1-3.1v-3c-3.2.4-5.7 2.9-6.1 6.1zm0-16.7h3c1.7 0 3.1-1.4 3.1-3.1v-3c-3.2.4-5.7 3-6.1 6.1zm0-16.6h3c1.7 0 3.1-1.4 3.1-3.1v-3c-3.2.4-5.7 2.9-6.1 6.1zm0-16.6h3c1.7 0 3.1-1.4 3.1-3.1v-3c-3.2.4-5.7 2.9-6.1 6.1zM30 16.6c-.5-3.2-3-5.7-6.2-6.2v3c0 1.7 1.4 3.1 3.1 3.1H30zm0 16.6c-.5-3.2-3-5.7-6.2-6.2v3c0 1.7 1.4 3.1 3.1 3.1H30zm0 16.6c-.5-3.2-3-5.7-6.2-6.2v3c0 1.7 1.4 3.1 3.1 3.1H30zm0 16.7c-.5-3.2-3-5.7-6.2-6.2v3c0 1.7 1.4 3.1 3.1 3.1H30zm8.7 19.2c-.4-.9-.9-1.6-1.6-2.3l-5.9-5.9-5.9 5.9c-1.6 1.6-2.4 3.7-2.4 5.9s.9 4.3 2.4 5.9c.7.7 1.4 1.2 2.3 1.6 3.2 1.5 7 .9 9.5-1.6 2.4-2.5 3.1-6.3 1.6-9.5zm-21-77.4h1v5.2c0 2.9-2.3 5.2-5.2 5.2h-3.1v9.7c1.7-2.1 4.3-3.5 7.3-3.5h1v5.2c0 2.9-2.3 5.2-5.2 5.2h-3.1v4.3l4.1 4.1c.6.6 1.1 1.3 1.4 2 1.3 2.8.8 6.1-1.4 8.3-1.4 1.4-3.3 2.1-5.1 2.1-1.1 0-2.1-.2-3.1-.7-.7-.3-1.4-.8-2-1.4-2.8-2.8-2.8-7.4 0-10.3l4.1-4.1V27H5.2C2.3 27 0 24.7 0 21.8v-5.2h1c2.9 0 5.6 1.4 7.3 3.5v-3.4h.1c.5-4.8 4.5-8.4 9.3-8.4zM8.2 24.9c-.5-3.2-3-5.7-6.2-6.2v3c0 1.7 1.4 3.1 3.1 3.1h3.1zM13 45.1l-3.7-3.7-3.7 3.7c-2 2-2 5.3 0 7.3.4.4.9.8 1.4 1 2 1 4.4.5 5.9-1 1.6-1.6 2-3.9 1-5.9-.1-.5-.5-.9-.9-1.4zm-2.5-11.9h3c1.7 0 3.1-1.4 3.1-3.1v-3c-3.2.4-5.7 3-6.1 6.1zm6.1-22.7c-3.2.5-5.7 3-6.2 6.2h3c1.7 0 3.1-1.4 3.1-3.1v-3.1zm1.1 58h1v5.2c0 2.9-2.3 5.2-5.2 5.2h-3.1v12.6l4.1 4.1c2.8 2.8 2.8 7.4 0 10.3-.6.6-1.3 1.1-2 1.4-1 .5-2.1.7-3.1.7-1.9 0-3.8-.7-5.1-2.1-2.2-2.2-2.7-5.5-1.4-8.3.3-.7.8-1.4 1.4-2l4.1-4.1v-4.3H5.2C2.3 87.2 0 84.9 0 82v-5.2h1c2.9 0 5.6 1.4 7.3 3.5v-9.7H5.2c-2.9 0-5.2-2.3-5.2-5.2v-5.2h1c4.8 0 8.8 3.6 9.3 8.3h.1V72c1.7-2.1 4.3-3.5 7.3-3.5zm-9.5 0c-.5-3.2-3-5.7-6.2-6.2v3c0 1.7 1.4 3.1 3.1 3.1h3.1zm0 16.7C7.7 82 5.2 79.5 2 79v3c0 1.7 1.4 3.1 3.1 3.1h3.1zM13 97.1l-3.7-3.7-3.7 3.7c-.4.4-.8.9-1 1.4-1 2-.5 4.4 1 5.9 1.6 1.6 3.9 2 5.9 1 .5-.3 1-.6 1.4-1 2.1-2 2.1-5.3.1-7.3zm3.6-26.4c-3.2.5-5.7 3-6.2 6.2h3c1.7 0 3.1-1.4 3.1-3.1v-3.1zM108 16.6v5.2c0 2.9-2.3 5.2-5.2 5.2h-3.1v12.6l4.1 4.1c2.8 2.8 2.8 7.4 0 10.3-.6.6-1.3 1.1-2 1.4-1 .5-2.1.7-3.1.7-1.9 0-3.8-.7-5.1-2.1-2.2-2.2-2.7-5.5-1.4-8.3.3-.7.8-1.4 1.4-2l4.1-4.1v-4.3h-3.1c-2.9 0-5.2-2.3-5.2-5.2v-5.2h1c2.9 0 5.6 1.4 7.3 3.5v-9.7h-3.1c-2.9 0-5.2-2.3-5.2-5.2V8.3h1c4.8 0 8.8 3.6 9.3 8.3h.1V20c1.7-2.1 4.3-3.5 7.3-3.5h.9zm-10.5 0c-.5-3.2-3-5.7-6.2-6.2v3c0 1.7 1.4 3.1 3.1 3.1h3.1zm0 16.6c-.5-3.2-3-5.7-6.2-6.2v3c0 1.7 1.4 3.1 3.1 3.1h3.1zm4.8 11.9l-3.7-3.7-3.6 3.7c-.4.4-.8.9-1 1.4-1 2-.5 4.4 1 5.9 1.6 1.6 3.9 2 5.9 1 .5-.3 1-.6 1.4-1 2-1.9 2-5.2 0-7.3zm3.6-26.3c-3.2.5-5.7 3-6.2 6.2h3c1.7 0 3.1-1.4 3.1-3.1v-3.1zm1.1 41.4h1v5.2c0 2.9-2.3 5.2-5.2 5.2h-3.1v9.7c1.7-2.1 4.3-3.5 7.3-3.5h1V82c0 2.9-2.3 5.2-5.2 5.2h-3.1v4.3l4.1 4.1c.6.6 1.1 1.3 1.4 2 1.3 2.8.8 6.1-1.4 8.3-1.4 1.4-3.3 2.1-5.1 2.1-1.1 0-2.1-.2-3.1-.7-.7-.3-1.4-.8-2-1.4-2.8-2.8-2.8-7.4 0-10.3l4.1-4.1V78.9h-3.1c-2.9 0-5.2-2.3-5.2-5.2v-5.2h1c2.9 0 5.6 1.4 7.3 3.5v-3.4h.1c.4-4.7 4.4-8.4 9.2-8.4zm-9.5 16.6c-.5-3.2-3-5.7-6.2-6.2v3c0 1.7 1.4 3.1 3.1 3.1h3.1zm4.8 20.3l-3.7-3.7-3.6 3.7c-2 2-2 5.3 0 7.3.4.4.9.8 1.4 1 2 1 4.4.5 5.9-1 1.6-1.6 2-3.9 1-5.9-.2-.5-.6-1-1-1.4zm-2.5-11.9h3c1.7 0 3.1-1.4 3.1-3.1v-3c-3.2.4-5.7 2.9-6.1 6.1zm6.1-22.8c-3.2.5-5.7 3-6.2 6.2h3c1.7 0 3.1-1.4 3.1-3.1v-3.1zM55 85.2v6.3l4.1 4.1c.6.6 1.1 1.3 1.4 2 1.3 2.8.8 6.1-1.4 8.3-1.4 1.4-3.3 2.1-5.1 2.1-1.1 0-2.1-.2-3.1-.7-.7-.3-1.4-.8-2-1.4-2.8-2.8-2.8-7.4 0-10.3l4.1-4.1V76.9h-3.1c-2.9 0-5.2-2.3-5.2-5.2v-5.2h1c2.9 0 5.6 1.4 7.3 3.5v-9.7h-3.1c-2.9 0-5.2-2.3-5.2-5.2v-5.2h1c2.9 0 5.6 1.4 7.3 3.5v-9.7h-3.1c-2.9 0-5.2-2.3-5.2-5.2v-5.2h1c2.9 0 5.6 1.4 7.3 3.5V27h-3.1c-2.9 0-5.2-2.3-5.2-5.2v-5.2h1c2.9 0 5.6 1.4 7.3 3.5v-3.4c.5-4.7 4.5-8.3 9.3-8.3h1v5.2c0 2.9-2.3 5.2-5.2 5.2H55v9.6c1.7-2.1 4.3-3.5 7.3-3.5h1v5.2c0 2.9-2.3 5.2-5.2 5.2H55V45c1.7-2.1 4.3-3.5 7.3-3.5h1v5.2c0 2.9-2.3 5.2-5.2 5.2H55v9.7c1.7-2.1 4.3-3.5 7.3-3.5h1v5.2c0 2.9-2.3 5.2-5.2 5.2H55v9.7c1.7-2.1 4.3-3.5 7.3-3.5h1V80c0 2.9-2.3 5.2-5.2 5.2H55zm.1-2.1h3c1.7 0 3.1-1.4 3.1-3.1v-3c-3.1.4-5.6 2.9-6.1 6.1zm0-16.6h3c1.7 0 3.1-1.4 3.1-3.1v-3c-3.1.4-5.6 2.9-6.1 6.1zm0-16.7h3c1.7 0 3.1-1.4 3.1-3.1v-3c-3.1.4-5.6 3-6.1 6.1zm0-16.6h3c1.7 0 3.1-1.4 3.1-3.1v-3c-3.1.4-5.6 3-6.1 6.1zm0-16.6h3c1.7 0 3.1-1.4 3.1-3.1v-3c-3.1.4-5.6 2.9-6.1 6.1zm-2.2 8.3c-.5-3.2-3-5.7-6.2-6.2v3c0 1.7 1.4 3.1 3.1 3.1h3.1zm0 16.6c-.5-3.2-3-5.7-6.2-6.2v3c0 1.7 1.4 3.1 3.1 3.1h3.1zm0 16.7c-.5-3.2-3-5.7-6.2-6.2v3c0 1.7 1.4 3.1 3.1 3.1h3.1zm0 16.6c-.5-3.2-3-5.7-6.2-6.2v3c0 1.7 1.4 3.1 3.1 3.1h3.1zm4.8 22.3L54 93.4l-3.7 3.7c-2 2-2 5.3 0 7.3.4.4.9.8 1.4 1 2 1 4.4.5 5.9-1 1.6-1.6 2-3.9 1-5.9-.2-.5-.5-1-.9-1.4zM34.3 63.3c0 .6.5 1 1 1s1-.5 1-1c0-.6-.5-1-1-1s-1 .5-1 1zm29 25c-.6 0-1 .5-1 1 0 .6.5 1 1 1s1-.5 1-1c.1-.6-.4-1-1-1zm27 0c-.6 0-1 .5-1 1 0 .6.5 1 1 1s1-.5 1-1c.1-.6-.4-1-1-1zM68 80.5c.4-.4.4-1.1 0-1.5-.4-.4-1.1-.4-1.5 0-.4.4-.4 1.1 0 1.5.5.4 1.1.4 1.5 0zm17.7 17.6c-.4.4-.4 1.1 0 1.5.4.4 1.1.4 1.5 0 .4-.4.4-1.1 0-1.5-.5-.4-1.1-.4-1.5 0zm0-19.1c-.4.4-.4 1.1 0 1.5.4.4 1.1.4 1.5 0 .4-.4.4-1.1 0-1.5-.5-.4-1.1-.4-1.5 0zM66.6 98.1c-.4.4-.4 1.1 0 1.5.4.4 1.1.4 1.5 0 .4-.4.4-1.1 0-1.5-.5-.4-1.1-.4-1.5 0zm10.2 3.7c-.6 0-1 .5-1 1 0 .6.5 1 1 1s1-.5 1-1c.1-.6-.4-1-1-1zM80 38.4c0 .6.5 1 1 1s1-.5 1-1c0-.6-.5-1-1-1s-1 .4-1 1zM80 55c0 .6.5 1 1 1s1-.5 1-1c0-.6-.5-1-1-1s-1 .5-1 1zm-6.3-8.3c0-.6-.5-1-1-1s-1 .5-1 1c0 .6.5 1 1 1s1-.4 1-1zM80 21.8c0 .6.5 1 1 1s1-.5 1-1c0-.6-.5-1-1-1s-1 .4-1 1zm-6.3 8.3c0-.6-.5-1-1-1s-1 .5-1 1c0 .6.5 1 1 1s1-.4 1-1zM81 6.2c.6 0 1-.5 1-1 0-.6-.5-1-1-1s-1 .5-1 1c0 .6.4 1 1 1zm-7.3 7.3c0-.6-.5-1-1-1s-1 .5-1 1c0 .6.5 1 1 1s1-.4 1-1zm13.5 75.8c0 2.8-1.1 5.4-3 7.3-.8.8-1.8 1.5-2.9 2-1.4.7-2.9 1-4.5 1-2.7 0-5.4-1-7.4-3-3.1-3.1-3.9-7.9-2-11.8.5-1.1 1.2-2 2-2.9l6.3-6.3V60.2h-3.1c-2.9 0-5.2-2.3-5.2-5.2v-5.2h1c2.9 0 5.6 1.4 7.3 3.5v-9.7h-3.1c-2.9 0-5.2-2.3-5.2-5.2v-5.2h1c2.9 0 5.6 1.4 7.3 3.5V27h-3.1c-2.9 0-5.2-2.3-5.2-5.2v-5.2h1c2.9 0 5.6 1.4 7.3 3.5v-9.7h-3.1c-2.9 0-5.2-2.3-5.2-5.2V0h1c4.8 0 8.8 3.6 9.3 8.3h.1v3.4c1.7-2.1 4.3-3.5 7.3-3.5h1v5.2c0 2.9-2.3 5.2-5.2 5.2h-3.1v9.8c1.7-2.1 4.3-3.5 7.3-3.5h1v5.2c0 2.9-2.3 5.2-5.2 5.2h-3.1V45c1.7-2.1 4.3-3.5 7.3-3.5h1v5.2c0 2.9-2.3 5.2-5.2 5.2h-3.1v9.7c1.7-2.1 4.3-3.5 7.3-3.5h1v5.2c0 2.9-2.3 5.2-5.2 5.2h-3.1v7.1l6.3 6.3c2.1 2 3.1 4.6 3.1 7.4zM78 66.5h3c1.7 0 3.1-1.4 3.1-3.1v-3c-3.2.4-5.7 2.9-6.1 6.1zm0-16.7h3c1.7 0 3.1-1.4 3.1-3.1v-3c-3.2.4-5.7 3-6.1 6.1zm0-16.6h3c1.7 0 3.1-1.4 3.1-3.1v-3c-3.2.4-5.7 3-6.1 6.1zm0-16.6h3c1.7 0 3.1-1.4 3.1-3.1v-3c-3.2.4-5.7 2.9-6.1 6.1zm-2.3-8.3c-.5-3.2-3-5.7-6.2-6.2v3c0 1.7 1.4 3.1 3.1 3.1h3.1zm0 16.6c-.5-3.2-3-5.7-6.2-6.2v3c0 1.7 1.4 3.1 3.1 3.1h3.1zm0 16.6c-.5-3.2-3-5.7-6.2-6.2v3c0 1.7 1.4 3.1 3.1 3.1h3.1zm0 16.7c-.5-3.2-3-5.7-6.2-6.2v3c0 1.7 1.4 3.1 3.1 3.1h3.1zm9.5 31.1c0-2.2-.9-4.3-2.4-5.9l-5.9-5.9-5.9 5.9c-.7.7-1.2 1.4-1.6 2.3-1.5 3.2-.9 7 1.6 9.5s6.3 3.1 9.5 1.6c.9-.4 1.6-.9 2.3-1.6 1.5-1.6 2.4-3.7 2.4-5.9zm-11.5-26c0-.6-.5-1-1-1s-1 .5-1 1c0 .6.5 1 1 1s1-.4 1-1z"/></symbol><symbol id="icon-search" viewBox="0 0 21.5 20.4"><path d="M21.2 18.7L16.5 14c.9-1.4 1.5-3.1 1.5-5 0-5-4-9-9-9S0 4 0 9s4 9 9 9c2.4 0 4.6-1 6.2-2.5l4.6 4.6c.2.2.5.3.7.3s.5-.1.7-.3c.4-.4.4-1 0-1.4zM9 16c-3.9 0-7-3.1-7-7s3.1-7 7-7 7 3.1 7 7-3.1 7-7 7z"/></symbol><symbol id="icon-twitter" viewBox="0 0 14.5 10"><path d="M12.9 4.4c.8-.1 1.4-.4 1.6-.9-.3.2-1.2.4-1.7.2 0-.1-.1-.2-.1-.3C12.3 2 11 .8 9.6 1c.1 0 .2-.1.3-.1.1-.1 1-.2.9-.5-.1-.4-1.2.1-1.4.2.3-.1.7-.3.8-.6-.4.1-.8.3-1.2.5.1-.1.2-.3.2-.4C8.2.8 7.5 2.2 7 3.6c-.4-.4-.8-.7-1.1-.9-.9-.5-2-1-3.7-1.6-.1.6.2 1.3 1.2 1.8-.2 0-.6.1-.9.1.1.7.5 1.2 1.6 1.5-.5 0-.8.1-1 .4.2.5.8 1 1.8.9-1.1.4-.4 1.3.5 1.2-1.6 1.6-4 1.5-5.4.1 3.7 5 11.6 2.9 12.8-1.9.9 0 1.4-.3 1.7-.7-.5.2-1.2.1-1.6-.1"/></symbol><symbol id="icon-water" viewBox="0 0 108 108"><path d="M95 102.9c.1 0 5.9 3 13 3v2.1c-7.6 0-13.7-3.1-14-3.2-.1 0-5.9-3-13-3s-13 3-13 3c-.3.1-6.4 3.2-14 3.2s-13.7-3.1-14-3.2c-.1 0-5.9-3-13-3s-13 3-13 3c-.3.1-6.4 3.2-14 3.2v-2.1c7.1 0 13-3 13-3 .3-.1 6.4-3.2 14-3.2s13.7 3.1 14 3.2c.1 0 5.9 3 13 3s13-3 13-3c.3-.1 6.4-3.2 14-3.2s13.7 3.1 14 3.2zM81 87.2c-7.6 0-13.7 3.1-14 3.2-.1 0-5.9 3-13 3s-13-3-13-3c-.3-.1-6.4-3.2-14-3.2s-13.7 3.1-14 3.2c-.1 0-5.9 3-13 3v2.1c7.6 0 13.7-3.1 14-3.2.1 0 5.9-3 13-3s13 3 13 3c.3.1 6.4 3.2 14 3.2s13.7-3.1 14-3.2c.1 0 5.9-3 13-3s13 3 13 3c.3.1 6.4 3.2 14 3.2v-2.1c-7.1 0-13-3-13-3-.3-.1-6.4-3.2-14-3.2zm0-12.4c-7.6 0-13.7 3.1-14 3.2-.1 0-5.9 3-13 3s-13-3-13-3c-.3-.1-6.4-3.2-14-3.2S13.3 77.9 13 78c-.1 0-5.9 3-13 3v2.1c7.6 0 13.7-3.1 14-3.2.1 0 5.9-3 13-3s13 3 13 3c.3.1 6.4 3.2 14 3.2s13.7-3.1 14-3.2c.1 0 5.9-3 13-3s13 3 13 3c.3.1 6.4 3.2 14 3.2V81c-7.1 0-13-3-13-3-.3-.1-6.4-3.2-14-3.2zm0-12.5c-7.6 0-13.7 3.1-14 3.2-.1 0-5.9 3-13 3s-13-3-13-3c-.3-.1-6.4-3.2-14-3.2s-13.7 3.1-14 3.2c-.1 0-5.9 3-13 3v2.1c7.6 0 13.7-3.1 14-3.2.1 0 5.9-3 13-3s13 3 13 3c.3.1 6.4 3.2 14 3.2s13.7-3.1 14-3.2c.1 0 5.9-3 13-3s13 3 13 3c.3.1 6.4 3.2 14 3.2v-2.1c-7.1 0-13-3-13-3-.3-.1-6.4-3.2-14-3.2zm0-12.5c-7.6 0-13.7 3.1-14 3.2-.1 0-5.9 3-13 3s-13-3-13-3c-.3-.1-6.4-3.2-14-3.2S13.3 52.9 13 53c-.1 0-5.9 3-13 3v2.1c7.6 0 13.7-3.1 14-3.2.1 0 5.9-3 13-3s13 3 13 3c.3.1 6.4 3.2 14 3.2s13.7-3.1 14-3.2c.1 0 5.9-3 13-3s13 3 13 3c.3.1 6.4 3.2 14 3.2V56c-7.1 0-13-3-13-3-.3-.1-6.4-3.2-14-3.2zm0-12.4c-7.6 0-13.7 3.1-14 3.2-.1 0-5.9 3-13 3s-13-3-13-3c-.3-.1-6.4-3.2-14-3.2s-13.7 3.1-14 3.2c-.1 0-5.9 3-13 3v2.1c7.6 0 13.7-3.1 14-3.2.1 0 5.9-3 13-3s13 3 13 3c.3.1 6.4 3.2 14 3.2s13.7-3.1 14-3.2c.1 0 5.9-3 13-3s13 3 13 3c.3.1 6.4 3.2 14 3.2v-2.1c-7.1 0-13-3-13-3-.3-.1-6.4-3.2-14-3.2zm0-12.5c-7.6 0-13.7 3.1-14 3.2-.1 0-5.9 3-13 3s-13-3-13-3c-.3-.1-6.4-3.2-14-3.2S13.3 28 13 28.2c-.1 0-5.9 3-13 3v2.1c7.6 0 13.7-3.1 14-3.2.1 0 5.9-3 13-3s13 3 13 3c.3.1 6.4 3.2 14 3.2s13.7-3.1 14-3.2c.1 0 5.9-3 13-3s13 3 13 3c.3.1 6.4 3.2 14 3.2v-2.1c-7.1 0-13-3-13-3-.3-.2-6.4-3.3-14-3.3zm0-12.4c-7.6 0-13.7 3.1-14 3.2-.1 0-5.9 3-13 3s-13-3-13-3c-.3-.1-6.4-3.2-14-3.2s-13.7 3.1-14 3.2c-.1 0-5.9 3-13 3v2.1c7.6 0 13.7-3.1 14-3.2.1 0 5.9-3 13-3s13 3 13 3c.3.1 6.4 3.2 14 3.2s13.7-3.1 14-3.2c.1 0 5.9-3 13-3s13 3 13 3c.3.1 6.4 3.2 14 3.2v-2.1c-7.1 0-13-3-13-3-.3-.1-6.4-3.2-14-3.2zm14-9.3C94.7 3.1 88.6 0 81 0S67.3 3.1 67 3.2c-.1 0-5.9 3-13 3s-13-3-13-3C40.7 3.1 34.6 0 27 0S13.3 3.1 13 3.2c-.1 0-5.9 3-13 3v2.1c7.6 0 13.7-3.1 14-3.2.1 0 5.9-3 13-3s13 3 13 3c.3.1 6.4 3.2 14 3.2s13.7-3.1 14-3.2c.1 0 5.9-3 13-3s13 3 13 3c.3.1 6.4 3.2 14 3.2V6.2c-7.1 0-13-2.9-13-3zM82 44.7c0-.6-.5-1-1-1-.6 0-1 .5-1 1 0 .6.5 1 1 1 .6 0 1-.5 1-1zm0-26c0-.6-.5-1-1-1-.6 0-1 .5-1 1 0 .6.5 1 1 1 .6 0 1-.4 1-1zM28 57.1c0-.6-.5-1-1-1-.6 0-1 .5-1 1 0 .6.5 1 1 1 .6.1 1-.4 1-1zm27 6.2c0-.6-.5-1-1-1-.6 0-1 .5-1 1 0 .6.5 1 1 1 .6.1 1-.4 1-1zM28 94.5c0-.6-.5-1-1-1-.6 0-1 .5-1 1 0 .6.5 1 1 1 .6 0 1-.4 1-1zM82 82c0-.6-.5-1-1-1-.6 0-1 .5-1 1 0 .6.5 1 1 1 .6.1 1-.4 1-1zM2.1 88.3c0-.6-.5-1-1-1-.6 0-1 .5-1 1 0 .6.5 1 1 1s1-.5 1-1zm0-74.8c0-.6-.5-1-1-1-.6 0-1 .5-1 1 0 .6.5 1 1 1s1-.4 1-1zM55 26c0-.6-.5-1-1-1-.6 0-1 .5-1 1 0 .6.5 1 1 1 .6 0 1-.5 1-1zm0 12.4c0-.6-.5-1-1-1-.6 0-1 .5-1 1 0 .6.5 1 1 1 .6.1 1-.4 1-1zm-27-6.2c0-.6-.5-1-1-1-.6 0-1 .5-1 1 0 .6.5 1 1 1 .6 0 1-.4 1-1zm13.5 15.6c0-.6-.5-1-1-1-.6 0-1 .5-1 1 0 .6.5 1 1 1 .6 0 1-.5 1-1zm-27 0c0-.6-.5-1-1-1-.6 0-1 .5-1 1 0 .6.5 1 1 1 .6 0 1-.5 1-1zm55.1 24.9c0-.6-.5-1-1-1-.6 0-1 .5-1 1 0 .6.5 1 1 1s1-.4 1-1zM107 49.8c-.6 0-1 .5-1 1 0 .6.5 1 1 1 .6 0 1-.5 1-1s-.5-1-1-1zM69.6 97.6c0-.6-.5-1-1-1-.6 0-1 .5-1 1 0 .6.5 1 1 1 .5.1 1-.4 1-1zM55 100.7c0-.6-.5-1-1-1-.6 0-1 .5-1 1 0 .6.5 1 1 1 .6.1 1-.4 1-1zM28 82c0-.6-.5-1-1-1-.6 0-1 .5-1 1 0 .6.5 1 1 1 .6.1 1-.4 1-1zm13.5-71.6c0-.6-.5-1-1-1-.6 0-1 .5-1 1 0 .6.5 1 1 1 .6 0 1-.4 1-1z"/></symbol></svg>