<svg xmlns="http://www.w3.org/2000/svg"><symbol id="footer-pattern" viewBox="0 0 107.9 35.9"><style>.st0{fill:#424242;}</style><pattern id="footerPattern" width="108" height="36" patternUnits="userSpaceOnUse"><path id="community" class="st0" d="M76.1 6.6H72v-.7h4.1v.7zm27.7-.7v.7h4.1v-.7h-4.1zM76.1 17.6H72v.7h4.1v-.7zm27.7.7h4.1v-.7h-4.1v.7zM72 30.1h4.1v-.7H72v.7zm31.8 0h4.1v-.7h-4.1v.7zM102 0h-.7v4.1h.7V0zm0 8.3h-.7v3.5h-3.5v.7h3.5V16h.7v-3.5h5.9v-.7H102V8.3zm0 11.7h-.7v3.5h-3.5v.7h3.5V27h.7v-2.8h5.9v-.7H102V20zm-.7 15.9h.7v-4.1h-.7v4.1zM90.3 0h-.7v4.1h.7V0zm-.7 35.9h.7v-4.1h-.7v4.1zM78.5 0h-.7v4.1h.7V0zm-.7 15.9h.7v-3.5H82v-.7h-3.5V8.3h-.7v3.5H72v.7h5.9v3.4zm0 20h.7v-4.1h-.7v4.1zm.4-29.3c.2 0 .3-.2.3-.3 0-.2-.2-.3-.3-.3s-.4 0-.4.2.2.4.4.4zm7.9 5.8h3.5v3.5h.7v-3.5h3.5v-.7h-3.5V8.3h-.7v3.5h-3.5v.6zm-1.7-.3c0-.2-.2-.3-.3-.3s-.3.2-.3.3c0 .2.2.3.3.3s.3-.1.3-.3zm11.7 0c0-.2-.2-.3-.3-.3s-.3.2-.3.3c0 .2.2.3.3.3s.3-.1.3-.3zM82 24.2v-.7h-3.5V20h-.7v3.5H72v.7h5.9V27h.7v-2.8H82zM95.5 10h.7V6.6H99v-.7h-2.8V0h-.7v5.9H92v.7h3.5V10zm-11.8 0h.7V6.6h3.5v-.7h-3.5V0h-.7v5.9h-3.5v.7h3.5V10zm.7 8.3h3.5v-.7h-3.5v-3.5h-.7v3.5h-3.5v.7h3.5v3.5h.7v-3.5zm0 7.6h-.7v3.5h-3.5v.7h3.5V36h.7v-5.9h3.5v-.7h-3.5v-3.5zm-.7-2.1c0 .2.2.3.3.3s.3-.2.3-.3c0-.2-.2-.3-.3-.3s-.3.2-.3.3zm10-.3h-3.5V20h-.7v3.5H86v.7h3.5V27h.7v-2.8h3.5v-.7zm2.4-5.2h2.8v-.7h-2.8v-3.5h-.7v3.5H92v.7h3.5v3.5h.7v-3.5zm0 7.6h-.7v3.5H92v.7h3.5V36h.7v-5.9H99v-.7h-2.8v-3.5zm-.6-2.1c0 .2.2.3.3.3s.3-.2.3-.3c0-.2-.2-.3-.3-.3s-.3.2-.3.3zM89.9 6.6c.2 0 .3-.2.3-.3 0-.2-.2-.3-.3-.3s-.3 0-.3.2.1.4.3.4zm11.4 0c.2 0 .3-.2.3-.3 0-.2-.2-.3-.3-.3-.2 0-.3.2-.3.3 0 .1.1.3.3.3zM77.8 18c0 .2.2.3.3.3s.3-.2.3-.3c0-.2-.2-.3-.3-.3s-.3.1-.3.3zm11.8 0c0 .2.2.3.3.3s.3-.2.3-.3c0-.2-.2-.3-.3-.3s-.3.1-.3.3zm12.1 0c0-.2-.2-.3-.3-.3-.2 0-.3.2-.3.3 0 .2.2.3.3.3.1 0 .3-.1.3-.3zM78.2 29.4c-.2 0-.3.2-.3.3 0 .2.2.3.3.3s.3-.2.3-.3c0-.2-.1-.3-.3-.3zm11.7 0c-.2 0-.3.2-.3.3 0 .2.2.3.3.3s.3-.2.3-.3c.1-.2-.1-.3-.3-.3zm11.8.3c0-.2-.2-.3-.3-.3-.2 0-.3.2-.3.3 0 .2.2.3.3.3.1.1.3-.1.3-.3zm4.5-27.6c.2 0 .3-.2.3-.3 0-.2-.2-.3-.3-.3-.2 0-.3.2-.3.3-.1.1.1.3.3.3zm-2.1 0c.2 0 .3-.2.3-.3 0-.2-.2-.3-.3-.3s-.3.2-.3.3c0 .1.1.3.3.3zm2.1 2c.2 0 .3-.2.3-.3 0-.2-.2-.3-.3-.3-.2 0-.3.2-.3.3-.1.2.1.3.3.3zm-32.5-2c.2 0 .3-.2.3-.3 0-.2-.2-.3-.3-.3s-.3.2-.3.3c-.1.1.1.3.3.3zm2.1 0c.2 0 .3-.2.3-.3 0-.2-.2-.3-.3-.3s-.3.2-.3.3c-.1.1.1.3.3.3zm-2.1 2c.2 0 .3-.1.3-.3 0-.2-.2-.3-.3-.3s-.3.2-.3.3c-.1.2.1.3.3.3zm32.5 29.8c-.2 0-.3.2-.3.3 0 .2.2.3.3.3.2 0 .3-.2.3-.3 0-.2-.1-.3-.3-.3zm-2.1 0c-.2 0-.3.2-.3.3 0 .2.2.3.3.3s.3-.2.3-.3c0-.2-.1-.3-.3-.3zm2.1-2.1c-.2 0-.3.2-.3.3 0 .2.2.3.3.3.2 0 .3-.2.3-.3 0-.1-.1-.3-.3-.3zm-32.5 2.1c-.2 0-.3.2-.3.3 0 .2.2.3.3.3s.3-.2.3-.3c0-.2-.1-.3-.3-.3zm2.1 0c-.2 0-.3.2-.3.3 0 .2.2.3.3.3s.3-.2.3-.3c0-.2-.2-.3-.3-.3zm-2.1-2.1c-.2 0-.3.2-.3.3 0 .2.2.3.3.3s.3-.2.3-.3c0-.1-.1-.3-.3-.3z"/><path id="land" class="st0" d="M53.9 0C44 0 36 8.1 36 18s8.1 18 18 18 18-8.1 18-18S63.8 0 53.9 0zm0 35.3c-9.5 0-17.3-7.8-17.3-17.3S44.4.7 53.9.7 71.2 8.5 71.2 18s-7.7 17.3-17.3 17.3zm0-31.2c-7.6 0-13.8 6.2-13.8 13.8s6.2 13.8 13.8 13.8S67.8 25.6 67.8 18 61.6 4.1 53.9 4.1zm0 27c-7.2 0-13.1-5.9-13.1-13.1S46.7 4.8 53.9 4.8c7.2 0 13.1 5.9 13.1 13.1s-5.8 13.2-13.1 13.2zm0-22.8c-5.3 0-9.7 4.3-9.7 9.7s4.3 9.7 9.7 9.7c5.3 0 9.7-4.3 9.7-9.7s-4.3-9.7-9.7-9.7zm0 18.7c-5 0-9-4-9-9s4-9 9-9 9 4 9 9-4 9-9 9zm0-14.6c-3 0-5.5 2.5-5.5 5.5s2.5 5.5 5.5 5.5 5.5-2.5 5.5-5.5-2.4-5.5-5.5-5.5zm0 10.4c-2.7 0-4.8-2.2-4.8-4.8s2.2-4.8 4.8-4.8c2.7 0 4.8 2.2 4.8 4.8s-2.1 4.8-4.8 4.8zM69.8 1.7c0-.2.2-.3.3-.3s.3.2.3.3c0 .2-.2.3-.3.3s-.3-.1-.3-.3zm-2 0c0-.2.2-.3.3-.3s.3.2.3.3c0 .2-.2.3-.3.3s-.3-.1-.3-.3zm2 2.1c0-.2.2-.3.3-.3s.3.2.3.3c0 .2-.2.3-.3.3s-.3-.1-.3-.3zM37.3 1.7c0-.2.2-.3.3-.3s.4.1.4.3c0 .2-.2.3-.3.3s-.4-.1-.4-.3zM38.7 18c0 .2-.2.3-.3.3-.2 0-.3-.2-.3-.3 0-.2.2-.3.3-.3.2-.1.3.1.3.3zm7.4 7.8c.1.1.1.4 0 .5-.1.1-.4.1-.5 0-.1-.1-.1-.4 0-.5.2-.1.4-.1.5 0zm15.6-15.6c-.1-.1-.1-.4 0-.5s.4-.1.5 0 .1.4 0 .5c-.1.1-.3.1-.5 0zm-16.1 0c-.1-.1-.1-.4 0-.5s.4-.1.5 0c.1.1.1.4 0 .5-.1.1-.3.1-.5 0zm16.6 15.6c.1.1.1.4 0 .5-.1.1-.4.1-.5 0-.1-.1-.1-.4 0-.5.2-.1.4-.1.5 0zm7.6-7.8c0 .2-.2.3-.3.3s-.3-.2-.3-.3c0-.2.2-.3.3-.3s.3.1.3.3zm-13.5 0c0 .2-.2.3-.3.3-.2 0-.3-.2-.3-.3 0-.2.2-.3.3-.3.2-.1.3.1.3.3zm-2 0c0 .2-.2.3-.3.3-.2 0-.3-.2-.3-.3 0-.2.2-.3.3-.3.1-.1.3.1.3.3zm-2.1 0c0 .2-.2.3-.3.3-.2 0-.3-.2-.3-.3 0-.2.2-.3.3-.3.1-.1.3.1.3.3zm2.1-2.1c0 .2-.2.3-.3.3-.2 0-.3-.2-.3-.3 0-.2.2-.3.3-.3.1 0 .3.1.3.3zm0 4.1c0 .2-.2.3-.3.3-.2 0-.3-.2-.3-.3 0-.2.2-.3.3-.3.1 0 .3.2.3.3zm-.7-17.6c0-.2.2-.3.3-.3.2 0 .3.2.3.3 0 .2-.2.3-.3.3-.2.1-.3-.1-.3-.3zm.7 31.1c0 .2-.2.3-.3.3-.2 0-.3-.2-.3-.3 0-.2.2-.3.3-.3.1 0 .3.1.3.3zM42.7 7.2c-.1-.1-.1-.4 0-.5.1-.1.4-.1.5 0 .1.1.1.4 0 .5-.2.2-.4.2-.5 0zm22.5 21.5c.1.1.1.4 0 .5-.1.1-.4.1-.5 0-.1-.1-.1-.4 0-.5.1-.1.3-.1.5 0zm-.5-21.5c-.1-.1-.1-.4 0-.5.1-.1.4-.1.5 0 .1.1.1.4 0 .5-.2.2-.4.2-.5 0zM43.2 28.7c.1.1.1.4 0 .5-.1.1-.4.1-.5 0-.1-.1-.1-.4 0-.5.1-.1.3-.1.5 0zm-3.8-27c0-.2.2-.3.3-.3.2 0 .3.2.3.3 0 .2-.2.3-.3.3-.1.1-.3-.1-.3-.3zm-2.1 2.1c0-.2.2-.3.3-.3s.4.1.4.3c0 .2-.2.3-.3.3s-.4-.1-.4-.3zm33.2 30.4c0 .2-.2.3-.3.3s-.3-.2-.3-.3c0-.2.2-.3.3-.3s.3.1.3.3zm-2.1 0c0 .2-.2.3-.3.3s-.3-.2-.3-.3c0-.2.2-.3.3-.3s.3.1.3.3zm2.1-2.1c0 .2-.2.3-.3.3s-.3-.2-.3-.3c0-.2.2-.3.3-.3s.3.2.3.3zM38 34.2c0 .2-.2.3-.3.3s-.3-.2-.3-.3c0-.2.2-.3.3-.3s.3.1.3.3zm2.1 0c0 .2-.2.3-.3.3-.2 0-.3-.2-.3-.3 0-.2.2-.3.3-.3.1 0 .3.1.3.3zM38 32.1c0 .2-.2.3-.3.3s-.3-.2-.3-.3c0-.2.2-.3.3-.3s.3.2.3.3z"/><path id="water" class="st0" d="M31.6 34.3s2 1 4.3 1v.7c-2.5 0-4.6-1-4.7-1.1 0 0-2-1-4.3-1s-4.3 1-4.3 1c-.1 0-2.1 1.1-4.7 1.1s-4.6-1-4.7-1.1c0 0-2-1-4.3-1s-4.3 1-4.3 1c-.1 0-2.1 1.1-4.7 1.1v-.7c2.4 0 4.3-1 4.3-1 .1 0 2.1-1.1 4.7-1.1s4.6 1 4.7 1.1c0 0 2 1 4.3 1s4.3-1 4.3-1c.1 0 2.1-1.1 4.7-1.1s4.6 1 4.7 1.1zM27 29c-2.5 0-4.6 1-4.7 1.1 0 0-2 1-4.3 1s-4.3-1-4.3-1c-.1 0-2.1-1.1-4.7-1.1s-4.6 1-4.7 1.1c0 0-2 1-4.3 1v.7c2.5 0 4.6-1 4.7-1.1 0 0 2-1 4.3-1s4.3 1 4.3 1c.1 0 2.1 1.1 4.7 1.1s4.6-1 4.7-1.1c0 0 2-1 4.3-1s4.3 1 4.3 1c.1 0 2.1 1.1 4.7 1.1v-.7c-2.4 0-4.3-1-4.3-1-.2 0-2.2-1.1-4.7-1.1zm0-4.1c-2.5 0-4.6 1-4.7 1.1 0 0-2 1-4.3 1s-4.3-1-4.3-1c-.1 0-2.1-1.1-4.7-1.1s-4.6 1-4.7 1.1c0 0-2 1-4.3 1v.7c2.5 0 4.6-1 4.7-1.1 0 0 2-1 4.3-1s4.3 1 4.3 1c.1 0 2.1 1.1 4.7 1.1s4.6-1 4.7-1.1c0 0 2-1 4.3-1s4.3 1 4.3 1c.1 0 2.1 1.1 4.7 1.1V27c-2.4 0-4.3-1-4.3-1-.2-.1-2.2-1.1-4.7-1.1zm0-4.2c-2.5 0-4.6 1-4.7 1.1 0 0-2 1-4.3 1s-4.3-1-4.3-1c-.1 0-2.1-1.1-4.7-1.1s-4.6 1-4.7 1.1c0 0-2 1-4.3 1v.7c2.5 0 4.6-1 4.7-1.1 0 0 2-1 4.3-1s4.3 1 4.3 1c.1 0 2.1 1.1 4.7 1.1s4.6-1 4.7-1.1c0 0 2-1 4.3-1s4.3 1 4.3 1c.1 0 2.1 1.1 4.7 1.1v-.7c-2.4 0-4.3-1-4.3-1-.2 0-2.2-1.1-4.7-1.1zm0-4.1c-2.5 0-4.6 1-4.7 1.1 0 0-2 1-4.3 1s-4.3-1-4.3-1c-.1 0-2.1-1.1-4.7-1.1s-4.6 1-4.7 1.1c0 0-2 1-4.3 1v.7c2.5 0 4.6-1 4.7-1.1 0 0 2-1 4.3-1s4.3 1 4.3 1c.1 0 2.1 1.1 4.7 1.1s4.6-1 4.7-1.1c0 0 2-1 4.3-1s4.3 1 4.3 1c.1 0 2.1 1.1 4.7 1.1v-.7c-2.4 0-4.3-1-4.3-1-.2-.1-2.2-1.1-4.7-1.1zm0-4.2c-2.5 0-4.6 1-4.7 1.1 0 0-2 1-4.3 1s-4.3-1-4.3-1c-.1 0-2.1-1.1-4.7-1.1s-4.6 1-4.7 1.1c0 0-2 1-4.3 1v.7c2.5 0 4.6-1 4.7-1.1 0 0 2-1 4.3-1s4.3 1 4.3 1c.1 0 2.1 1.1 4.7 1.1s4.6-1 4.7-1.1c0 0 2-1 4.3-1s4.3 1 4.3 1c.1 0 2.1 1.1 4.7 1.1v-.7c-2.4 0-4.3-1-4.3-1-.2 0-2.2-1.1-4.7-1.1zm0-4.1c-2.5 0-4.6 1-4.7 1.1 0 0-2 1-4.3 1s-4.3-1-4.3-1c-.1 0-2.1-1.1-4.7-1.1s-4.6 1-4.7 1.1c0 0-2 1-4.3 1v.7c2.5 0 4.6-1 4.7-1.1 0 0 2-1 4.3-1s4.3 1 4.3 1c.1 0 2.1 1.1 4.7 1.1s4.6-1 4.7-1.1c0 0 2-1 4.3-1s4.3 1 4.3 1c.1 0 2.1 1.1 4.7 1.1v-.7c-2.4 0-4.3-1-4.3-1-.2-.1-2.2-1.1-4.7-1.1zm0-4.2c-2.5 0-4.6 1-4.7 1.1 0 0-2 1-4.3 1s-4.3-1-4.3-1c-.1 0-2.1-1.1-4.7-1.1s-4.6 1-4.7 1.1c0 0-2 1-4.3 1v.7c2.5 0 4.6-1 4.7-1.1 0 0 2-1 4.3-1s4.3 1 4.3 1c.1 0 2.1 1.1 4.7 1.1s4.6-1 4.7-1.1c0 0 2-1 4.3-1s4.3 1 4.3 1c.1 0 2.1 1.1 4.7 1.1v-.7c-2.4 0-4.3-1-4.3-1-.2 0-2.2-1.1-4.7-1.1zm4.6-3C31.5 1 29.5 0 27 0s-4.6 1-4.7 1.1c0 0-2 1-4.3 1s-4.3-1-4.3-1C13.6 1 11.5 0 9 0S4.4 1 4.3 1.1c0 0-2 1-4.3 1v.7c2.5 0 4.6-1 4.7-1.1 0 0 2-1 4.3-1s4.3 1 4.3 1c.1 0 2.1 1.1 4.7 1.1s4.6-1 4.7-1.1c0 0 2-1 4.3-1s4.3 1 4.3 1c.1 0 2.1 1.1 4.7 1.1v-.7c-2.4 0-4.4-1-4.4-1zm-4.3 13.8c0-.2-.2-.3-.3-.3-.2 0-.3.2-.3.3 0 .2.2.3.3.3.2 0 .3-.1.3-.3zm0-8.7c0-.2-.2-.3-.3-.3-.2 0-.3.2-.3.3 0 .2.2.3.3.3.2.1.3-.1.3-.3zM9.3 19c0-.2-.2-.3-.3-.3-.2 0-.3.2-.3.3 0 .2.2.3.3.3.2.1.3-.1.3-.3zm9 2.1c0-.2-.2-.3-.3-.3-.2 0-.3.2-.3.3 0 .2.2.3.3.3.2 0 .3-.1.3-.3zm-9 10.4c0-.2-.2-.3-.3-.3-.2 0-.3.2-.3.3 0 .2.2.3.3.3.2 0 .3-.2.3-.3zm18-4.2c0-.2-.2-.3-.3-.3-.2 0-.3.2-.3.3 0 .2.2.3.3.3.2.1.3-.1.3-.3zM.7 29.4c0-.2-.2-.3-.3-.3-.2-.1-.4.1-.4.3 0 .2.2.3.3.3.2 0 .4-.1.4-.3zm0-24.9c0-.2-.2-.3-.3-.3-.2-.1-.4.1-.4.3 0 .2.2.3.3.3.2 0 .4-.1.4-.3zm17.6 4.1c0-.2-.2-.3-.3-.3-.2 0-.3.2-.3.3-.1.2.1.4.3.4.2 0 .3-.2.3-.4zm0 4.2c0-.2-.2-.3-.3-.3-.2 0-.3.2-.3.3 0 .2.2.3.3.3.2 0 .3-.1.3-.3zm-9-2.1c0-.2-.2-.3-.3-.3-.2 0-.3.2-.3.3 0 .2.2.3.3.3.2.1.3-.1.3-.3zm4.5 5.2c0-.2-.2-.3-.3-.3-.2 0-.3.2-.3.3 0 .2.2.3.3.3.2 0 .3-.1.3-.3zm-9 0c0-.2-.2-.3-.3-.3-.2 0-.3.2-.3.3 0 .2.2.3.3.3.2 0 .3-.1.3-.3zm18.4 8.3c0-.2-.2-.3-.3-.3-.2 0-.3.2-.3.3 0 .2.2.3.3.3.1 0 .3-.1.3-.3zm12.4-7.6c-.2 0-.3.2-.3.3 0 .2.2.3.3.3.2 0 .3-.2.3-.3 0-.2-.1-.3-.3-.3zM23.2 32.5c0-.2-.2-.3-.3-.3-.2 0-.3.2-.3.3 0 .2.2.3.3.3.1 0 .3-.1.3-.3zm-4.9 1c0-.2-.2-.3-.3-.3-.2 0-.3.2-.3.3 0 .2.2.3.3.3.2.1.3-.1.3-.3zm-9-6.2c0-.2-.1-.3-.3-.3-.2 0-.3.2-.3.3 0 .2.2.3.3.3.2.1.3-.1.3-.3zm4.5-23.8c0-.2-.2-.3-.3-.3-.2 0-.3.2-.3.3 0 .2.2.3.3.3.2 0 .3-.2.3-.3z"/></pattern></symbol><symbol id="icon-facebook" viewBox="0 0 5.6 12"><path d="M1.4 2.1v1.4H0v2.1h1.4V12h2.1V5.6h1.9s.2-.7.2-2.1H3.5V2.2c0-.2.5-.8.8-.8h1.4V0H3.8C1.2 0 1.4 1.7 1.4 2"/></symbol><symbol id="icon-instagram" viewBox="0 0 10 10"><path d="M8.6 10H1.3C.6 10 0 9.4 0 8.7V1.3C0 .6.6 0 1.3 0h7.5c.6 0 1.2.6 1.2 1.3v7.5c0 .6-.6 1.2-1.3 1.2M5 3.1C4 3.1 3.1 4 3.1 5 3.1 6 4 6.9 5 6.9 6 6.9 6.9 6 6.9 5 6.9 4 6 3.1 5 3.1m3.6-1.5c0-.2 0-.2-.2-.2H7.2c-.2 0-.1 0-.1.2v1.1c0 .3-.1.2.1.2h1.1c.2 0 .2.1.2-.1V1.6zm0 2.7h-.7c.1 0 .1.5.1.7 0 1.7-1.3 3-3 3S2 6.7 2 5c0-.3 0-.7.1-.7h-.7v4.1c0 .2 0 .2.2.2h6.7c.2 0 .2 0 .2-.2V4.3z"/></symbol><symbol id="icon-logo" viewBox="0 0 195.4 70"><path d="M91.5 20.9c1.8 0 2.2-1.6 2.2-2.2 0-.8-.4-2.2-2.3-2.2h-2.9v4.4h3zm-3 8.1c0 .2-.2.4-.4.4h-2.3c-.2 0-.4-.2-.4-.4V14.1c0-.2.2-.4.4-.4h5.5c4.3 0 5.6 3 5.6 5 0 3.1-2.7 5.1-5.3 5.1h-3.1V29z"/><path d="M95.2 44.8c-.2.2-.4.2-.6 0-1-.9-2.4-1.7-3.7-1.7-4 0-4.6 3.9-4.6 5.1s.6 5 4.6 5.1c1.4 0 2.8-.8 3.9-1.6.2-.2.5-.1.6.1l1.3 1.6c.2.2.1.5-.1.6-1.5 1.5-3.3 2.3-5.7 2.3-5.9 0-7.7-4.8-7.7-8.1 0-3.2 1.8-8.1 7.7-8.1 2.5 0 4.3 1 5.8 2.6.2.2.2.5 0 .6l-1.5 1.5z"/><path d="M104.8 26.5h6.2c.2 0 .4.2.4.4v2c0 .2-.2.4-.4.4h-9c-.2 0-.4-.2-.4-.4V14.1c0-.2.2-.4.4-.4h2.3c.2 0 .4.2.4.4v12.4z"/><path d="M134.7 29.4c-.2 0-.4-.2-.4-.4V13.7c0-.1.1-.3.3-.3.2 0 .4.1.5.2l8.9 8.6v-8.1c0-.2.2-.4.4-.4h2.3c.2 0 .4.2.4.4v15.2c0 .1-.1.2-.3.2-.2 0-.3-.1-.4-.2l-9-8.8V29c0 .2-.2.4-.4.4h-2.3z"/><path d="M156 16.5h-3.8c-.2 0-.4-.2-.4-.4v-2c0-.2.2-.4.4-.4H163c.2 0 .4.2.4.4v2c0 .2-.2.4-.4.4h-3.9V29c0 .2-.2.4-.4.4h-2.3c-.2 0-.4-.2-.4-.4V16.5z"/><path d="M120.9 24.6h3.8l-1.9-4.5-1.9 4.5zm4.9 2.5h-5.9l-.8 1.9c-.1.2-.3.4-.6.4H116c-.2 0-.4-.2-.3-.4l6.8-15.2c.1-.1.2-.2.3-.2.1 0 .3.1.4.2L130 29c.1.2-.1.4-.2.4h-2.5c-.3 0-.5-.2-.6-.4l-.9-1.9z"/><path d="M104.9 55.7c0 .2-.2.4-.4.4h-2.3c-.2 0-.4-.2-.4-.4V40.8c0-.2.2-.4.4-.4h2.3c.2 0 .4.2.4.4v6.1h6.5v-6.1c0-.2.2-.4.4-.4h2.3c.2 0 .4.2.4.4v14.9c0 .2-.2.4-.4.4h-2.3c-.2 0-.4-.2-.4-.4v-5.9h-6.5v5.9z"/><path d="M123.7 55.7c0 .2-.2.4-.4.4H121c-.2 0-.4-.2-.4-.4V40.8c0-.2.2-.4.4-.4h2.3c.2 0 .4.2.4.4v14.9z"/><path d="M140.7 44.8c-.2.2-.4.2-.6 0-1-.9-2.4-1.7-3.7-1.7-4 0-4.6 3.9-4.6 5.1s.6 5 4.6 5.1c1.4 0 2.8-.8 3.9-1.6.2-.2.5-.1.6.1l1.3 1.6c.2.2.1.5-.1.6-1.5 1.5-3.3 2.3-5.7 2.3-5.9 0-7.7-4.8-7.7-8.1 0-3.2 1.8-8.1 7.7-8.1 2.5 0 4.3 1 5.8 2.6.2.2.2.5 0 .6l-1.5 1.5z"/><path d="M170 50.7c-.2 0-.4-.2-.4-.4v-2c0-.2.2-.4.4-.4h5.4c.2 0 .4.2.4.4v5.2c0 .3-.1.5-.3.7-1.4 1.2-3.1 2-5.4 2-6 0-7.7-4.7-7.7-8.1 0-3.2 1.8-8 7.7-8 2.4 0 4 .8 5.5 2.3.2.2.2.5 0 .6l-1.5 1.5c-.2.2-.4.2-.6 0-.9-.8-2.2-1.5-3.4-1.5-4 0-4.6 3.8-4.6 5.1 0 1.3.6 5.1 4.6 5.1.9 0 1.9-.3 2.6-.7v-1.9H170z"/><path d="M192.2 48.2c0-1.3-.6-5.1-4.5-5.1-4 0-4.6 3.8-4.6 5.1 0 1.3.6 5.1 4.6 5.1 3.9.1 4.5-3.8 4.5-5.1m3.2 0c0 3.3-1.8 8.1-7.7 8.1-6 0-7.7-4.7-7.7-8.1 0-3.2 1.8-8.1 7.7-8.1 5.9.1 7.7 4.9 7.7 8.1"/><path d="M150.8 51.3h3.8l-1.9-4.5-1.9 4.5zm4.9 2.5h-5.9l-.8 1.9c-.1.2-.3.4-.6.4h-2.5c-.2 0-.3-.2-.3-.4l6.8-15.2c.1-.1.2-.2.4-.2.1 0 .3.1.4.2l6.8 15.2c.1.2-.1.4-.2.4h-2.5c-.3 0-.5-.2-.6-.4l-1-1.9z"/><path d="M35 2.9C17.3 2.9 2.9 17.3 2.9 35S17.3 67.1 35 67.1 67.1 52.7 67.1 35 52.7 2.9 35 2.9M35 70C15.7 70 0 54.3 0 35S15.7 0 35 0s35 15.7 35 35-15.7 35-35 35"/><path d="M19.3 37.5c.3.1.4.4.3.7l-.8 1.6c-.2.3-.5.4-.9.4-1.8-.3-5.2.7-4.2 2.6 1.2 2.3 8.4-.4 8.4-7.8 0-7.5-7.3-10.1-8.4-7.8-1 1.9 2.4 2.9 4.2 2.6.3-.1.7.1.9.4.4.5.7 1.1.8 1.6.1.3 0 .6-.3.7-2.4.8-5.6.1-7.4-1.6-1.4-1.3-1.7-3.1-.9-4.9.9-2 3.1-3 5.8-2.4 2.1.4 4.1 1.7 5.6 3.5 1.8 2.1 2.7 4.8 2.7 7.9s-.9 5.8-2.7 7.9c-1.5 1.8-3.6 3.1-5.6 3.5-2.7.5-5-.4-5.8-2.4-.8-1.8-.4-3.6.9-4.9 1.8-1.7 5-2.4 7.4-1.6"/><path d="M50.7 37.5c-.3.1-.4.4-.3.7l.8 1.6c.2.3.5.4.9.4 1.8-.3 5.2.7 4.2 2.6-1.2 2.3-8.4-.4-8.4-7.8 0-7.5 7.3-10.1 8.4-7.8 1 1.9-2.4 2.9-4.2 2.6-.3-.1-.7.1-.9.4-.4.5-.7 1.1-.8 1.6-.1.3 0 .6.3.7 2.4.8 5.6.1 7.4-1.6 1.4-1.3 1.7-3.1.9-4.9-.9-2-3.1-3-5.8-2.4-2.1.4-4.1 1.7-5.6 3.5-1.8 2.1-2.7 4.8-2.7 7.9s.9 5.8 2.7 7.9c1.5 1.8 3.6 3.1 5.6 3.5 2.7.5 4.9-.4 5.8-2.4.8-1.8.4-3.6-.9-4.9-1.8-1.7-5-2.4-7.4-1.6"/><path d="M32.5 19.4c-.1.3-.4.4-.7.3l-1.6-.8c-.3-.2-.4-.5-.4-.9.3-1.8-.7-5.2-2.6-4.2-2.3 1.2.4 8.4 7.8 8.4 7.5 0 10.1-7.3 7.8-8.4-1.9-1-2.9 2.4-2.6 4.2.1.3-.1.7-.4.9-.5.4-1.1.7-1.6.8-.3.1-.6 0-.7-.3-.8-2.4-.1-5.6 1.6-7.4 1.3-1.4 3.1-1.7 4.9-.9 2 .9 3 3.1 2.4 5.8-.4 2.1-1.7 4.1-3.5 5.6-2.1 1.8-4.8 2.7-7.9 2.7s-5.8-.9-7.9-2.7C25.3 21 24 19 23.6 16.9c-.5-2.7.4-4.9 2.4-5.8 1.8-.8 3.6-.4 4.9.9 1.7 1.8 2.4 5.1 1.6 7.4"/><path d="M32.5 50.6c-.1-.3-.4-.4-.7-.3l-1.6.8c-.3.2-.4.5-.4.9.3 1.8-.7 5.2-2.6 4.2-2.3-1.2.4-8.4 7.8-8.4 7.5 0 10.1 7.3 7.8 8.4-1.9 1-2.9-2.4-2.6-4.2.1-.3-.1-.7-.4-.9-.5-.4-1.1-.7-1.6-.8-.3-.1-.6 0-.7.3-.8 2.4-.1 5.6 1.6 7.4 1.3 1.4 3.1 1.7 4.9.9 2-.9 3-3.1 2.4-5.8-.4-2.1-1.7-4.1-3.5-5.6-2.1-1.8-4.8-2.7-7.9-2.7s-5.8.9-7.9 2.7C25.3 49 24 51 23.6 53.1c-.5 2.7.4 4.9 2.4 5.8 1.8.8 3.6.4 4.9-.9 1.7-1.8 2.4-5.1 1.6-7.4"/><path d="M42.7 25.2c.5.8 1.5 1.7 2.3 2.3.1.1.2.3.1.5-.3.6-.6 1.1-.9 1.7-.1.2-.4.3-.6.2-1.1-.5-2.9-2.3-3.3-3.2-.1-.2-.1-.5.2-.6.6-.2 1.1-.5 1.7-.9.1-.2.4-.2.5 0"/><path d="M27.3 25.2c-.5.8-1.5 1.7-2.3 2.3-.1.1-.2.3-.1.5.3.6.6 1.1.9 1.7.1.2.4.3.6.2 1.1-.5 2.9-2.3 3.3-3.2.1-.2.1-.5-.2-.6-.6-.2-1.1-.5-1.7-.9-.2-.2-.4-.2-.5 0"/><path d="M42.7 44.7c.5-.8 1.5-1.7 2.3-2.3.1-.1.2-.3.1-.5-.3-.6-.6-1.1-.9-1.7-.1-.2-.4-.3-.6-.2-1.1.5-2.9 2.3-3.3 3.2-.1.2-.1.5.2.6.6.2 1.1.5 1.7.9.1.2.4.2.5 0"/><path d="M27.3 44.7c-.5-.8-1.5-1.7-2.3-2.3-.1-.1-.2-.3-.1-.5.3-.6.6-1.1.9-1.7.1-.2.4-.3.6-.2 1.1.5 2.9 2.3 3.3 3.2.1.2.1.5-.2.6-.6.2-1.1.5-1.7.9-.2.2-.4.2-.5 0"/></symbol><symbol id="icon-twitter" viewBox="0 0 14.5 10"><path d="M12.9 4.4c.8-.1 1.4-.4 1.6-.9-.3.2-1.2.4-1.7.2 0-.1-.1-.2-.1-.3C12.3 2 11 .8 9.6 1c.1 0 .2-.1.3-.1.1-.1 1-.2.9-.5-.1-.4-1.2.1-1.4.2.3-.1.7-.3.8-.6-.4.1-.8.3-1.2.5.1-.1.2-.3.2-.4C8.2.8 7.5 2.2 7 3.6c-.4-.4-.8-.7-1.1-.9-.9-.5-2-1-3.7-1.6-.1.6.2 1.3 1.2 1.8-.2 0-.6.1-.9.1.1.7.5 1.2 1.6 1.5-.5 0-.8.1-1 .4.2.5.8 1 1.8.9-1.1.4-.4 1.3.5 1.2-1.6 1.6-4 1.5-5.4.1 3.7 5 11.6 2.9 12.8-1.9.9 0 1.4-.3 1.7-.7-.5.2-1.2.1-1.6-.1"/></symbol></svg>