<svg id="Layer_1" xmlns="http://www.w3.org/2000/svg" viewBox="0 0 108 108"><path d="M95.2 57.9l-4.5 4.5h3.7c.4 0 .8.3 1 .6.2.4.1.8-.2 1.1l-4.5 4.5h3.7c.4 0 .8.3 1 .6.2.4.1.8-.2 1.1L89 76.6c-.2.2-.5.3-.7.3-.3 0-.5-.1-.7-.3-.4-.4-.4-1.1 0-1.5l4.5-4.5h-3.7c-.4 0-.8-.3-1-.6-.2-.4-.1-.8.2-1.1l4.5-4.5h-3.7c-.4 0-.8-.3-1-.6-.2-.4-.1-.8.2-1.1l6.2-6.2c.4-.4 1.1-.4 1.5 0 .3.3.3 1-.1 1.4zM108 34.3v37.4c0 3.6-1.1 7.1-3.3 10-3.2 4.2-8 6.6-13.3 6.6-5.3 0-10.1-2.4-13.3-6.6-2.2-2.9-3.3-6.3-3.3-10v-3.1h-8.3v3.1c0 3.4-2.8 6.2-6.2 6.2H54v10.4h-6.2V77.9H18.7v10.4h-6.2V77.9H6.2c-3.4 0-6.2-2.8-6.2-6.2V55.1c0-3.4 2.8-6.2 6.2-6.2h54c3.4 0 6.2 2.8 6.2 6.2v3.1h8.3V32.8c.7-8.5 7.9-15.1 16.5-15.1 8.7 0 15.8 6.6 16.5 15.1v.8c.3.3.3.5.3.7zM6.2 50.9c-2.3 0-4.2 1.9-4.2 4.2v16.6c0 2.3 1.9 4.2 4.2 4.2v-25zm18.7 0v24.9h16.6V50.9H24.9zm-8.3 20.8h-2.1v14.5h2.1V71.7zm2.1-2.1v6.2h4.2V50.9H8.3v24.9h4.2v-6.2h6.2zm33.2 2.1h-2.1v14.5h2.1V71.7zm6.3-20.8H43.6v24.9h4.2v-6.2H54v6.2h4.2V50.9zm6.2 4.2c0-2.3-1.9-4.2-4.2-4.2v24.9c2.3 0 4.2-1.9 4.2-4.2V55.1zm41.5-20.5c-9.5-1.7-19.5-1.7-29.1 0v1c0 .2 0 .4.1.6 0 .2 0 .4.1.5 0 .2.1.4.1.6 0 .2.1.3.1.5.1.2.1.4.2.6 0 .2.1.3.1.5.1.2.2.4.2.6.1.1.1.3.2.4l.3.6c.1.1.1.3.2.4.1.2.3.5.4.7.1.1.1.2.2.3.2.3.4.6.7 1 2.8 3.7 7 5.8 11.6 5.8s8.9-2.1 11.6-5.8c.2-.3.5-.6.7-1 .1-.1.1-.2.2-.3.1-.2.3-.5.4-.7.1-.1.1-.3.2-.4l.3-.6c.1-.1.1-.3.2-.4.1-.2.2-.4.2-.6.1-.2.1-.3.1-.5.1-.2.1-.4.2-.6 0-.2.1-.3.1-.5s.1-.4.1-.6c0-.2 0-.4.1-.5 0-.2.1-.4.1-.6v-.5c.1-.2.1-.4.1-.5zM77 32.4c9.5-1.6 19.4-1.6 28.8 0-.9-7.2-7-12.7-14.4-12.7-7.4.1-13.5 5.5-14.4 12.7zM66.5 60.3v2.1h8.3v-2.1h-8.3zm8.3 6.2v-2.1h-8.3v2.1h8.3zm30.8-23.6c-.1.1-.1.2-.2.4-.2.4-.5.7-.7 1-3.2 4.2-8 6.6-13.3 6.6-5.3 0-10.1-2.4-13.3-6.6-.3-.3-.5-.7-.7-1-.1-.1-.1-.2-.2-.3-.1-.2-.2-.4-.3-.5v29.3c0 3.2 1 6.2 2.9 8.7 2.8 3.7 7 5.8 11.6 5.8s8.9-2.1 11.6-5.8c1.9-2.5 2.9-5.5 2.9-8.7V42.4c-.1.1-.2.3-.3.5zM6.2 107h2.1V96.6H6.2V107zm1.1-14.5c-.6 0-1 .5-1 1 0 .6.5 1 1 1s1-.5 1-1c0-.6-.5-1-1-1zm-4.2 2c-.6 0-1 .5-1 1 0 .6.5 1 1 1s1-.5 1-1c.1-.5-.4-1-1-1zm0 4.2c-.6 0-1 .5-1 1 0 .6.5 1 1 1s1-.5 1-1c.1-.5-.4-1-1-1zm8.3-4.2c-.6 0-1 .5-1 1 0 .6.5 1 1 1s1-.5 1-1c.1-.5-.4-1-1-1zm0 4.2c-.6 0-1 .5-1 1 0 .6.5 1 1 1s1-.5 1-1c.1-.5-.4-1-1-1zm88.3 8.3h2.1V96.6h-2.1V107zm1-14.5c-.6 0-1 .5-1 1 0 .6.5 1 1 1s1-.5 1-1c.1-.6-.4-1-1-1zm-4.1 2c-.6 0-1 .5-1 1 0 .6.5 1 1 1s1-.5 1-1-.4-1-1-1zm0 4.2c-.6 0-1 .5-1 1 0 .6.5 1 1 1s1-.5 1-1-.4-1-1-1zm8.3-4.2c-.6 0-1 .5-1 1 0 .6.5 1 1 1s1-.5 1-1-.4-1-1-1zm0 4.2c-.6 0-1 .5-1 1 0 .6.5 1 1 1s1-.5 1-1-.4-1-1-1zM68.5 107h2.1V96.6h-2.1V107zm1.1-14.5c-.6 0-1 .5-1 1 0 .6.5 1 1 1s1-.5 1-1c0-.6-.4-1-1-1zm-4.2 2c-.6 0-1 .5-1 1 0 .6.5 1 1 1s1-.5 1-1c.1-.5-.4-1-1-1zm0 4.2c-.6 0-1 .5-1 1 0 .6.5 1 1 1s1-.5 1-1c.1-.5-.4-1-1-1zm8.3-4.2c-.6 0-1 .5-1 1 0 .6.5 1 1 1s1-.5 1-1c.1-.5-.4-1-1-1zm0 4.2c-.6 0-1 .5-1 1 0 .6.5 1 1 1s1-.5 1-1c.1-.5-.4-1-1-1zm10.4 8.3h2.1V96.6h-2.1V107zm1.1-14.5c-.6 0-1 .5-1 1 0 .6.5 1 1 1s1-.5 1-1c0-.6-.5-1-1-1zm-4.2 2c-.6 0-1 .5-1 1 0 .6.5 1 1 1s1-.5 1-1-.4-1-1-1zm0 4.2c-.6 0-1 .5-1 1 0 .6.5 1 1 1s1-.5 1-1-.4-1-1-1zm8.3-4.2c-.6 0-1 .5-1 1 0 .6.5 1 1 1s1-.5 1-1-.4-1-1-1zm0 4.2c-.6 0-1 .5-1 1 0 .6.5 1 1 1s1-.5 1-1-.4-1-1-1zM53 107h2V96.6h-2V107zm1-14.5c-.6 0-1 .5-1 1 0 .6.5 1 1 1s1-.5 1-1c0-.6-.4-1-1-1zm-4.2 2c-.6 0-1 .5-1 1 0 .6.5 1 1 1s1-.5 1-1c.1-.5-.4-1-1-1zm0 4.2c-.6 0-1 .5-1 1 0 .6.5 1 1 1s1-.5 1-1c.1-.5-.4-1-1-1zm8.4-4.2c-.6 0-1 .5-1 1 0 .6.5 1 1 1s1-.5 1-1-.5-1-1-1zm0 4.2c-.6 0-1 .5-1 1 0 .6.5 1 1 1s1-.5 1-1-.5-1-1-1zM37.4 107h2.1V96.6h-2.1V107zm1-14.5c-.6 0-1 .5-1 1 0 .6.5 1 1 1s1-.5 1-1c.1-.6-.4-1-1-1zm-4.1 2c-.6 0-1 .5-1 1 0 .6.5 1 1 1s1-.5 1-1-.5-1-1-1zm0 4.2c-.6 0-1 .5-1 1 0 .6.5 1 1 1s1-.5 1-1-.5-1-1-1zm8.3-4.2c-.6 0-1 .5-1 1 0 .6.5 1 1 1s1-.5 1-1-.4-1-1-1zm0 4.2c-.6 0-1 .5-1 1 0 .6.5 1 1 1s1-.5 1-1-.4-1-1-1zM21.8 107h2.1V96.6h-2.1V107zm1-14.5c-.6 0-1 .5-1 1 0 .6.5 1 1 1s1-.5 1-1c.1-.6-.4-1-1-1zm-4.1 2c-.6 0-1 .5-1 1 0 .6.5 1 1 1s1-.5 1-1-.4-1-1-1zm0 4.2c-.6 0-1 .5-1 1 0 .6.5 1 1 1s1-.5 1-1-.4-1-1-1zm8.3-4.2c-.6 0-1 .5-1 1 0 .6.5 1 1 1s1-.5 1-1-.4-1-1-1zm0 4.2c-.6 0-1 .5-1 1 0 .6.5 1 1 1s1-.5 1-1-.4-1-1-1zM8.3 32.2H6.2v10.4h2.1V32.2zm-1-2c.6 0 1-.5 1-1 0-.6-.5-1-1-1s-1 .5-1 1c-.1.5.4 1 1 1zm-4.2 2c.6 0 1-.5 1-1 0-.6-.5-1-1-1s-1 .5-1 1c0 .6.4 1 1 1zm0 4.2c.6 0 1-.5 1-1 0-.6-.5-1-1-1s-1 .5-1 1 .4 1 1 1zm8.3-4.2c.6 0 1-.5 1-1 0-.6-.5-1-1-1s-1 .5-1 1c0 .6.4 1 1 1zm0 4.2c.6 0 1-.5 1-1 0-.6-.5-1-1-1s-1 .5-1 1 .4 1 1 1zM55 32.2h-2v10.4h2V32.2zm-1-2c.6 0 1-.5 1-1 0-.6-.5-1-1-1s-1 .5-1 1 .4 1 1 1zm-4.2 2c.6 0 1-.5 1-1 0-.6-.5-1-1-1s-1 .5-1 1c0 .6.5 1 1 1zm0 4.2c.6 0 1-.5 1-1 0-.6-.5-1-1-1s-1 .5-1 1 .5 1 1 1zm8.4-4.2c.6 0 1-.5 1-1 0-.6-.5-1-1-1s-1 .5-1 1c-.1.6.4 1 1 1zm0 4.2c.6 0 1-.5 1-1 0-.6-.5-1-1-1s-1 .5-1 1c-.1.5.4 1 1 1zm-18.7-4.2h-2.1v10.4h2.1V32.2zm-1.1-2c.6 0 1-.5 1-1 0-.6-.5-1-1-1s-1 .5-1 1 .4 1 1 1zm-4.1 2c.6 0 1-.5 1-1 0-.6-.5-1-1-1s-1 .5-1 1c-.1.6.4 1 1 1zm0 4.2c.6 0 1-.5 1-1 0-.6-.5-1-1-1s-1 .5-1 1c-.1.5.4 1 1 1zm8.3-4.2c.6 0 1-.5 1-1 0-.6-.5-1-1-1s-1 .5-1 1c-.1.6.4 1 1 1zm0 4.2c.6 0 1-.5 1-1 0-.6-.5-1-1-1s-1 .5-1 1c-.1.5.4 1 1 1zm-18.7-4.2h-2.1v10.4h2.1V32.2zm-1.1-2c.6 0 1-.5 1-1 0-.6-.5-1-1-1s-1 .5-1 1 .5 1 1 1zm-4.1 2c.6 0 1-.5 1-1 0-.6-.5-1-1-1s-1 .5-1 1c0 .6.4 1 1 1zm0 4.2c.6 0 1-.5 1-1 0-.6-.5-1-1-1s-1 .5-1 1 .4 1 1 1zm8.3-4.2c.6 0 1-.5 1-1 0-.6-.5-1-1-1s-1 .5-1 1c0 .6.4 1 1 1zm0 4.2c.6 0 1-.5 1-1 0-.6-.5-1-1-1s-1 .5-1 1 .4 1 1 1zM8.3 3.2H6.2v10.4h2.1V3.2zm-1-2.1c.6 0 1-.5 1-1 0-.6-.5-1-1-1s-1 .5-1 1c-.1.5.4 1 1 1zM3.1 3.2c.6 0 1-.5 1-1 0-.6-.5-1-1-1s-1 .5-1 1 .4 1 1 1zm0 4.1c.6 0 1-.5 1-1 0-.6-.5-1-1-1s-1 .5-1 1 .4 1 1 1zm8.3-4.1c.6 0 1-.5 1-1 0-.6-.5-1-1-1s-1 .5-1 1 .4 1 1 1zm0 4.1c.6 0 1-.5 1-1 0-.6-.5-1-1-1s-1 .5-1 1 .4 1 1 1zM55 3.2h-2v10.4h2V3.2zm-1-2.1c.6 0 1-.5 1-1 0-.6-.5-1-1-1s-1 .5-1 1 .4 1 1 1zm-4.2 2.1c.6 0 1-.5 1-1 0-.6-.5-1-1-1s-1 .5-1 1 .5 1 1 1zm0 4.1c.6 0 1-.5 1-1 0-.6-.5-1-1-1s-1 .5-1 1 .5 1 1 1zm8.4-4.1c.6 0 1-.5 1-1 0-.6-.5-1-1-1s-1 .5-1 1c-.1.5.4 1 1 1zm0 4.1c.6 0 1-.5 1-1 0-.6-.5-1-1-1s-1 .5-1 1c-.1.5.4 1 1 1zm12.4-4.1h-2.1v10.4h2.1V3.2zm-1-2.1c.6 0 1-.5 1-1 0-.6-.5-1-1-1s-1 .5-1 1c-.1.5.4 1 1 1zm-4.2 2.1c.6 0 1-.5 1-1 0-.6-.5-1-1-1s-1 .5-1 1 .4 1 1 1zm0 4.1c.6 0 1-.5 1-1 0-.6-.5-1-1-1s-1 .5-1 1 .4 1 1 1zm8.3-4.1c.6 0 1-.5 1-1 0-.6-.5-1-1-1s-1 .5-1 1 .5 1 1 1zm0 4.1c.6 0 1-.5 1-1 0-.6-.5-1-1-1s-1 .5-1 1 .5 1 1 1zm12.5-4.1h-2.1v10.4h2.1V3.2zm-1-2.1c.6 0 1-.5 1-1 0-.6-.5-1-1-1s-1 .5-1 1c-.1.5.4 1 1 1zM81 3.2c.6 0 1-.5 1-1 0-.6-.5-1-1-1s-1 .5-1 1 .4 1 1 1zm0 4.1c.6 0 1-.5 1-1 0-.6-.5-1-1-1s-1 .5-1 1 .4 1 1 1zm8.3-4.1c.6 0 1-.5 1-1 0-.6-.5-1-1-1s-1 .5-1 1 .4 1 1 1zm0 4.1c.6 0 1-.5 1-1 0-.6-.5-1-1-1s-1 .5-1 1 .4 1 1 1zm12.5-4.1h-2.1v10.4h2.1V3.2zm-1.1-2.1c.6 0 1-.5 1-1 0-.6-.5-1-1-1s-1 .5-1 1 .5 1 1 1zm-4.1 2.1c.6 0 1-.5 1-1 0-.6-.5-1-1-1s-1 .5-1 1c-.1.5.4 1 1 1zm0 4.1c.6 0 1-.5 1-1 0-.6-.5-1-1-1s-1 .5-1 1c-.1.5.4 1 1 1zm8.3-4.1c.6 0 1-.5 1-1 0-.6-.5-1-1-1s-1 .5-1 1c-.1.5.4 1 1 1zm0 4.1c.6 0 1-.5 1-1 0-.6-.5-1-1-1s-1 .5-1 1c-.1.5.4 1 1 1zM39.5 3.2h-2.1v10.4h2.1V3.2zm-1.1-2.1c.6 0 1-.5 1-1 0-.6-.5-1-1-1s-1 .5-1 1 .4 1 1 1zm-4.1 2.1c.6 0 1-.5 1-1 0-.6-.5-1-1-1s-1 .5-1 1c-.1.5.4 1 1 1zm0 4.1c.6 0 1-.5 1-1 0-.6-.5-1-1-1s-1 .5-1 1c-.1.5.4 1 1 1zm8.3-4.1c.6 0 1-.5 1-1 0-.6-.5-1-1-1s-1 .5-1 1c-.1.5.4 1 1 1zm0 4.1c.6 0 1-.5 1-1 0-.6-.5-1-1-1s-1 .5-1 1c-.1.5.4 1 1 1zM23.9 3.2h-2.1v10.4h2.1V3.2zm-1.1-2.1c.6 0 1-.5 1-1 0-.6-.5-1-1-1s-1 .5-1 1 .5 1 1 1zm-4.1 2.1c.6 0 1-.5 1-1 0-.6-.5-1-1-1s-1 .5-1 1 .4 1 1 1zm0 4.1c.6 0 1-.5 1-1 0-.6-.5-1-1-1s-1 .5-1 1 .4 1 1 1zM27 3.2c.6 0 1-.5 1-1 0-.6-.5-1-1-1s-1 .5-1 1 .4 1 1 1zm0 4.1c.6 0 1-.5 1-1 0-.6-.5-1-1-1s-1 .5-1 1 .4 1 1 1zm20.8 10.4h-2.1v10.4h2.1V17.7zm-1.1-2.1c.6 0 1-.5 1-1 0-.6-.5-1-1-1s-1 .5-1 1c0 .6.5 1 1 1zm-4.1 2.1c.6 0 1-.5 1-1 0-.6-.5-1-1-1s-1 .5-1 1c-.1.5.4 1 1 1zm0 4.1c.6 0 1-.5 1-1 0-.6-.5-1-1-1s-1 .5-1 1c-.1.6.4 1 1 1zm7.2-5.1c0 .6.5 1 1 1s1-.5 1-1c0-.6-.5-1-1-1s-1 .4-1 1zm1.1 3.1c-.6 0-1 .5-1 1 0 .6.5 1 1 1s1-.5 1-1c0-.6-.4-1-1-1zm12.4-2.1h-2.1v10.4h2.1V17.7zm-1-2.1c.6 0 1-.5 1-1 0-.6-.5-1-1-1s-1 .5-1 1c0 .6.4 1 1 1zm-4.1 2.1c.6 0 1-.5 1-1 0-.6-.5-1-1-1s-1 .5-1 1c-.1.5.4 1 1 1zm0 4.1c.6 0 1-.5 1-1 0-.6-.5-1-1-1s-1 .5-1 1c-.1.6.4 1 1 1zm7.2-5.1c0 .6.5 1 1 1s1-.5 1-1c0-.6-.5-1-1-1s-1 .4-1 1zm1.1 3.1c-.6 0-1 .5-1 1 0 .6.5 1 1 1s1-.5 1-1c0-.6-.5-1-1-1zm-34.3-2.1h-2.1v10.4h2.1V17.7zm-1-2.1c.6 0 1-.5 1-1 0-.6-.5-1-1-1s-1 .5-1 1c-.1.6.4 1 1 1zM27 17.7c.6 0 1-.5 1-1 0-.6-.5-1-1-1s-1 .5-1 1 .4 1 1 1zm0 4.1c.6 0 1-.5 1-1 0-.6-.5-1-1-1s-1 .5-1 1c0 .6.4 1 1 1zm7.3-5.1c0 .6.5 1 1 1s1-.5 1-1c0-.6-.5-1-1-1s-1 .4-1 1zm1 3.1c-.6 0-1 .5-1 1 0 .6.5 1 1 1s1-.5 1-1c0-.6-.4-1-1-1zm-18.7-2.1h-2.1v10.4h2.1V17.7zm-1-2.1c.6 0 1-.5 1-1 0-.6-.5-1-1-1s-1 .5-1 1c-.1.6.4 1 1 1zm-4.2 2.1c.6 0 1-.5 1-1 0-.6-.5-1-1-1s-1 .5-1 1 .4 1 1 1zm0 4.1c.6 0 1-.5 1-1 0-.6-.5-1-1-1s-1 .5-1 1c0 .6.4 1 1 1zm7.3-5.1c0 .6.5 1 1 1s1-.5 1-1c0-.6-.5-1-1-1s-1 .4-1 1zm1 3.1c-.6 0-1 .5-1 1 0 .6.5 1 1 1s1-.5 1-1c.1-.6-.4-1-1-1zm9.4 36.3c.6 0 1-.5 1-1 0-.6-.5-1-1-1s-1 .5-1 1c-.1.6.4 1 1 1zm0 4.2c.6 0 1-.5 1-1 0-.6-.5-1-1-1s-1 .5-1 1c-.1.5.4 1 1 1zm0 4.1c.6 0 1-.5 1-1 0-.6-.5-1-1-1s-1 .5-1 1c-.1.6.4 1 1 1zm0 4.2c.6 0 1-.5 1-1 0-.6-.5-1-1-1s-1 .5-1 1c-.1.5.4 1 1 1zm0 2.1c-.6 0-1 .5-1 1 0 .6.5 1 1 1s1-.5 1-1c0-.6-.4-1-1-1zm18.7-14.6c.6 0 1-.5 1-1 0-.6-.5-1-1-1s-1 .5-1 1c-.1.6.4 1 1 1zm0 4.2c.6 0 1-.5 1-1 0-.6-.5-1-1-1s-1 .5-1 1c-.1.5.4 1 1 1zm0 2c-.6 0-1 .5-1 1 0 .6.5 1 1 1s1-.5 1-1-.5-1-1-1z"/></svg>