<svg id="Layer_1" xmlns="http://www.w3.org/2000/svg" viewBox="0 0 108 108"><path d="M95 102.9c.1 0 5.9 3 13 3v2.1c-7.6 0-13.7-3.1-14-3.2-.1 0-5.9-3-13-3s-13 3-13 3c-.3.1-6.4 3.2-14 3.2s-13.7-3.1-14-3.2c-.1 0-5.9-3-13-3s-13 3-13 3c-.3.1-6.4 3.2-14 3.2v-2.1c7.1 0 13-3 13-3 .3-.1 6.4-3.2 14-3.2s13.7 3.1 14 3.2c.1 0 5.9 3 13 3s13-3 13-3c.3-.1 6.4-3.2 14-3.2s13.7 3.1 14 3.2zM81 87.2c-7.6 0-13.7 3.1-14 3.2-.1 0-5.9 3-13 3s-13-3-13-3c-.3-.1-6.4-3.2-14-3.2s-13.7 3.1-14 3.2c-.1 0-5.9 3-13 3v2.1c7.6 0 13.7-3.1 14-3.2.1 0 5.9-3 13-3s13 3 13 3c.3.1 6.4 3.2 14 3.2s13.7-3.1 14-3.2c.1 0 5.9-3 13-3s13 3 13 3c.3.1 6.4 3.2 14 3.2v-2.1c-7.1 0-13-3-13-3-.3-.1-6.4-3.2-14-3.2zm0-12.4c-7.6 0-13.7 3.1-14 3.2-.1 0-5.9 3-13 3s-13-3-13-3c-.3-.1-6.4-3.2-14-3.2S13.3 77.9 13 78c-.1 0-5.9 3-13 3v2.1c7.6 0 13.7-3.1 14-3.2.1 0 5.9-3 13-3s13 3 13 3c.3.1 6.4 3.2 14 3.2s13.7-3.1 14-3.2c.1 0 5.9-3 13-3s13 3 13 3c.3.1 6.4 3.2 14 3.2V81c-7.1 0-13-3-13-3-.3-.1-6.4-3.2-14-3.2zm0-12.5c-7.6 0-13.7 3.1-14 3.2-.1 0-5.9 3-13 3s-13-3-13-3c-.3-.1-6.4-3.2-14-3.2s-13.7 3.1-14 3.2c-.1 0-5.9 3-13 3v2.1c7.6 0 13.7-3.1 14-3.2.1 0 5.9-3 13-3s13 3 13 3c.3.1 6.4 3.2 14 3.2s13.7-3.1 14-3.2c.1 0 5.9-3 13-3s13 3 13 3c.3.1 6.4 3.2 14 3.2v-2.1c-7.1 0-13-3-13-3-.3-.1-6.4-3.2-14-3.2zm0-12.5c-7.6 0-13.7 3.1-14 3.2-.1 0-5.9 3-13 3s-13-3-13-3c-.3-.1-6.4-3.2-14-3.2S13.3 52.9 13 53c-.1 0-5.9 3-13 3v2.1c7.6 0 13.7-3.1 14-3.2.1 0 5.9-3 13-3s13 3 13 3c.3.1 6.4 3.2 14 3.2s13.7-3.1 14-3.2c.1 0 5.9-3 13-3s13 3 13 3c.3.1 6.4 3.2 14 3.2V56c-7.1 0-13-3-13-3-.3-.1-6.4-3.2-14-3.2zm0-12.4c-7.6 0-13.7 3.1-14 3.2-.1 0-5.9 3-13 3s-13-3-13-3c-.3-.1-6.4-3.2-14-3.2s-13.7 3.1-14 3.2c-.1 0-5.9 3-13 3v2.1c7.6 0 13.7-3.1 14-3.2.1 0 5.9-3 13-3s13 3 13 3c.3.1 6.4 3.2 14 3.2s13.7-3.1 14-3.2c.1 0 5.9-3 13-3s13 3 13 3c.3.1 6.4 3.2 14 3.2v-2.1c-7.1 0-13-3-13-3-.3-.1-6.4-3.2-14-3.2zm0-12.5c-7.6 0-13.7 3.1-14 3.2-.1 0-5.9 3-13 3s-13-3-13-3c-.3-.1-6.4-3.2-14-3.2S13.3 28 13 28.2c-.1 0-5.9 3-13 3v2.1c7.6 0 13.7-3.1 14-3.2.1 0 5.9-3 13-3s13 3 13 3c.3.1 6.4 3.2 14 3.2s13.7-3.1 14-3.2c.1 0 5.9-3 13-3s13 3 13 3c.3.1 6.4 3.2 14 3.2v-2.1c-7.1 0-13-3-13-3-.3-.2-6.4-3.3-14-3.3zm0-12.4c-7.6 0-13.7 3.1-14 3.2-.1 0-5.9 3-13 3s-13-3-13-3c-.3-.1-6.4-3.2-14-3.2s-13.7 3.1-14 3.2c-.1 0-5.9 3-13 3v2.1c7.6 0 13.7-3.1 14-3.2.1 0 5.9-3 13-3s13 3 13 3c.3.1 6.4 3.2 14 3.2s13.7-3.1 14-3.2c.1 0 5.9-3 13-3s13 3 13 3c.3.1 6.4 3.2 14 3.2v-2.1c-7.1 0-13-3-13-3-.3-.1-6.4-3.2-14-3.2zm14-9.3C94.7 3.1 88.6 0 81 0S67.3 3.1 67 3.2c-.1 0-5.9 3-13 3s-13-3-13-3C40.7 3.1 34.6 0 27 0S13.3 3.1 13 3.2c-.1 0-5.9 3-13 3v2.1c7.6 0 13.7-3.1 14-3.2.1 0 5.9-3 13-3s13 3 13 3c.3.1 6.4 3.2 14 3.2s13.7-3.1 14-3.2c.1 0 5.9-3 13-3s13 3 13 3c.3.1 6.4 3.2 14 3.2V6.2c-7.1 0-13-2.9-13-3zM82 44.7c0-.6-.5-1-1-1-.6 0-1 .5-1 1 0 .6.5 1 1 1 .6 0 1-.5 1-1zm0-26c0-.6-.5-1-1-1-.6 0-1 .5-1 1 0 .6.5 1 1 1 .6 0 1-.4 1-1zM28 57.1c0-.6-.5-1-1-1-.6 0-1 .5-1 1 0 .6.5 1 1 1 .6.1 1-.4 1-1zm27 6.2c0-.6-.5-1-1-1-.6 0-1 .5-1 1 0 .6.5 1 1 1 .6.1 1-.4 1-1zM28 94.5c0-.6-.5-1-1-1-.6 0-1 .5-1 1 0 .6.5 1 1 1 .6 0 1-.4 1-1zM82 82c0-.6-.5-1-1-1-.6 0-1 .5-1 1 0 .6.5 1 1 1 .6.1 1-.4 1-1zM2.1 88.3c0-.6-.5-1-1-1-.6 0-1 .5-1 1 0 .6.5 1 1 1s1-.5 1-1zm0-74.8c0-.6-.5-1-1-1-.6 0-1 .5-1 1 0 .6.5 1 1 1s1-.4 1-1zM55 26c0-.6-.5-1-1-1-.6 0-1 .5-1 1 0 .6.5 1 1 1 .6 0 1-.5 1-1zm0 12.4c0-.6-.5-1-1-1-.6 0-1 .5-1 1 0 .6.5 1 1 1 .6.1 1-.4 1-1zm-27-6.2c0-.6-.5-1-1-1-.6 0-1 .5-1 1 0 .6.5 1 1 1 .6 0 1-.4 1-1zm13.5 15.6c0-.6-.5-1-1-1-.6 0-1 .5-1 1 0 .6.5 1 1 1 .6 0 1-.5 1-1zm-27 0c0-.6-.5-1-1-1-.6 0-1 .5-1 1 0 .6.5 1 1 1 .6 0 1-.5 1-1zm55.1 24.9c0-.6-.5-1-1-1-.6 0-1 .5-1 1 0 .6.5 1 1 1s1-.4 1-1zM107 49.8c-.6 0-1 .5-1 1 0 .6.5 1 1 1 .6 0 1-.5 1-1s-.5-1-1-1zM69.6 97.6c0-.6-.5-1-1-1-.6 0-1 .5-1 1 0 .6.5 1 1 1 .5.1 1-.4 1-1zM55 100.7c0-.6-.5-1-1-1-.6 0-1 .5-1 1 0 .6.5 1 1 1 .6.1 1-.4 1-1zM28 82c0-.6-.5-1-1-1-.6 0-1 .5-1 1 0 .6.5 1 1 1 .6.1 1-.4 1-1zm13.5-71.6c0-.6-.5-1-1-1-.6 0-1 .5-1 1 0 .6.5 1 1 1 .6 0 1-.4 1-1z"/></svg>