<svg id="Layer_1" xmlns="http://www.w3.org/2000/svg" viewBox="0 0 108 108"><path d="M20.8 68.6h2.1V79h-2.1V68.6zm1-4.2c-.6 0-1 .5-1 1 0 .6.5 1 1 1s1-.5 1-1-.4-1-1-1zm-4.1 2.1c-.6 0-1 .5-1 1 0 .6.5 1 1 1s1-.5 1-1-.5-1-1-1zm0 4.2c-.6 0-1 .5-1 1 0 .6.5 1 1 1s1-.5 1-1c0-.6-.5-1-1-1zm8.3-4.2c-.6 0-1 .5-1 1 0 .6.5 1 1 1s1-.5 1-1-.5-1-1-1zm0 4.2c-.6 0-1 .5-1 1 0 .6.5 1 1 1s1-.5 1-1c0-.6-.5-1-1-1zm9.3 8.3h2.1V68.6h-2.1V79zm1-14.6c-.6 0-1 .5-1 1 0 .6.5 1 1 1s1-.5 1-1c.1-.5-.4-1-1-1zm-4.1 2.1c-.6 0-1 .5-1 1 0 .6.5 1 1 1 .6 0 1-.5 1-1s-.4-1-1-1zm0 4.2c-.6 0-1 .5-1 1 0 .6.5 1 1 1 .6 0 1-.5 1-1 0-.6-.4-1-1-1zm8.3-4.2c-.6 0-1 .5-1 1 0 .6.5 1 1 1s1-.5 1-1-.4-1-1-1zm0 4.2c-.6 0-1 .5-1 1 0 .6.5 1 1 1s1-.5 1-1c0-.6-.4-1-1-1zm9.3 8.3h2.1V68.6h-2.1V79zm1.1-14.6c-.6 0-1 .5-1 1 0 .6.5 1 1 1s1-.5 1-1-.4-1-1-1zm-4.2 2.1c-.6 0-1 .5-1 1 0 .6.5 1 1 1s1-.5 1-1c.1-.5-.4-1-1-1zm0 4.2c-.6 0-1 .5-1 1 0 .6.5 1 1 1s1-.5 1-1c.1-.6-.4-1-1-1zm8.3-4.2c-.6 0-1 .5-1 1 0 .6.5 1 1 1s1-.5 1-1c.1-.5-.4-1-1-1zm0 4.2c-.6 0-1 .5-1 1 0 .6.5 1 1 1s1-.5 1-1c.1-.6-.4-1-1-1zM36.8 44.6c-.8.8-2.2.8-2.9 0-.4-.4-1.1-.4-1.5 0-.4.4-.4 1.1 0 1.5.8.8 1.8 1.2 2.9 1.2 1.1 0 2.2-.4 2.9-1.2.4-.4.4-1.1 0-1.5-.4-.4-1-.4-1.4 0zm5.8-3v2.1c0 4-3.3 7.3-7.3 7.3S28 47.7 28 43.7v-2.1c0-4 3.3-7.3 7.3-7.3s7.3 3.3 7.3 7.3zm-2.1 0c0-2.9-2.3-5.2-5.2-5.2-2.9 0-5.2 2.3-5.2 5.2v2.1c0 2.9 2.3 5.2 5.2 5.2 2.9 0 5.2-2.3 5.2-5.2v-2.1zm27 0c0-.6-.5-1-1-1s-1 .5-1 1c0 .6.5 1 1 1s1-.4 1-1zM108 60.3v47.8H0V60.3h6.2V32c-1.9-1.3-3.1-3.5-3.1-6v-1h-.2L8.5-.1h91l5.7 25.1h-.3v1c0 2.5-1.2 4.6-3.1 6v28.3h6.2zM95.5 33c-1.8-.5-3.2-1.7-4.2-3.2-1.3 2.1-3.6 3.5-6.2 3.5s-5-1.4-6.2-3.5c-1.3 2.1-3.6 3.5-6.2 3.5s-5-1.4-6.2-3.5c-1.3 2.1-3.6 3.5-6.2 3.5s-5-1.4-6.2-3.5c-1.3 2.1-3.6 3.5-6.2 3.5s-5-1.4-6.2-3.5c-1.3 2.1-3.6 3.5-6.2 3.5s-5-1.4-6.2-3.5c-1.3 2.1-3.6 3.5-6.2 3.5s-5-1.4-6.2-3.5c-.9 1.5-2.4 2.7-4.2 3.2v27.3h11.7l1.1-4.4c.6-2.3 2.6-3.9 5-3.9h10.1c2.4 0 4.5 1.6 5 3.9l1.1 4.4h16.1c.7-1 1.5-2 2.4-2.9-3-3-4.7-7-4.7-11.2 0-4.6 2-9 5.6-12l.7-.6.7.6c3.5 3 5.6 7.4 5.6 12 0 4.2-1.7 8.3-4.7 11.2.9.9 1.7 1.9 2.4 2.9H75c.7-1 1.5-2 2.4-2.9-3-3-4.7-7-4.7-11.2 0-4.6 2-9 5.6-12l.7-.6.7.6c3.5 3 5.6 7.4 5.6 12 0 4.2-1.7 8.3-4.7 11.2.9.9 1.7 1.9 2.4 2.9h12.7V33zM80 63.4v3.1h3c-.3-2.7-1.9-5.6-4.1-7.7-2.2 2.2-3.8 5.1-4.1 7.7h3v-3.1H80zm-12.5 0v3.1h3c-.3-2.7-1.9-5.6-4.1-7.7-2.2 2.2-3.8 5.1-4.1 7.7h3v-3.1h2.2zm-5.2-16.3c.2 3.3 1.7 6.5 4.1 8.8 2.4-2.3 3.9-5.5 4.1-8.8-1.3.5-2.7.7-4.1.7-1.3 0-2.7-.2-4.1-.7zm4.2-1.3c1.4 0 2.8-.3 4.1-.8-.3-3.3-1.7-6.3-4.1-8.6-2.4 2.3-3.8 5.3-4.1 8.6 1.3.5 2.6.8 4.1.8zm8.3 1.3c.2 3.3 1.7 6.5 4.1 8.8 2.4-2.3 3.9-5.5 4.1-8.8-1.3.5-2.7.7-4.1.7-1.4 0-2.8-.2-4.1-.7zm4.1-1.3c1.4 0 2.8-.3 4.1-.8-.3-3.3-1.7-6.3-4.1-8.6-2.4 2.3-3.8 5.3-4.1 8.6 1.3.5 2.7.8 4.1.8zm-7.4 16.6c.8 1.7 1.2 3.5 1.2 5.2 0-1.7.4-3.5 1.2-5.2h-2.4zm-28.1-6c-.3-1.4-1.6-2.4-3-2.4H30.2c-1.4 0-2.7 1-3 2.4l-1 3.9h18.1l-.9-3.9zM17.7 26c0 2.9 2.3 5.2 5.2 5.2S28 28.9 28 26v-1H17.7v1zm72.6-1H80v1c0 2.9 2.3 5.2 5.2 5.2s5.2-2.3 5.2-5.2v-1zm-12.4 0H67.5v1c0 2.9 2.3 5.2 5.2 5.2s5.2-2.3 5.2-5.2v-1zm-12.5 0H55v1c0 2.9 2.3 5.2 5.2 5.2 2.9 0 5.2-2.3 5.2-5.2v-1zM53 25H42.6v1c0 2.9 2.3 5.2 5.2 5.2 2.9 0 5.2-2.3 5.2-5.2v-1zm-12.5 0H30.1v1c0 2.9 2.3 5.2 5.2 5.2 2.9 0 5.2-2.3 5.2-5.2v-1zm57.1 48.8c0 .6.5 1 1 1s1-.5 1-1V33c-.7.2-1.4.3-2.1.3v40.5zm5.2-48.8H92.4v1c0 2.9 2.3 5.2 5.2 5.2s5.2-2.3 5.2-5.2v-1zM5.5 22.9h97.1L97.8 2H10.2L5.5 22.9zm4.9 8.3c2.9 0 5.2-2.3 5.2-5.2v-1H5.2v1c0 2.9 2.3 5.2 5.2 5.2zM8.3 33v40.8c0 .6.5 1 1 1 .6 0 1-.5 1-1V33.3c-.6 0-1.3-.1-2-.3zm71.1 50.1H55v1c0 6.7 5.5 12.2 12.2 12.2s12.2-5.5 12.2-12.2v-1zm-26.4 0H28.6v1c0 6.7 5.5 12.2 12.2 12.2S53 90.9 53 84.2v-1.1zm-26.5 0H2.1v1c0 6.7 5.5 12.2 12.2 12.2s12.2-5.5 12.2-12.2v-1zm79.4 8.5c-2.5 4.1-7 6.9-12.2 6.9-6 0-11.1-3.7-13.2-8.9-2.1 5.2-7.3 8.9-13.2 8.9s-11.2-3.7-13.3-9c-2.1 5.2-7.3 8.9-13.2 8.9s-11.1-3.7-13.2-8.9c-2.1 5.2-7.3 8.9-13.2 8.9-5.2 0-9.7-2.8-12.2-6.9V106H106V91.6zm0-8.5H81.5v1c0 6.7 5.5 12.2 12.2 12.2s12.2-5.5 12.2-12.2v-1zm0-2V62.4h-4.2v11.4c0 1.7-1.4 3.1-3.1 3.1s-3.1-1.4-3.1-3.1V62.4H83.9c.8 1.7 1.2 3.5 1.2 5.2v1H60.2v-1c0-1.7.4-3.5 1.2-5.2h-49v11.4c0 1.7-1.4 3.1-3.1 3.1s-3.1-1.4-3.1-3.1V62.4H2.1v18.7h103.8zM80 41.6c0-.6-.5-1-1-1-.6 0-1 .5-1 1 0 .6.5 1 1 1s1-.4 1-1zm-60.3 59.2c-.6 0-1 .5-1 1 0 .6.5 1 1 1s1-.5 1-1c.1-.5-.4-1-1-1zm6.3 0c-.6 0-1 .5-1 1 0 .6.5 1 1 1s1-.5 1-1-.5-1-1-1zm6.2 0c-.6 0-1 .5-1 1 0 .6.5 1 1 1 .6 0 1-.5 1-1s-.4-1-1-1zm6.2 0c-.6 0-1 .5-1 1 0 .6.5 1 1 1s1-.5 1-1c.1-.5-.4-1-1-1zm6.3 0c-.6 0-1 .5-1 1 0 .6.5 1 1 1s1-.5 1-1-.5-1-1-1zm6.2 0c-.6 0-1 .5-1 1 0 .6.5 1 1 1s1-.5 1-1-.4-1-1-1zm6.2 0c-.6 0-1 .5-1 1 0 .6.5 1 1 1s1-.5 1-1c.1-.5-.4-1-1-1zm6.2 0c-.6 0-1 .5-1 1 0 .6.5 1 1 1s1-.5 1-1c.1-.5-.4-1-1-1zm6.3 0c-.6 0-1 .5-1 1 0 .6.5 1 1 1s1-.5 1-1-.4-1-1-1zm6.2 0c-.6 0-1 .5-1 1 0 .6.5 1 1 1s1-.5 1-1-.4-1-1-1zm6.2 0c-.6 0-1 .5-1 1 0 .6.5 1 1 1s1-.5 1-1c.1-.5-.4-1-1-1zm6.3 0c-.6 0-1 .5-1 1 0 .6.5 1 1 1s1-.5 1-1-.5-1-1-1zm6.2 0c-.6 0-1 .5-1 1 0 .6.5 1 1 1s1-.5 1-1-.4-1-1-1zm6.2 0c-.6 0-1 .5-1 1 0 .6.5 1 1 1s1-.5 1-1c.1-.5-.4-1-1-1zm-87.2 0c-.6 0-1 .5-1 1 0 .6.5 1 1 1s1-.5 1-1-.4-1-1-1zm-6.2 0c-.6 0-1 .5-1 1 0 .6.5 1 1 1s1-.5 1-1-.5-1-1-1z"/></svg>