<svg id="Layer_1" xmlns="http://www.w3.org/2000/svg" viewBox="0 0 108 108"><path d="M54 0C24.2 0 0 24.2 0 54s24.2 54 54 54 54-24.2 54-54S83.8 0 54 0zm0 105.9C25.4 105.9 2.1 82.6 2.1 54S25.4 2.1 54 2.1c28.6 0 51.9 23.3 51.9 51.9S82.6 105.9 54 105.9zm0-93.4c-22.9 0-41.5 18.6-41.5 41.5S31.1 95.5 54 95.5 95.5 76.9 95.5 54 76.9 12.5 54 12.5zm0 81c-21.8 0-39.5-17.7-39.5-39.5S32.2 14.5 54 14.5 93.5 32.2 93.5 54 75.8 93.5 54 93.5zm0-68.6c-16 0-29.1 13-29.1 29.1S38 83.1 54 83.1s29.1-13 29.1-29.1S70 24.9 54 24.9zM54 81c-14.9 0-27-12.1-27-27s12.1-27 27-27 27 12.1 27 27-12.1 27-27 27zm0-43.6c-9.2 0-16.6 7.5-16.6 16.6S44.8 70.6 54 70.6c9.2 0 16.6-7.5 16.6-16.6S63.2 37.4 54 37.4zm0 31.1c-8 0-14.5-6.5-14.5-14.5S46 39.5 54 39.5 68.5 46 68.5 54 62 68.5 54 68.5zm47.8-63.3c0-.6.5-1 1-1s1 .5 1 1c0 .6-.5 1-1 1s-1-.4-1-1zm-6.3 0c0-.6.5-1 1-1 .6 0 1 .5 1 1 0 .6-.5 1-1 1s-1-.4-1-1zm6.3 6.2c0-.6.5-1 1-1s1 .5 1 1c0 .6-.5 1-1 1s-1-.4-1-1zM4.2 5.2c0-.6.5-1 1-1s1 .5 1 1c0 .6-.5 1-1 1s-1-.4-1-1zM8.3 54c0 .6-.5 1-1 1s-1-.5-1-1c0-.6.5-1 1-1s1 .4 1 1zm22.2 23.5c.4.4.4 1.1 0 1.5-.4.4-1.1.4-1.5 0-.4-.4-.4-1.1 0-1.5.4-.4 1.1-.4 1.5 0zm47-47c-.4-.4-.4-1.1 0-1.5.4-.4 1.1-.4 1.5 0 .4.4.4 1.1 0 1.5-.4.4-1.1.4-1.5 0zm-48.5 0c-.4-.4-.4-1.1 0-1.5.4-.4 1.1-.4 1.5 0 .4.4.4 1.1 0 1.5-.4.4-1.1.4-1.5 0zm50 47c.4.4.4 1.1 0 1.5-.4.4-1.1.4-1.5 0-.4-.4-.4-1.1 0-1.5.4-.4 1.1-.4 1.5 0zM101.8 54c0 .6-.5 1-1 1-.6 0-1-.5-1-1 0-.6.5-1 1-1s1 .4 1 1zm-40.5 0c0 .6-.5 1-1 1-.6 0-1-.5-1-1 0-.6.5-1 1-1s1 .4 1 1zM55 54c0 .6-.5 1-1 1s-1-.5-1-1c0-.6.5-1 1-1s1 .4 1 1zm-6.2 0c0 .6-.5 1-1 1-.6 0-1-.5-1-1 0-.6.5-1 1-1s1 .4 1 1zm6.2-6.2c0 .6-.5 1-1 1s-1-.5-1-1c0-.6.5-1 1-1s1 .4 1 1zm0 12.4c0 .6-.5 1-1 1s-1-.5-1-1c0-.6.5-1 1-1s1 .5 1 1zM53 7.3c0-.6.5-1 1-1s1 .5 1 1c0 .6-.5 1-1 1s-1-.5-1-1zm2 93.4c0 .6-.5 1-1 1s-1-.5-1-1c0-.6.5-1 1-1s1 .5 1 1zm-34.8-79c-.4-.4-.4-1.1 0-1.5.4-.4 1.1-.4 1.5 0 .4.4.4 1.1 0 1.5-.4.4-1.1.4-1.5 0zm67.6 64.6c.4.4.4 1.1 0 1.5-.4.4-1.1.4-1.5 0-.4-.4-.4-1.1 0-1.5.4-.4 1.1-.4 1.5 0zm-1.5-64.6c-.4-.4-.4-1.1 0-1.5.4-.4 1.1-.4 1.5 0 .4.4.4 1.1 0 1.5-.4.4-1.1.4-1.5 0zM21.7 86.3c.4.4.4 1.1 0 1.5s-1.1.4-1.5 0-.4-1.1 0-1.5c.4-.4 1.1-.4 1.5 0zM10.4 5.2c0-.6.5-1 1-1 .6 0 1 .5 1 1 0 .6-.5 1-1 1-.6 0-1-.4-1-1zm-6.2 6.2c0-.6.5-1 1-1s1 .5 1 1c0 .6-.5 1-1 1s-1-.4-1-1zm99.6 91.4c0 .6-.5 1-1 1s-1-.5-1-1c0-.6.5-1 1-1s1 .4 1 1zm-6.2 0c0 .6-.5 1-1 1-.6 0-1-.5-1-1 0-.6.5-1 1-1 .6 0 1 .4 1 1zm6.2-6.2c0 .6-.5 1-1 1s-1-.5-1-1c0-.6.5-1 1-1s1 .4 1 1zm-97.6 6.2c0 .6-.5 1-1 1s-1-.5-1-1c0-.6.5-1 1-1s1 .4 1 1zm6.3 0c0 .6-.5 1-1 1-.6 0-1-.5-1-1 0-.6.5-1 1-1s1 .4 1 1zm-6.3-6.2c0 .6-.5 1-1 1s-1-.5-1-1c0-.6.5-1 1-1s1 .4 1 1z"/></svg>