<svg id="Layer_1" xmlns="http://www.w3.org/2000/svg" viewBox="0 0 108 108"><path d="M6.2 76.8h8.3V58.2H6.2v18.6zm2.1-16.6h4.2v14.5H8.3V60.2zM6.2 99.7h8.3V83.1H6.2v16.6zm2.1-14.5h4.2v12.5H8.3V85.2zm10.4-8.4H27V58.2h-8.3v18.6zm2.1-16.6H25v14.5h-4.2V60.2zm62.3-15.9v13.9H33.2V24.9H14.5v-6.2H6.2v6.2H0V108h108.1V44.3L95.5 28.4 83.1 44.3zm2.1.7l9.3-11.9v19.5l-9.3 11.9V45zm-2.1 15.2V81H33.2V60.2h49.9zM8.3 35.3h4.2v6.2H8.3v-6.2zm0-14.5h4.2v12.5H8.3V20.8zM2.1 27h4.2v16.6h8.3V27h16.6v20.8H2.1V27zm18.7 78.9v-2.1H25v2.1h-4.2zm4.1-8.3h-4.2V85.2h4.2v12.4zm0 2.1v2.1h-4.2v-2.1h4.2zm6.3 6.2H27V83.1h-8.3V106H2.1V49.8h29.1v56.1zm41.5 0V89.3h4.2v16.6h-4.2zm10.4 0h-4.2V87.2h-8.3v18.7H33.2V83.1H83v22.8zm10.4 0V93.5h4.2V106h-4.2zm12.4-38V106h-6.2V91.4h-8.3v14.5h-6.2v-38l10.4-13.2 10.3 13.2zm0-3.4l-9.3-11.9V33.1l9.3 11.9v19.5zm-6.2 14.4V66.5h-8.3v18.7h8.3v-6.3zm-6.2-10.4h4.2v8.3h-4.2v-8.3zm4.1 14.6h-4.2v-4.2h4.2v4.2zM108 20.8v16.6h-2.1V22.8H85.2v-1c0-.7 0-1.4-.1-2.1 0-.3-.1-.6-.1-.9-1.5-9.1-9.1-16.2-18.5-16.7v22.8h-8.3v-13l-8.3 8.3v27.6h-8.3v-27h-6.2V2.1H24.9v10.4H2.1v8.3H0V10.4h22.8V0h14.5v18.7h6.2v27h4.2V19.3L58.2 8.9V0h2.1v22.8h4.2V0h1c11.7 0 21.2 9.2 21.8 20.7H108zm-37.4-5.2c0-.6.5-1 1-1s1 .5 1 1c0 .6-.5 1-1 1s-1-.4-1-1zm0-4.2c0-.6.5-1 1-1s1 .5 1 1c0 .6-.5 1-1 1s-1-.4-1-1zm0-4.1c0-.6.5-1 1-1s1 .5 1 1c0 .6-.5 1-1 1s-1-.5-1-1zm4.2 12.4c0-.6.5-1 1-1s1 .5 1 1c0 .6-.5 1-1 1s-1-.4-1-1zm0-8.3c0-.6.5-1 1-1s1 .5 1 1c0 .6-.5 1-1 1s-1-.4-1-1zm4.1 8.3c0-.6.5-1 1-1s1 .5 1 1c0 .6-.5 1-1 1s-1-.4-1-1zm-8.3 4.2c0-.6.5-1 1-1s1 .5 1 1c0 .6-.5 1-1 1s-1-.4-1-1zm0 8.3c0-.6.5-1 1-1s1 .5 1 1c0 .6-.5 1-1 1s-1-.4-1-1zm4.2 0c0-.6.5-1 1-1s1 .5 1 1c0 .6-.5 1-1 1s-1-.4-1-1zm4.1 0c0-.6.5-1 1-1s1 .5 1 1c0 .6-.5 1-1 1s-1-.4-1-1zm0-4.2c0-.6.5-1 1-1s1 .5 1 1c0 .6-.5 1-1 1s-1-.4-1-1zm9.4 1.1c-.6 0-1-.5-1-1 0-.6.5-1 1-1 .6 0 1 .5 1 1s-.5 1-1 1zm-4.2 4.1c-.6 0-1-.5-1-1 0-.6.5-1 1-1s1 .5 1 1c.1.6-.4 1-1 1zM53 21.8c0-.6.5-1 1-1s1 .5 1 1c0 .6-.5 1-1 1s-1-.4-1-1zm0 4.2c0-.6.5-1 1-1s1 .5 1 1c0 .6-.5 1-1 1s-1-.5-1-1zm0 4.1c0-.6.5-1 1-1s1 .5 1 1c0 .6-.5 1-1 1s-1-.4-1-1zm0 4.2c0-.6.5-1 1-1s1 .5 1 1c0 .6-.5 1-1 1s-1-.5-1-1zm0 8.3c0-.6.5-1 1-1s1 .5 1 1c0 .6-.5 1-1 1s-1-.4-1-1zm4.1 0c0-.6.5-1 1-1s1 .5 1 1c0 .6-.5 1-1 1s-1-.4-1-1zm4.2 0c0-.6.5-1 1-1 .6 0 1 .5 1 1 0 .6-.5 1-1 1-.6 0-1-.4-1-1zm-4.2 4.1c0-.6.5-1 1-1s1 .5 1 1c0 .6-.5 1-1 1s-1-.4-1-1zm4.2 0c0-.6.5-1 1-1 .6 0 1 .5 1 1 0 .6-.5 1-1 1-.6.1-1-.4-1-1zM53 50.9c0-.6.5-1 1-1s1 .5 1 1c0 .6-.5 1-1 1s-1-.4-1-1zM23.9 18.7c-.6 0-1-.5-1-1 0-.6.5-1 1-1 .6 0 1 .5 1 1s-.4 1-1 1zm-4.2 0c-.6 0-1-.5-1-1 0-.6.5-1 1-1 .6 0 1 .5 1 1 .1.5-.4 1-1 1zm55.1 5.2c0-.6.5-1 1-1s1 .5 1 1c0 .6-.5 1-1 1s-1-.4-1-1zm0 4.1c0-.6.5-1 1-1s1 .5 1 1c0 .6-.5 1-1 1s-1-.4-1-1zM27 5.2c0-.6.5-1 1-1s1 .5 1 1c0 .6-.5 1-1 1s-1-.4-1-1zm0 4.1c0-.6.5-1 1-1s1 .5 1 1c0 .6-.5 1-1 1s-1-.4-1-1zm4.2 0c0-.6.5-1 1-1 .6 0 1 .5 1 1 0 .6-.5 1-1 1-.6.1-1-.4-1-1zm0 4.2c0-.6.5-1 1-1 .6 0 1 .5 1 1 0 .6-.5 1-1 1-.6 0-1-.4-1-1zm0 4.2c0-.6.5-1 1-1 .6 0 1 .5 1 1 0 .6-.5 1-1 1-.6 0-1-.5-1-1zm-4.2 0c0-.6.5-1 1-1s1 .5 1 1c0 .6-.5 1-1 1s-1-.5-1-1zm0-4.2c0-.6.5-1 1-1s1 .5 1 1c0 .6-.5 1-1 1s-1-.4-1-1zm17.7 88.3c4 0 7.3-3.3 7.3-7.3s-3.3-7.3-7.3-7.3-7.3 3.3-7.3 7.3 3.2 7.3 7.3 7.3zm0-12.5c2.9 0 5.2 2.3 5.2 5.2s-2.3 5.2-5.2 5.2-5.2-2.3-5.2-5.2 2.3-5.2 5.2-5.2zm16.6 12.5c4 0 7.3-3.3 7.3-7.3s-3.3-7.3-7.3-7.3-7.3 3.3-7.3 7.3 3.3 7.3 7.3 7.3zm0-12.5c2.9 0 5.2 2.3 5.2 5.2s-2.3 5.2-5.2 5.2-5.2-2.3-5.2-5.2 2.3-5.2 5.2-5.2z"/></svg>