<svg id="Layer_1" xmlns="http://www.w3.org/2000/svg" viewBox="0 0 108 108"><path d="M34.3 73.7c0 .6-.5 1-1 1s-1-.5-1-1c0-.6.5-1 1-1s1 .5 1 1zm-10.2 27.9l4.6 4.6c.4.4.4 1.1 0 1.5-.2.2-.5.3-.7.3s-.5-.1-.7-.3l-4.5-4.5v3.7c0 .6-.5 1-1 1s-1-.5-1-1v-5.2c-8.1-.5-14.5-7.3-14.5-15.5V77c-2.4.5-4.2 2.6-4.2 5.1v1H0v-1c0-4 3.3-7.3 7.3-7.3 3.7 0 6.7 2.7 7.2 6.2h8.4c.5-6.6 5.7-11.8 12.3-12.4-.4-1.2-1.6-2.1-3-2.1H26v-2.1h6.2c.5 0 1 .1 1.4.2-1.5-2-3.9-3.3-6.6-3.3h-1v-2.1h1c5.7 0 10.4 4.7 10.4 10.4v3.1h4.2v2.1h-4.2v11.4c0 7.8-5.8 14.3-13.3 15.4zM12.5 83.1H8.4c.5 3.5 3.5 6.2 7.2 6.2s6.7-2.7 7.2-6.2H12.5zM8.3 81h4c-.4-2-2-3.6-4-4v4zm27 5.2V70.7c-5.5.5-9.8 4.8-10.3 10.3h5.1v2.1h-5.3c-.5 4.7-4.5 8.3-9.3 8.3-2.9 0-5.4-1.3-7.1-3.3.9 6.6 6.6 11.6 13.4 11.6 7.5 0 13.5-6.1 13.5-13.5zM54 39.5c-.6 0-1 .5-1 1 0 .6.5 1 1 1s1-.5 1-1c0-.6-.4-1-1-1zm53 4.1h1v21.8c0 16.3-13 29.5-29.1 30.1V107c0 .6-.5 1-1 1s-1-.5-1-1V97l-10.7 10.7c-.2.2-.5.3-.7.3-.3 0-.5-.1-.7-.3-.4-.4-.4-1.1 0-1.5l10.8-10.8c-15.5-1.2-27.7-14.2-27.7-30V41.6h-8.3v-2.1h8.3v-7.2c0-5.2 4.2-9.3 9.3-9.3h1v2.1h-1c-3.7 0-6.7 2.7-7.2 6.3 13.5.6 24.3 11.4 24.8 24.9h18.7c.5-7.2 6.4-12.7 13.5-12.7zM93.5 58.2H74.8c.5 8.1 7.3 14.5 15.5 14.5s15-6.4 15.5-14.5H93.5zm12.4 7.2c-3 5.6-8.8 9.3-15.6 9.3-9.4 0-17.1-7.4-17.6-16.6H62.3V56h10.4c-.5-12.3-10.5-22.3-22.8-22.8v32.1c0 15.5 12.6 28 28 28s28-12.4 28-27.9zm0-9.3V45.8c-5.5.5-9.8 4.9-10.3 10.3h10.3zM30.1 23.9c.6 0 1-.5 1-1 0-.6-.5-1-1-1s-1 .5-1 1 .4 1 1 1zM0 11.4V0h1c3.7 0 6.7 2.7 7.2 6.2h10.5c9.2 0 16.6 7.5 16.6 16.6v1.9c1.2-.4 2.1-1.6 2.1-2.9v-1h2.1v1c0 2.9-2.3 5.2-5.2 5.2h-3.1v4.2h-2.1V27h-11l4.5 4.5c.4.4.4 1.1 0 1.5-.2.2-.5.3-.7.3-.3 0-.5-.1-.7-.3l-4.5-4.5v3.7c0 .6-.5 1-1 1s-1-.5-1-1V27C6.4 26.4 0 19.7 0 11.4zm18.7-3.1c-.6 4.7-4.5 8.3-9.3 8.3-2.9 0-5.4-1.3-7.1-3.3.9 6.6 6.6 11.6 13.4 11.6h17.7v-2.1c-.2-8-6.7-14.5-14.7-14.5zm-9.4 6.3c3.7 0 6.7-2.7 7.2-6.2H2.2c.5 3.4 3.5 6.2 7.1 6.2zM2.1 6.2h4c-.4-2-2-3.6-4-4v4zM0 63.4c0-3.1 2.3-5.7 5.3-6.2.5-3 3-5.3 6.2-5.3 3.1 0 5.6 2.3 6.1 5.2h4.2v2.1h-4.2v4.2c0 3.4-2.8 6.2-6.2 6.2h-.6l1.3 1.3c.4.4.4 1.1 0 1.5-.2.2-.5.3-.7.3-.3 0-.5-.1-.7-.3l-2.8-2.8H6.2v2.1c0 .6-.5 1-1 1s-1-.5-1-1v-2.4C1.7 68.4 0 66.1 0 63.4zm2.1 0c0 1.3.6 2.5 1.6 3.2 1-.8 1.6-2 1.6-3.2h2.1c0 1.5-.6 3-1.6 4.1h5.7c2.3 0 4.2-1.9 4.2-4.2v-5.2c0-2.3-1.9-4.2-4.2-4.2s-4.2 1.9-4.2 4.2v1h-1c-2.4.1-4.2 2-4.2 4.3zm10.4-4.2c.6 0 1-.5 1-1 0-.6-.5-1-1-1s-1 .5-1 1c-.1.5.4 1 1 1zM27 51.9h-.6l1.3 1.3c.4.4.4 1.1 0 1.5-.2.2-.5.3-.7.3s-.5-.1-.7-.3l-2.8-2.8h-1.6V54c0 .6-.5 1-1 1s-1-.5-1-1v-2.4c-2.4-.9-4.2-3.2-4.2-5.9 0-3.1 2.3-5.7 5.3-6.2.5-3 3-5.3 6.2-5.3 3.1 0 5.6 2.3 6.1 5.2h4.2v2.1h-4.2v4.2c-.1 3.4-2.9 6.2-6.3 6.2zm-5.2-2H27c2.3 0 4.2-1.9 4.2-4.2v-5.2c0-2.3-1.9-4.2-4.2-4.2s-4.2 1.9-4.2 4.2v1h-1c-2.3 0-4.2 1.9-4.2 4.2 0 1.3.6 2.5 1.6 3.2 1-.8 1.6-2 1.6-3.2h2.1c0 1.5-.6 3-1.6 4.1.1 0 .3.1.5.1zm6.2-8.3c.6 0 1-.5 1-1 0-.6-.5-1-1-1s-1 .5-1 1 .5 1 1 1zm8.3-30.2c0-3.1 2.3-5.7 5.3-6.2.5-3 3-5.3 6.2-5.3 3.1 0 5.6 2.3 6.1 5.2h4.2v2.1H54v4.2c0 3.4-2.8 6.2-6.2 6.2h-.6l1.3 1.3c.4.4.4 1.1 0 1.5-.2.2-.5.3-.7.3-.3 0-.5-.1-.7-.3l-2.8-2.8h-1.6v2.1c0 .6-.5 1-1 1s-1-.5-1-1v-2.4c-2.6-.9-4.4-3.2-4.4-5.9zm2.1 0c0 1.3.6 2.5 1.6 3.2 1-.8 1.6-2 1.6-3.2h2.1c0 1.5-.6 3-1.6 4.1h5.7c2.3 0 4.2-1.9 4.2-4.2v-5c0-2.3-1.9-4.2-4.2-4.2-2.3 0-4.2 1.9-4.2 4.2v1h-1c-2.3 0-4.2 1.8-4.2 4.1zm10.4-4.1c.6 0 1-.5 1-1 0-.6-.5-1-1-1s-1 .5-1 1 .4 1 1 1zM108 5.4v10.4l-2.1-.5v9.6h-4.2v6.2h-2.1v-6.2H89.3v10.5c2.9.5 5.2 3.1 5.2 6.1 0 2.7-1.7 5-4.2 5.9v2.4c0 .6-.5 1-1 1s-1-.5-1-1v-2.1h-1.6l-2.8 2.8c-.2.2-.5.3-.7.3-.3 0-.5-.1-.7-.3-.4-.4-.4-1.1 0-1.5l1.3-1.3h-.6c-3.4 0-6.2-2.8-6.2-6.2v-4.2h-4.2v-2.1H77c.2-1.4 1-2.7 2-3.6v-6.8H68.5V31h-2.1v-6.2h-4.2v-9.6l-2.1.5V5.4l24-5.4L108 5.4zm-45.7 7.9l20.8-4.7V2.4L62.3 7.1v6.2zm26 24.1h-1v-1c0-2.3-1.9-4.2-4.2-4.2-2.3 0-4.2 1.9-4.2 4.2v5.2c0 2.3 1.9 4.2 4.2 4.2h5.7c-1-1.1-1.6-2.6-1.6-4.1h2.1c0 1.3.6 2.5 1.6 3.2.9-.8 1.6-1.9 1.6-3.2-.1-2.4-1.9-4.3-4.2-4.3zm-1.1-12.5H81v5.6c.7-.2 1.3-.4 2.1-.4 1.6 0 3.1.6 4.2 1.6v-6.8zm0-9.3H81v7.3h6.2v-7.3zm16.6-.7l-19.7-4.5-19.7 4.5v8h14.5v-9.3h10.4v9.3h14.5v-8zm2.1-7.8L85.2 2.4v6.2l20.8 4.7V7.1zM82 35.3c-.6 0-1 .5-1 1 0 .6.5 1 1 1s1-.5 1-1c.1-.5-.4-1-1-1zM39.5 96.6c0 .6.5 1 1 1s1-.5 1-1c0-.6-.5-1-1-1s-1 .4-1 1zm5.2 1c.6 0 1-.5 1-1 0-.6-.5-1-1-1s-1 .5-1 1c-.1.6.4 1 1 1zm4.1 0c.6 0 1-.5 1-1 0-.6-.5-1-1-1s-1 .5-1 1c0 .6.4 1 1 1zm-2.1-6.2c-.6 0-1 .5-1 1 0 .6.5 1 1 1s1-.5 1-1c.1-.5-.4-1-1-1zm-4.1 0c-.6 0-1 .5-1 1 0 .6.5 1 1 1s1-.5 1-1-.4-1-1-1zm2.1-4.2c-.6 0-1 .5-1 1 0 .6.5 1 1 1s1-.5 1-1-.5-1-1-1zM53 97.6c.6 0 1-.5 1-1 0-.6-.5-1-1-1s-1 .5-1 1c-.1.6.4 1 1 1zm-2.1-6.2c-.6 0-1 .5-1 1 0 .6.5 1 1 1s1-.5 1-1-.4-1-1-1zm-2.1-4.2c-.6 0-1 .5-1 1 0 .6.5 1 1 1s1-.5 1-1-.4-1-1-1zm-13.5-55c0-.6-.5-1-1-1s-1 .5-1 1c0 .6.5 1 1 1s1-.4 1-1zm3.1-1c-.6 0-1 .5-1 1 0 .6.5 1 1 1s1-.5 1-1c.1-.6-.4-1-1-1zm-2.1 4.1c-.6 0-1 .5-1 1 0 .6.5 1 1 1s1-.5 1-1c.1-.5-.4-1-1-1zm4.2 2.1c.6 0 1-.5 1-1 0-.6-.5-1-1-1s-1 .5-1 1 .4 1 1 1zm-4.2 62.3h20.8v4.2c0 2.3-1.9 4.2-4.2 4.2H40.5c-2.3 0-4.2-1.9-4.2-4.2v-4.2zm2.1 4.2c0 1.1.9 2.1 2.1 2.1H53c1.1 0 2.1-.9 2.1-2.1v-2.1H38.4v2.1z"/></svg>