<svg id="Layer_1" xmlns="http://www.w3.org/2000/svg" viewBox="0 0 108 108"><path d="M12.5 19.7H0v-2.1h12.5v2.1zm83-2v2.1H108v-2.1H95.5zM12.5 53H0v2h12.5v-2zm83 2H108v-2H95.5v2zM0 90.3h12.5v-2.1H0v2.1zm95.5 0H108v-2.1H95.5v2.1zM90.3 0h-2.1v12.5h2.1V0zm0 24.9h-2.1v10.4H77.9v2.1h10.4v10.4h2.1V37.4H108v-2.1H90.3V24.9zm0 35.3h-2.1v10.4H77.9v2.1h10.4V81h2.1v-8.3H108v-2.1H90.3V60.2zm-2 47.8h2.1V95.5h-2.1V108zM55 0h-2v12.5h2V0zm-2 108h2V95.5h-2V108zM19.7 0h-2.1v12.5h2.1V0zm-2 47.8h2.1V37.4h10.4v-2.1H19.7V24.9h-2.1v10.4H0v2.1h17.7v10.4zm0 60.2h2.1V95.5h-2.1V108zm1-88.3c.6 0 1-.5 1-1 0-.6-.5-1-1-1-.6 0-1 .5-1 1 0 .6.4 1 1 1zm23.9 17.7H53v10.4h2V37.4h10.4v-2.1H55V24.9h-2v10.4H42.6v2.1zm-5.2-1.1c0-.6-.5-1-1-1s-1 .5-1 1c0 .6.5 1 1 1s1-.4 1-1zm35.3 0c0-.6-.5-1-1-1s-1 .5-1 1c0 .6.5 1 1 1s1-.4 1-1zM30.1 72.7v-2.1H19.7V60.2h-2.1v10.4H0v2.1h17.7V81h2.1v-8.3h10.3zm40.5-42.6h2.1V19.7H81v-2.1h-8.3V0h-2.1v17.7H60.2v2.1h10.4v10.3zm-35.3 0h2.1V19.7h10.4v-2.1H37.4V0h-2.1v17.7H24.9v2.1h10.4v10.3zM37.4 55h10.4v-2H37.4V42.6h-2.1V53H24.9v2h10.4v10.4h2.1V55zm0 22.9h-2.1v10.4H24.9v2.1h10.4V108h2.1V90.3h10.4v-2.1H37.4V77.9zm-2.1-6.2c0 .6.5 1 1 1s1-.5 1-1c0-.6-.5-1-1-1s-1 .4-1 1zm30.1-1.1H55V60.2h-2v10.4H42.6v2.1H53V81h2v-8.3h10.4v-2.1zM72.7 55H81v-2h-8.3V42.6h-2.1V53H60.2v2h10.4v10.4h2.1V55zm0 22.9h-2.1v10.4H60.2v2.1h10.4V108h2.1V90.3H81v-2.1h-8.3V77.9zm-2.1-6.2c0 .6.5 1 1 1s1-.5 1-1c0-.6-.5-1-1-1s-1 .4-1 1zM54 19.7c.6 0 1-.5 1-1 0-.6-.5-1-1-1s-1 .5-1 1c0 .6.4 1 1 1zm34.3 0c.6 0 1-.5 1-1 0-.6-.5-1-1-1-.6 0-1 .5-1 1-.1.6.4 1 1 1zM17.7 54c0 .6.5 1 1 1 .6 0 1-.5 1-1 0-.6-.5-1-1-1-.6 0-1 .4-1 1zM53 54c0 .6.5 1 1 1s1-.5 1-1c0-.6-.5-1-1-1s-1 .4-1 1zm36.3 0c0-.6-.5-1-1-1-.6 0-1 .5-1 1 0 .6.5 1 1 1s1-.4 1-1zM18.7 88.3c-.6 0-1 .5-1 1 0 .6.5 1 1 1 .6 0 1-.5 1-1 0-.6-.4-1-1-1zm35.3 0c-.6 0-1 .5-1 1 0 .6.5 1 1 1s1-.5 1-1c0-.6-.4-1-1-1zm35.3 1c0-.6-.5-1-1-1-.6 0-1 .5-1 1 0 .6.5 1 1 1s1-.4 1-1zm13.5-83.1c.6 0 1-.5 1-1 0-.6-.5-1-1-1s-1 .5-1 1c0 .6.4 1 1 1zm-6.2 0c.6 0 1-.5 1-1 0-.6-.5-1-1-1-.6 0-1 .5-1 1-.1.6.4 1 1 1zm6.2 6.3c.6 0 1-.5 1-1 0-.6-.5-1-1-1s-1 .5-1 1 .4 1 1 1zM5.2 6.2c.6 0 1-.5 1-1 0-.6-.5-1-1-1s-1 .5-1 1c0 .6.4 1 1 1zm6.2 0c.6 0 1-.5 1-1 0-.6-.5-1-1-1-.6 0-1 .5-1 1 0 .6.4 1 1 1zm-6.2 6.3c.6 0 1-.5 1-1 0-.6-.5-1-1-1s-1 .5-1 1 .4 1 1 1zm97.6 89.3c-.6 0-1 .5-1 1 0 .6.5 1 1 1s1-.5 1-1c0-.6-.4-1-1-1zm-6.2 0c-.6 0-1 .5-1 1 0 .6.5 1 1 1 .6 0 1-.5 1-1 0-.6-.4-1-1-1zm6.2-6.3c-.6 0-1 .5-1 1 0 .6.5 1 1 1s1-.5 1-1-.4-1-1-1zm-97.6 6.3c-.6 0-1 .5-1 1 0 .6.5 1 1 1s1-.5 1-1c0-.6-.4-1-1-1zm6.2 0c-.6 0-1 .5-1 1 0 .6.5 1 1 1 .6 0 1-.5 1-1 .1-.6-.4-1-1-1zm-6.2-6.3c-.6 0-1 .5-1 1 0 .6.5 1 1 1s1-.5 1-1-.4-1-1-1z"/></svg>