<svg id="Layer_1" xmlns="http://www.w3.org/2000/svg" viewBox="0 0 108 108"><path d="M6.2 97.6h2.1V108H6.2V97.6zm1.1-4.1c-.6 0-1 .5-1 1 0 .6.5 1 1 1s1-.5 1-1c0-.6-.5-1-1-1zm-4.2 2c-.6 0-1 .5-1 1 0 .6.5 1 1 1s1-.5 1-1c.1-.5-.4-1-1-1zm0 4.2c-.6 0-1 .5-1 1 0 .6.5 1 1 1s1-.5 1-1c.1-.5-.4-1-1-1zm8.3-4.2c-.6 0-1 .5-1 1 0 .6.5 1 1 1s1-.5 1-1c.1-.5-.4-1-1-1zm0 4.2c-.6 0-1 .5-1 1 0 .6.5 1 1 1s1-.5 1-1c.1-.5-.4-1-1-1zm88.3 8.3h2.1V97.6h-2.1V108zm1-14.5c-.6 0-1 .5-1 1 0 .6.5 1 1 1s1-.5 1-1c.1-.6-.4-1-1-1zm-4.1 2c-.6 0-1 .5-1 1 0 .6.5 1 1 1s1-.5 1-1-.4-1-1-1zm0 4.2c-.6 0-1 .5-1 1 0 .6.5 1 1 1s1-.5 1-1-.4-1-1-1zm8.3-4.2c-.6 0-1 .5-1 1 0 .6.5 1 1 1s1-.5 1-1-.4-1-1-1zm0 4.2c-.6 0-1 .5-1 1 0 .6.5 1 1 1s1-.5 1-1-.4-1-1-1zM68.5 108h2.1V97.6h-2.1V108zm1.1-14.5c-.6 0-1 .5-1 1 0 .6.5 1 1 1s1-.5 1-1c0-.6-.4-1-1-1zm-4.2 2c-.6 0-1 .5-1 1 0 .6.5 1 1 1s1-.5 1-1c.1-.5-.4-1-1-1zm0 4.2c-.6 0-1 .5-1 1 0 .6.5 1 1 1s1-.5 1-1c.1-.5-.4-1-1-1zm8.3-4.2c-.6 0-1 .5-1 1 0 .6.5 1 1 1s1-.5 1-1c.1-.5-.4-1-1-1zm0 4.2c-.6 0-1 .5-1 1 0 .6.5 1 1 1s1-.5 1-1c.1-.5-.4-1-1-1zm10.4 8.3h2.1V97.6h-2.1V108zm1.1-14.5c-.6 0-1 .5-1 1 0 .6.5 1 1 1s1-.5 1-1c0-.6-.5-1-1-1zm-4.2 2c-.6 0-1 .5-1 1 0 .6.5 1 1 1s1-.5 1-1-.4-1-1-1zm0 4.2c-.6 0-1 .5-1 1 0 .6.5 1 1 1s1-.5 1-1-.4-1-1-1zm8.3-4.2c-.6 0-1 .5-1 1 0 .6.5 1 1 1s1-.5 1-1-.4-1-1-1zm0 4.2c-.6 0-1 .5-1 1 0 .6.5 1 1 1s1-.5 1-1-.4-1-1-1zM53 108h2V97.6h-2V108zm1-14.5c-.6 0-1 .5-1 1 0 .6.5 1 1 1s1-.5 1-1c0-.6-.4-1-1-1zm-4.2 2c-.6 0-1 .5-1 1 0 .6.5 1 1 1s1-.5 1-1c.1-.5-.4-1-1-1zm0 4.2c-.6 0-1 .5-1 1 0 .6.5 1 1 1s1-.5 1-1c.1-.5-.4-1-1-1zm8.4-4.2c-.6 0-1 .5-1 1 0 .6.5 1 1 1s1-.5 1-1-.5-1-1-1zm0 4.2c-.6 0-1 .5-1 1 0 .6.5 1 1 1s1-.5 1-1-.5-1-1-1zM37.4 108h2.1V97.6h-2.1V108zm1-14.5c-.6 0-1 .5-1 1 0 .6.5 1 1 1s1-.5 1-1c.1-.6-.4-1-1-1zm-4.1 2c-.6 0-1 .5-1 1 0 .6.5 1 1 1s1-.5 1-1-.5-1-1-1zm0 4.2c-.6 0-1 .5-1 1 0 .6.5 1 1 1s1-.5 1-1-.5-1-1-1zm8.3-4.2c-.6 0-1 .5-1 1 0 .6.5 1 1 1s1-.5 1-1-.4-1-1-1zm0 4.2c-.6 0-1 .5-1 1 0 .6.5 1 1 1s1-.5 1-1-.4-1-1-1zM21.8 108h2.1V97.6h-2.1V108zm1-14.5c-.6 0-1 .5-1 1 0 .6.5 1 1 1s1-.5 1-1c.1-.6-.4-1-1-1zm-4.1 2c-.6 0-1 .5-1 1 0 .6.5 1 1 1s1-.5 1-1-.4-1-1-1zm0 4.2c-.6 0-1 .5-1 1 0 .6.5 1 1 1s1-.5 1-1-.4-1-1-1zm8.3-4.2c-.6 0-1 .5-1 1 0 .6.5 1 1 1s1-.5 1-1-.4-1-1-1zm0 4.2c-.6 0-1 .5-1 1 0 .6.5 1 1 1s1-.5 1-1-.4-1-1-1zm81-76.9v64.4H0V1C0 .6.3.2.6 0c.4-.1.9 0 1.2.3l21.1 21.1V1c0-.4.3-.8.6-1 .4-.2.8-.1 1.1.2l21.1 21.1V1c0-.4.3-.8.6-1 .4-.2.8-.1 1.1.2L70 22.8h3.7V6.2C73.7 2.8 76.5 0 80 0c3.4 0 6.2 2.8 6.2 6.2v16.6h4.2V6.2c0-3.4 2.8-6.2 6.2-6.2 3.4 0 6.2 2.8 6.2 6.2v16.6h5.2zM100.6 11l-.2.2c-.1.1-.2.1-.2.2l-.2.2c-.1.1-.2.1-.3.2-.1 0-.2.1-.2.1-.1 0-.2.1-.3.1-.1 0-.2.1-.2.1-.1 0-.2.1-.3.1-.1 0-.2.1-.2.1-.1 0-.2.1-.3.1-.1 0-.2 0-.2.1-.1 0-.3 0-.4.1H96c-.1 0-.3 0-.4-.1-.1 0-.2 0-.2-.1-.1 0-.2-.1-.3-.1-.1 0-.2-.1-.2-.1-.1 0-.2-.1-.3-.1-.1 0-.2-.1-.2-.1-.1 0-.2-.1-.3-.1-.1 0-.2-.1-.2-.1-.1-.1-.2-.1-.3-.2-.1 0-.1-.1-.2-.2s-.2-.1-.2-.2L93 11l-.1-.1v24.4c0 2.3 1.9 4.2 4.2 4.2 2.3 0 4.2-1.9 4.2-4.2V10.9c-.6 0-.6 0-.7.1zm-8.2-4.8c0 2.3 1.9 4.2 4.2 4.2 2.3 0 4.2-1.9 4.2-4.2S98.9 2 96.6 2c-2.3.1-4.2 1.9-4.2 4.2zM84 11l-.2.2c-.1.1-.2.1-.2.2l-.2.2c-.1.1-.2.1-.3.2-.1 0-.2.1-.2.1-.1 0-.2.1-.3.1-.1 0-.2.1-.2.1-.1 0-.2.1-.3.1-.1 0-.2.1-.2.1-.1 0-.2.1-.3.1-.1 0-.2 0-.2.1-.1 0-.3 0-.4.1h-1.6c-.1 0-.3 0-.4-.1-.1 0-.2 0-.2-.1-.1 0-.2-.1-.3-.1-.1 0-.2-.1-.2-.1-.1 0-.2-.1-.3-.1-.1 0-.2-.1-.2-.1-.1 0-.2-.1-.3-.1-.1 0-.2-.1-.2-.1-.1-.1-.2-.1-.3-.2-.1 0-.1-.1-.2-.2s-.2-.1-.2-.2c-.6-.1-.6-.2-.7-.2l-.1-.1v24.4c0 2.3 1.9 4.2 4.2 4.2s4.2-1.9 4.2-4.2V10.9c-.1 0-.2 0-.2.1zm-8.2-4.8c0 2.3 1.9 4.2 4.2 4.2s4.2-1.9 4.2-4.2-1.9-4.1-4.2-4.1-4.2 1.8-4.2 4.1zm-28 17.3l20.8 20.8v-20L47.8 3.5v20zm-22.9 0l20.8 20.8v-20L24.9 3.5v20zm-22.8-.7v.6l20.8 20.8V24.3L2.1 3.5v19.3zM81 85.2V70.6h-4.2v14.5H81zm-6.2-37.4v-2.1H106V24.9h-3.1v10.4c0 3.4-2.8 6.2-6.2 6.2-3.4 0-6.2-2.8-6.2-6.2V24.9h-4.2v10.4c0 3.4-2.8 6.2-6.2 6.2-3.4 0-6.2-2.8-6.2-6.2V24.9h-3.1v21.8c0 .4-.3.8-.6 1-.1.1-.3.1-.4.1-.3 0-.5-.1-.7-.3L47.8 26.4v19.3h8.3v2.1h-9.3c-.3 0-.5-.1-.7-.3L24.9 26.4v19.3h8.3v2.1h-9.3c-.2 0-.3 0-.5-.1h-.1c-.1 0-.2-.1-.2-.2l-21-21.1v19.3h8.3v2.1H2.1v37.4h72.7V68.5h8.3v16.6h22.8V47.8H74.8zM16.6 59.2c0 2.3-1.9 4.2-4.2 4.2s-4.2-1.9-4.2-4.2c0-2.3 1.9-4.2 4.2-4.2s4.2 1.9 4.2 4.2zm-2.1 0c0-1.1-.9-2.1-2.1-2.1s-2.1.9-2.1 2.1.9 2.1 2.1 2.1 2.1-1 2.1-2.1zm2.1 14.5c0 2.3-1.9 4.2-4.2 4.2S8.3 76 8.3 73.7c0-2.3 1.9-4.2 4.2-4.2s4.1 1.9 4.1 4.2zm-2.1 0c0-1.1-.9-2.1-2.1-2.1s-2.1.9-2.1 2.1c0 1.1.9 2.1 2.1 2.1s2.1-.9 2.1-2.1zm18.7-14.5c0 2.3-1.9 4.2-4.2 4.2s-4.2-1.9-4.2-4.2c0-2.3 1.9-4.2 4.2-4.2s4.2 1.9 4.2 4.2zm-2 0c0-1.1-.9-2.1-2.1-2.1-1.1 0-2.1.9-2.1 2.1s.9 2.1 2.1 2.1c1.1 0 2.1-1 2.1-2.1zm2 14.5c0 2.3-1.9 4.2-4.2 4.2s-4.2-1.9-4.2-4.2c0-2.3 1.9-4.2 4.2-4.2s4.2 1.9 4.2 4.2zm-2 0c0-1.1-.9-2.1-2.1-2.1-1.1 0-2.1.9-2.1 2.1 0 1.1.9 2.1 2.1 2.1 1.1 0 2.1-.9 2.1-2.1zm18.6-14.5c0 2.3-1.9 4.2-4.2 4.2-2.3 0-4.2-1.9-4.2-4.2 0-2.3 1.9-4.2 4.2-4.2 2.4 0 4.2 1.9 4.2 4.2zm-2 0c0-1.1-.9-2.1-2.1-2.1-1.1 0-2.1.9-2.1 2.1s.9 2.1 2.1 2.1c1.1 0 2.1-1 2.1-2.1zm2 14.5c0 2.3-1.9 4.2-4.2 4.2-2.3 0-4.2-1.9-4.2-4.2 0-2.3 1.9-4.2 4.2-4.2 2.4.1 4.2 1.9 4.2 4.2zm-2 0c0-1.1-.9-2.1-2.1-2.1-1.1 0-2.1.9-2.1 2.1 0 1.1.9 2.1 2.1 2.1 1.1 0 2.1-.9 2.1-2.1zm18.7-14.5c0 2.3-1.9 4.2-4.2 4.2s-4.2-1.9-4.2-4.2c0-2.3 1.9-4.2 4.2-4.2s4.2 1.9 4.2 4.2zm-2.1 0c0-1.1-.9-2.1-2.1-2.1-1.1 0-2.1.9-2.1 2.1s.9 2.1 2.1 2.1c1.2 0 2.1-1 2.1-2.1zm2.1 14.5c0 2.3-1.9 4.2-4.2 4.2s-4.2-1.9-4.2-4.2c0-2.3 1.9-4.2 4.2-4.2s4.2 1.9 4.2 4.2zm-2.1 0c0-1.1-.9-2.1-2.1-2.1-1.1 0-2.1.9-2.1 2.1 0 1.1.9 2.1 2.1 2.1 1.2 0 2.1-.9 2.1-2.1zm27-14.5c0-2.3 1.9-4.2 4.2-4.2s4.2 1.9 4.2 4.2c0 2.3-1.9 4.2-4.2 4.2s-4.2-1.9-4.2-4.2zm2.1 0c0 1.1.9 2.1 2.1 2.1 1.1 0 2.1-.9 2.1-2.1s-.9-2.1-2.1-2.1c-1.2 0-2.1.9-2.1 2.1zm-18.7 0c0-2.3 1.9-4.2 4.2-4.2 2.3 0 4.2 1.9 4.2 4.2 0 2.3-1.9 4.2-4.2 4.2-2.4-.1-4.2-1.9-4.2-4.2zm2 0c0 1.1.9 2.1 2.1 2.1 1.1 0 2.1-.9 2.1-2.1s-.9-2.1-2.1-2.1c-1.1 0-2.1.9-2.1 2.1zm14.6 14.5c0-2.3 1.9-4.2 4.2-4.2s4.2 1.9 4.2 4.2c0 2.3-1.9 4.2-4.2 4.2s-4.2-1.9-4.2-4.2zm2.1 0c0 1.1.9 2.1 2.1 2.1 1.1 0 2.1-.9 2.1-2.1 0-1.1-.9-2.1-2.1-2.1-1.2.1-2.1 1-2.1 2.1z"/></svg>