<svg id="Layer_1" xmlns="http://www.w3.org/2000/svg" viewBox="0 0 108 108"><path d="M13.5 81c.6 0 1 .5 1 1 0 .6-.5 1-1 1s-1-.5-1-1 .4-1 1-1zm-7.3-7.3c0-.6-.5-1-1-1s-1 .5-1 1c0 .6.5 1 1 1s1-.4 1-1zm8.3-8.3c0-.6-.5-1-1-1s-1 .5-1 1c0 .6.5 1 1 1s1-.4 1-1zm80 17.7c.6 0 1-.5 1-1 0-.6-.5-1-1-1s-1 .5-1 1 .4 1 1 1zm7.3-9.4c0 .6.5 1 1 1s1-.5 1-1c0-.6-.5-1-1-1s-1 .5-1 1zm-6.3-8.3c0-.6-.5-1-1-1s-1 .5-1 1c0 .6.5 1 1 1s1-.4 1-1zM44.7 88.3c-.6 0-1 .5-1 1 0 .6.5 1 1 1s1-.5 1-1c0-.6-.5-1-1-1zm-27 0c-.6 0-1 .5-1 1 0 .6.5 1 1 1s1-.5 1-1c0-.6-.5-1-1-1zM40 79c-.4.4-.4 1.1 0 1.5.4.4 1.1.4 1.5 0 .4-.4.4-1.1 0-1.5-.5-.4-1.1-.4-1.5 0zM20.9 98.1c-.4.4-.4 1.1 0 1.5.4.4 1.1.4 1.5 0 .4-.4.4-1.1 0-1.5-.5-.4-1.1-.4-1.5 0zm1.4-17.6c.4-.4.4-1.1 0-1.5-.4-.4-1.1-.4-1.5 0-.4.4-.4 1.1 0 1.5.5.4 1.1.4 1.5 0zM40 98.1c-.4.4-.4 1.1 0 1.5.4.4 1.1.4 1.5 0 .4-.4.4-1.1 0-1.5-.5-.4-1.1-.4-1.5 0zm-8.8 3.7c-.6 0-1 .5-1 1 0 .6.5 1 1 1s1-.5 1-1c0-.6-.5-1-1-1zM27 88.3c-.6 0-1 .5-1 1 0 .6.5 1 1 1s1-.5 1-1c0-.6-.4-1-1-1zm8.3 0c-.6 0-1 .5-1 1 0 .6.5 1 1 1s1-.5 1-1c0-.6-.4-1-1-1zm-4.1 4.1c-.6 0-1 .5-1 1 0 .6.5 1 1 1s1-.5 1-1-.5-1-1-1zm0-4.1c-.6 0-1 .5-1 1 0 .6.5 1 1 1s1-.5 1-1c0-.6-.5-1-1-1zm0-4.2c-.6 0-1 .5-1 1 0 .6.5 1 1 1s1-.5 1-1-.5-1-1-1zm41.5 4.2c-.6 0-1 .5-1 1 0 .6.5 1 1 1s1-.5 1-1c0-.6-.4-1-1-1zm8.3 0c-.6 0-1 .5-1 1 0 .6.5 1 1 1s1-.5 1-1c0-.6-.4-1-1-1zm-4.2-4.2c-.6 0-1 .5-1 1 0 .6.5 1 1 1s1-.5 1-1c.1-.5-.4-1-1-1zm0 4.2c-.6 0-1 .5-1 1 0 .6.5 1 1 1s1-.5 1-1c.1-.6-.4-1-1-1zm0 4.1c-.6 0-1 .5-1 1 0 .6.5 1 1 1s1-.5 1-1c.1-.5-.4-1-1-1zM5.2 31.2c.6 0 1-.5 1-1 0-.6-.5-1-1-1s-1 .5-1 1 .4 1 1 1zm7.3-9.4c0 .6.5 1 1 1s1-.5 1-1c0-.6-.5-1-1-1s-1 .4-1 1zm-4.2 27c0 .6.5 1 1 1s1-.5 1-1c0-.6-.5-1-1-1s-1 .4-1 1zm89.3 0c0 .6.5 1 1 1s1-.5 1-1c0-.6-.5-1-1-1s-1 .4-1 1zM8.3 100.7c0 .6.5 1 1 1s1-.5 1-1c0-.6-.5-1-1-1s-1 .5-1 1zm89.3 0c0 .6.5 1 1 1s1-.5 1-1c0-.6-.5-1-1-1s-1 .5-1 1zM28 38.4c0-.6-.5-1-1-1s-1 .5-1 1c0 .6.5 1 1 1s1-.4 1-1zM28 55c0-.6-.5-1-1-1s-1 .5-1 1c0 .6.5 1 1 1s1-.4 1-1zm6.3-8.3c0 .6.5 1 1 1s1-.5 1-1c0-.6-.5-1-1-1s-1 .5-1 1zM28 21.8c0-.6-.5-1-1-1s-1 .5-1 1c0 .6.5 1 1 1s1-.4 1-1zm6.3 8.3c0 .6.5 1 1 1s1-.5 1-1c0-.6-.5-1-1-1s-1 .4-1 1zM27 6.2c.6 0 1-.5 1-1 0-.6-.5-1-1-1s-1 .5-1 1c0 .6.4 1 1 1zm7.3 7.3c0 .6.5 1 1 1s1-.5 1-1c0-.6-.5-1-1-1s-1 .4-1 1zm-29.1 1c.6 0 1-.5 1-1 0-.6-.5-1-1-1s-1 .5-1 1c0 .6.4 1 1 1zm45.7 15.6c0-.6-.5-1-1-1s-1 .5-1 1c0 .6.5 1 1 1s1-.4 1-1zm6.2-8.3c0 .6.5 1 1 1s1-.5 1-1c0-.6-.5-1-1-1s-1 .4-1 1zm-6.2 24.9c0-.6-.5-1-1-1s-1 .5-1 1c0 .6.5 1 1 1s1-.4 1-1zm6.2-8.3c0 .6.5 1 1 1s1-.5 1-1c0-.6-.5-1-1-1s-1 .4-1 1zm-6.2 24.9c0-.6-.5-1-1-1s-1 .5-1 1c0 .6.5 1 1 1s1-.4 1-1zm6.2-8.3c0 .6.5 1 1 1s1-.5 1-1c0-.6-.5-1-1-1s-1 .5-1 1zm-7.3 26c.6 0 1-.5 1-1 0-.6-.5-1-1-1s-1 .5-1 1 .5 1 1 1zm7.3-9.3c0 .6.5 1 1 1s1-.5 1-1c0-.6-.5-1-1-1s-1 .4-1 1zm-7.3-57.2c.6 0 1-.5 1-1 0-.6-.5-1-1-1s-1 .5-1 1c0 .6.5 1 1 1zm52 15.6c0 .6.5 1 1 1s1-.5 1-1c0-.6-.5-1-1-1s-1 .4-1 1zm-6.3-8.3c0-.6-.5-1-1-1s-1 .5-1 1c0 .6.5 1 1 1s1-.4 1-1zm7.3-7.3c.6 0 1-.5 1-1 0-.6-.5-1-1-1s-1 .5-1 1c0 .6.4 1 1 1zM53 100.7c0 .6.5 1 1 1s1-.5 1-1c0-.6-.5-1-1-1s-1 .5-1 1zm-14.5-4c-2 2-4.7 3-7.4 3-1.5 0-3-.3-4.5-1-1.1-.5-2-1.2-2.9-2-2-2-3-4.6-3-7.3 0-2.8 1.1-5.4 3-7.3l6.3-6.3v-7.1h-3c-2.9 0-5.2-2.3-5.2-5.2v-5.2h1c2.9 0 5.6 1.4 7.3 3.5v-9.7H27c-2.9 0-5.2-2.3-5.2-5.2v-5.2h1c2.9 0 5.6 1.4 7.3 3.5v-9.7H27c-2.9 0-5.2-2.3-5.2-5.2v-5.2h1c2.9 0 5.6 1.4 7.3 3.5v-9.9H27c-2.9 0-5.2-2.3-5.2-5.2V8.3h1c2.9 0 5.6 1.4 7.3 3.5V8.4h.1c.5-4.8 4.5-8.4 9.3-8.4h1v5.2c0 2.9-2.3 5.2-5.2 5.2h-3.1v9.7c1.7-2.1 4.3-3.5 7.3-3.5h1v5.2c0 2.9-2.3 5.2-5.2 5.2h-3.1v9.7c1.7-2.1 4.3-3.5 7.3-3.5h1v5.2c0 2.9-2.3 5.2-5.2 5.2h-3.1v9.7c1.7-2.1 4.3-3.5 7.3-3.5h1V55c0 2.9-2.3 5.2-5.2 5.2h-3.1v15.4l6.3 6.3c.8.8 1.5 1.8 2 2.9 1.9 4 1.1 8.7-2 11.9zm-6.2-38.5h3c1.7 0 3.1-1.4 3.1-3.1v-3c-3.2.4-5.7 2.9-6.1 6.1zm0-16.7h3c1.7 0 3.1-1.4 3.1-3.1v-3c-3.2.4-5.7 3-6.1 6.1zm0-16.6h3c1.7 0 3.1-1.4 3.1-3.1v-3c-3.2.4-5.7 2.9-6.1 6.1zm0-16.6h3c1.7 0 3.1-1.4 3.1-3.1v-3c-3.2.4-5.7 2.9-6.1 6.1zM30 16.6c-.5-3.2-3-5.7-6.2-6.2v3c0 1.7 1.4 3.1 3.1 3.1H30zm0 16.6c-.5-3.2-3-5.7-6.2-6.2v3c0 1.7 1.4 3.1 3.1 3.1H30zm0 16.6c-.5-3.2-3-5.7-6.2-6.2v3c0 1.7 1.4 3.1 3.1 3.1H30zm0 16.7c-.5-3.2-3-5.7-6.2-6.2v3c0 1.7 1.4 3.1 3.1 3.1H30zm8.7 19.2c-.4-.9-.9-1.6-1.6-2.3l-5.9-5.9-5.9 5.9c-1.6 1.6-2.4 3.7-2.4 5.9s.9 4.3 2.4 5.9c.7.7 1.4 1.2 2.3 1.6 3.2 1.5 7 .9 9.5-1.6 2.4-2.5 3.1-6.3 1.6-9.5zm-21-77.4h1v5.2c0 2.9-2.3 5.2-5.2 5.2h-3.1v9.7c1.7-2.1 4.3-3.5 7.3-3.5h1v5.2c0 2.9-2.3 5.2-5.2 5.2h-3.1v4.3l4.1 4.1c.6.6 1.1 1.3 1.4 2 1.3 2.8.8 6.1-1.4 8.3-1.4 1.4-3.3 2.1-5.1 2.1-1.1 0-2.1-.2-3.1-.7-.7-.3-1.4-.8-2-1.4-2.8-2.8-2.8-7.4 0-10.3l4.1-4.1V27H5.2C2.3 27 0 24.7 0 21.8v-5.2h1c2.9 0 5.6 1.4 7.3 3.5v-3.4h.1c.5-4.8 4.5-8.4 9.3-8.4zM8.2 24.9c-.5-3.2-3-5.7-6.2-6.2v3c0 1.7 1.4 3.1 3.1 3.1h3.1zM13 45.1l-3.7-3.7-3.7 3.7c-2 2-2 5.3 0 7.3.4.4.9.8 1.4 1 2 1 4.4.5 5.9-1 1.6-1.6 2-3.9 1-5.9-.1-.5-.5-.9-.9-1.4zm-2.5-11.9h3c1.7 0 3.1-1.4 3.1-3.1v-3c-3.2.4-5.7 3-6.1 6.1zm6.1-22.7c-3.2.5-5.7 3-6.2 6.2h3c1.7 0 3.1-1.4 3.1-3.1v-3.1zm1.1 58h1v5.2c0 2.9-2.3 5.2-5.2 5.2h-3.1v12.6l4.1 4.1c2.8 2.8 2.8 7.4 0 10.3-.6.6-1.3 1.1-2 1.4-1 .5-2.1.7-3.1.7-1.9 0-3.8-.7-5.1-2.1-2.2-2.2-2.7-5.5-1.4-8.3.3-.7.8-1.4 1.4-2l4.1-4.1v-4.3H5.2C2.3 87.2 0 84.9 0 82v-5.2h1c2.9 0 5.6 1.4 7.3 3.5v-9.7H5.2c-2.9 0-5.2-2.3-5.2-5.2v-5.2h1c4.8 0 8.8 3.6 9.3 8.3h.1V72c1.7-2.1 4.3-3.5 7.3-3.5zm-9.5 0c-.5-3.2-3-5.7-6.2-6.2v3c0 1.7 1.4 3.1 3.1 3.1h3.1zm0 16.7C7.7 82 5.2 79.5 2 79v3c0 1.7 1.4 3.1 3.1 3.1h3.1zM13 97.1l-3.7-3.7-3.7 3.7c-.4.4-.8.9-1 1.4-1 2-.5 4.4 1 5.9 1.6 1.6 3.9 2 5.9 1 .5-.3 1-.6 1.4-1 2.1-2 2.1-5.3.1-7.3zm3.6-26.4c-3.2.5-5.7 3-6.2 6.2h3c1.7 0 3.1-1.4 3.1-3.1v-3.1zM108 16.6v5.2c0 2.9-2.3 5.2-5.2 5.2h-3.1v12.6l4.1 4.1c2.8 2.8 2.8 7.4 0 10.3-.6.6-1.3 1.1-2 1.4-1 .5-2.1.7-3.1.7-1.9 0-3.8-.7-5.1-2.1-2.2-2.2-2.7-5.5-1.4-8.3.3-.7.8-1.4 1.4-2l4.1-4.1v-4.3h-3.1c-2.9 0-5.2-2.3-5.2-5.2v-5.2h1c2.9 0 5.6 1.4 7.3 3.5v-9.7h-3.1c-2.9 0-5.2-2.3-5.2-5.2V8.3h1c4.8 0 8.8 3.6 9.3 8.3h.1V20c1.7-2.1 4.3-3.5 7.3-3.5h.9zm-10.5 0c-.5-3.2-3-5.7-6.2-6.2v3c0 1.7 1.4 3.1 3.1 3.1h3.1zm0 16.6c-.5-3.2-3-5.7-6.2-6.2v3c0 1.7 1.4 3.1 3.1 3.1h3.1zm4.8 11.9l-3.7-3.7-3.6 3.7c-.4.4-.8.9-1 1.4-1 2-.5 4.4 1 5.9 1.6 1.6 3.9 2 5.9 1 .5-.3 1-.6 1.4-1 2-1.9 2-5.2 0-7.3zm3.6-26.3c-3.2.5-5.7 3-6.2 6.2h3c1.7 0 3.1-1.4 3.1-3.1v-3.1zm1.1 41.4h1v5.2c0 2.9-2.3 5.2-5.2 5.2h-3.1v9.7c1.7-2.1 4.3-3.5 7.3-3.5h1V82c0 2.9-2.3 5.2-5.2 5.2h-3.1v4.3l4.1 4.1c.6.6 1.1 1.3 1.4 2 1.3 2.8.8 6.1-1.4 8.3-1.4 1.4-3.3 2.1-5.1 2.1-1.1 0-2.1-.2-3.1-.7-.7-.3-1.4-.8-2-1.4-2.8-2.8-2.8-7.4 0-10.3l4.1-4.1V78.9h-3.1c-2.9 0-5.2-2.3-5.2-5.2v-5.2h1c2.9 0 5.6 1.4 7.3 3.5v-3.4h.1c.4-4.7 4.4-8.4 9.2-8.4zm-9.5 16.6c-.5-3.2-3-5.7-6.2-6.2v3c0 1.7 1.4 3.1 3.1 3.1h3.1zm4.8 20.3l-3.7-3.7-3.6 3.7c-2 2-2 5.3 0 7.3.4.4.9.8 1.4 1 2 1 4.4.5 5.9-1 1.6-1.6 2-3.9 1-5.9-.2-.5-.6-1-1-1.4zm-2.5-11.9h3c1.7 0 3.1-1.4 3.1-3.1v-3c-3.2.4-5.7 2.9-6.1 6.1zm6.1-22.8c-3.2.5-5.7 3-6.2 6.2h3c1.7 0 3.1-1.4 3.1-3.1v-3.1zM55 85.2v6.3l4.1 4.1c.6.6 1.1 1.3 1.4 2 1.3 2.8.8 6.1-1.4 8.3-1.4 1.4-3.3 2.1-5.1 2.1-1.1 0-2.1-.2-3.1-.7-.7-.3-1.4-.8-2-1.4-2.8-2.8-2.8-7.4 0-10.3l4.1-4.1V76.9h-3.1c-2.9 0-5.2-2.3-5.2-5.2v-5.2h1c2.9 0 5.6 1.4 7.3 3.5v-9.7h-3.1c-2.9 0-5.2-2.3-5.2-5.2v-5.2h1c2.9 0 5.6 1.4 7.3 3.5v-9.7h-3.1c-2.9 0-5.2-2.3-5.2-5.2v-5.2h1c2.9 0 5.6 1.4 7.3 3.5V27h-3.1c-2.9 0-5.2-2.3-5.2-5.2v-5.2h1c2.9 0 5.6 1.4 7.3 3.5v-3.4c.5-4.7 4.5-8.3 9.3-8.3h1v5.2c0 2.9-2.3 5.2-5.2 5.2H55v9.6c1.7-2.1 4.3-3.5 7.3-3.5h1v5.2c0 2.9-2.3 5.2-5.2 5.2H55V45c1.7-2.1 4.3-3.5 7.3-3.5h1v5.2c0 2.9-2.3 5.2-5.2 5.2H55v9.7c1.7-2.1 4.3-3.5 7.3-3.5h1v5.2c0 2.9-2.3 5.2-5.2 5.2H55v9.7c1.7-2.1 4.3-3.5 7.3-3.5h1V80c0 2.9-2.3 5.2-5.2 5.2H55zm.1-2.1h3c1.7 0 3.1-1.4 3.1-3.1v-3c-3.1.4-5.6 2.9-6.1 6.1zm0-16.6h3c1.7 0 3.1-1.4 3.1-3.1v-3c-3.1.4-5.6 2.9-6.1 6.1zm0-16.7h3c1.7 0 3.1-1.4 3.1-3.1v-3c-3.1.4-5.6 3-6.1 6.1zm0-16.6h3c1.7 0 3.1-1.4 3.1-3.1v-3c-3.1.4-5.6 3-6.1 6.1zm0-16.6h3c1.7 0 3.1-1.4 3.1-3.1v-3c-3.1.4-5.6 2.9-6.1 6.1zm-2.2 8.3c-.5-3.2-3-5.7-6.2-6.2v3c0 1.7 1.4 3.1 3.1 3.1h3.1zm0 16.6c-.5-3.2-3-5.7-6.2-6.2v3c0 1.7 1.4 3.1 3.1 3.1h3.1zm0 16.7c-.5-3.2-3-5.7-6.2-6.2v3c0 1.7 1.4 3.1 3.1 3.1h3.1zm0 16.6c-.5-3.2-3-5.7-6.2-6.2v3c0 1.7 1.4 3.1 3.1 3.1h3.1zm4.8 22.3L54 93.4l-3.7 3.7c-2 2-2 5.3 0 7.3.4.4.9.8 1.4 1 2 1 4.4.5 5.9-1 1.6-1.6 2-3.9 1-5.9-.2-.5-.5-1-.9-1.4zM34.3 63.3c0 .6.5 1 1 1s1-.5 1-1c0-.6-.5-1-1-1s-1 .5-1 1zm29 25c-.6 0-1 .5-1 1 0 .6.5 1 1 1s1-.5 1-1c.1-.6-.4-1-1-1zm27 0c-.6 0-1 .5-1 1 0 .6.5 1 1 1s1-.5 1-1c.1-.6-.4-1-1-1zM68 80.5c.4-.4.4-1.1 0-1.5-.4-.4-1.1-.4-1.5 0-.4.4-.4 1.1 0 1.5.5.4 1.1.4 1.5 0zm17.7 17.6c-.4.4-.4 1.1 0 1.5.4.4 1.1.4 1.5 0 .4-.4.4-1.1 0-1.5-.5-.4-1.1-.4-1.5 0zm0-19.1c-.4.4-.4 1.1 0 1.5.4.4 1.1.4 1.5 0 .4-.4.4-1.1 0-1.5-.5-.4-1.1-.4-1.5 0zM66.6 98.1c-.4.4-.4 1.1 0 1.5.4.4 1.1.4 1.5 0 .4-.4.4-1.1 0-1.5-.5-.4-1.1-.4-1.5 0zm10.2 3.7c-.6 0-1 .5-1 1 0 .6.5 1 1 1s1-.5 1-1c.1-.6-.4-1-1-1zM80 38.4c0 .6.5 1 1 1s1-.5 1-1c0-.6-.5-1-1-1s-1 .4-1 1zM80 55c0 .6.5 1 1 1s1-.5 1-1c0-.6-.5-1-1-1s-1 .5-1 1zm-6.3-8.3c0-.6-.5-1-1-1s-1 .5-1 1c0 .6.5 1 1 1s1-.4 1-1zM80 21.8c0 .6.5 1 1 1s1-.5 1-1c0-.6-.5-1-1-1s-1 .4-1 1zm-6.3 8.3c0-.6-.5-1-1-1s-1 .5-1 1c0 .6.5 1 1 1s1-.4 1-1zM81 6.2c.6 0 1-.5 1-1 0-.6-.5-1-1-1s-1 .5-1 1c0 .6.4 1 1 1zm-7.3 7.3c0-.6-.5-1-1-1s-1 .5-1 1c0 .6.5 1 1 1s1-.4 1-1zm13.5 75.8c0 2.8-1.1 5.4-3 7.3-.8.8-1.8 1.5-2.9 2-1.4.7-2.9 1-4.5 1-2.7 0-5.4-1-7.4-3-3.1-3.1-3.9-7.9-2-11.8.5-1.1 1.2-2 2-2.9l6.3-6.3V60.2h-3.1c-2.9 0-5.2-2.3-5.2-5.2v-5.2h1c2.9 0 5.6 1.4 7.3 3.5v-9.7h-3.1c-2.9 0-5.2-2.3-5.2-5.2v-5.2h1c2.9 0 5.6 1.4 7.3 3.5V27h-3.1c-2.9 0-5.2-2.3-5.2-5.2v-5.2h1c2.9 0 5.6 1.4 7.3 3.5v-9.7h-3.1c-2.9 0-5.2-2.3-5.2-5.2V0h1c4.8 0 8.8 3.6 9.3 8.3h.1v3.4c1.7-2.1 4.3-3.5 7.3-3.5h1v5.2c0 2.9-2.3 5.2-5.2 5.2h-3.1v9.8c1.7-2.1 4.3-3.5 7.3-3.5h1v5.2c0 2.9-2.3 5.2-5.2 5.2h-3.1V45c1.7-2.1 4.3-3.5 7.3-3.5h1v5.2c0 2.9-2.3 5.2-5.2 5.2h-3.1v9.7c1.7-2.1 4.3-3.5 7.3-3.5h1v5.2c0 2.9-2.3 5.2-5.2 5.2h-3.1v7.1l6.3 6.3c2.1 2 3.1 4.6 3.1 7.4zM78 66.5h3c1.7 0 3.1-1.4 3.1-3.1v-3c-3.2.4-5.7 2.9-6.1 6.1zm0-16.7h3c1.7 0 3.1-1.4 3.1-3.1v-3c-3.2.4-5.7 3-6.1 6.1zm0-16.6h3c1.7 0 3.1-1.4 3.1-3.1v-3c-3.2.4-5.7 3-6.1 6.1zm0-16.6h3c1.7 0 3.1-1.4 3.1-3.1v-3c-3.2.4-5.7 2.9-6.1 6.1zm-2.3-8.3c-.5-3.2-3-5.7-6.2-6.2v3c0 1.7 1.4 3.1 3.1 3.1h3.1zm0 16.6c-.5-3.2-3-5.7-6.2-6.2v3c0 1.7 1.4 3.1 3.1 3.1h3.1zm0 16.6c-.5-3.2-3-5.7-6.2-6.2v3c0 1.7 1.4 3.1 3.1 3.1h3.1zm0 16.7c-.5-3.2-3-5.7-6.2-6.2v3c0 1.7 1.4 3.1 3.1 3.1h3.1zm9.5 31.1c0-2.2-.9-4.3-2.4-5.9l-5.9-5.9-5.9 5.9c-.7.7-1.2 1.4-1.6 2.3-1.5 3.2-.9 7 1.6 9.5s6.3 3.1 9.5 1.6c.9-.4 1.6-.9 2.3-1.6 1.5-1.6 2.4-3.7 2.4-5.9zm-11.5-26c0-.6-.5-1-1-1s-1 .5-1 1c0 .6.5 1 1 1s1-.4 1-1z"/></svg>