<svg id="Layer_1" xmlns="http://www.w3.org/2000/svg" viewBox="0 0 195.4 70"><path d="M91.5 20.9c1.8 0 2.2-1.6 2.2-2.2 0-.8-.4-2.2-2.3-2.2h-2.9v4.4h3zm-3 8.1c0 .2-.2.4-.4.4h-2.3c-.2 0-.4-.2-.4-.4V14.1c0-.2.2-.4.4-.4h5.5c4.3 0 5.6 3 5.6 5 0 3.1-2.7 5.1-5.3 5.1h-3.1V29z"/><path d="M95.2 44.8c-.2.2-.4.2-.6 0-1-.9-2.4-1.7-3.7-1.7-4 0-4.6 3.9-4.6 5.1s.6 5 4.6 5.1c1.4 0 2.8-.8 3.9-1.6.2-.2.5-.1.6.1l1.3 1.6c.2.2.1.5-.1.6-1.5 1.5-3.3 2.3-5.7 2.3-5.9 0-7.7-4.8-7.7-8.1 0-3.2 1.8-8.1 7.7-8.1 2.5 0 4.3 1 5.8 2.6.2.2.2.5 0 .6l-1.5 1.5z"/><path d="M104.8 26.5h6.2c.2 0 .4.2.4.4v2c0 .2-.2.4-.4.4h-9c-.2 0-.4-.2-.4-.4V14.1c0-.2.2-.4.4-.4h2.3c.2 0 .4.2.4.4v12.4z"/><path d="M134.7 29.4c-.2 0-.4-.2-.4-.4V13.7c0-.1.1-.3.3-.3.2 0 .4.1.5.2l8.9 8.6v-8.1c0-.2.2-.4.4-.4h2.3c.2 0 .4.2.4.4v15.2c0 .1-.1.2-.3.2-.2 0-.3-.1-.4-.2l-9-8.8V29c0 .2-.2.4-.4.4h-2.3z"/><path d="M156 16.5h-3.8c-.2 0-.4-.2-.4-.4v-2c0-.2.2-.4.4-.4H163c.2 0 .4.2.4.4v2c0 .2-.2.4-.4.4h-3.9V29c0 .2-.2.4-.4.4h-2.3c-.2 0-.4-.2-.4-.4V16.5z"/><path d="M120.9 24.6h3.8l-1.9-4.5-1.9 4.5zm4.9 2.5h-5.9l-.8 1.9c-.1.2-.3.4-.6.4H116c-.2 0-.4-.2-.3-.4l6.8-15.2c.1-.1.2-.2.3-.2.1 0 .3.1.4.2L130 29c.1.2-.1.4-.2.4h-2.5c-.3 0-.5-.2-.6-.4l-.9-1.9z"/><path d="M104.9 55.7c0 .2-.2.4-.4.4h-2.3c-.2 0-.4-.2-.4-.4V40.8c0-.2.2-.4.4-.4h2.3c.2 0 .4.2.4.4v6.1h6.5v-6.1c0-.2.2-.4.4-.4h2.3c.2 0 .4.2.4.4v14.9c0 .2-.2.4-.4.4h-2.3c-.2 0-.4-.2-.4-.4v-5.9h-6.5v5.9z"/><path d="M123.7 55.7c0 .2-.2.4-.4.4H121c-.2 0-.4-.2-.4-.4V40.8c0-.2.2-.4.4-.4h2.3c.2 0 .4.2.4.4v14.9z"/><path d="M140.7 44.8c-.2.2-.4.2-.6 0-1-.9-2.4-1.7-3.7-1.7-4 0-4.6 3.9-4.6 5.1s.6 5 4.6 5.1c1.4 0 2.8-.8 3.9-1.6.2-.2.5-.1.6.1l1.3 1.6c.2.2.1.5-.1.6-1.5 1.5-3.3 2.3-5.7 2.3-5.9 0-7.7-4.8-7.7-8.1 0-3.2 1.8-8.1 7.7-8.1 2.5 0 4.3 1 5.8 2.6.2.2.2.5 0 .6l-1.5 1.5z"/><path d="M170 50.7c-.2 0-.4-.2-.4-.4v-2c0-.2.2-.4.4-.4h5.4c.2 0 .4.2.4.4v5.2c0 .3-.1.5-.3.7-1.4 1.2-3.1 2-5.4 2-6 0-7.7-4.7-7.7-8.1 0-3.2 1.8-8 7.7-8 2.4 0 4 .8 5.5 2.3.2.2.2.5 0 .6l-1.5 1.5c-.2.2-.4.2-.6 0-.9-.8-2.2-1.5-3.4-1.5-4 0-4.6 3.8-4.6 5.1 0 1.3.6 5.1 4.6 5.1.9 0 1.9-.3 2.6-.7v-1.9H170z"/><path d="M192.2 48.2c0-1.3-.6-5.1-4.5-5.1-4 0-4.6 3.8-4.6 5.1 0 1.3.6 5.1 4.6 5.1 3.9.1 4.5-3.8 4.5-5.1m3.2 0c0 3.3-1.8 8.1-7.7 8.1-6 0-7.7-4.7-7.7-8.1 0-3.2 1.8-8.1 7.7-8.1 5.9.1 7.7 4.9 7.7 8.1"/><path d="M150.8 51.3h3.8l-1.9-4.5-1.9 4.5zm4.9 2.5h-5.9l-.8 1.9c-.1.2-.3.4-.6.4h-2.5c-.2 0-.3-.2-.3-.4l6.8-15.2c.1-.1.2-.2.4-.2.1 0 .3.1.4.2l6.8 15.2c.1.2-.1.4-.2.4h-2.5c-.3 0-.5-.2-.6-.4l-1-1.9z"/><path d="M35 2.9C17.3 2.9 2.9 17.3 2.9 35S17.3 67.1 35 67.1 67.1 52.7 67.1 35 52.7 2.9 35 2.9M35 70C15.7 70 0 54.3 0 35S15.7 0 35 0s35 15.7 35 35-15.7 35-35 35"/><path d="M19.3 37.5c.3.1.4.4.3.7l-.8 1.6c-.2.3-.5.4-.9.4-1.8-.3-5.2.7-4.2 2.6 1.2 2.3 8.4-.4 8.4-7.8 0-7.5-7.3-10.1-8.4-7.8-1 1.9 2.4 2.9 4.2 2.6.3-.1.7.1.9.4.4.5.7 1.1.8 1.6.1.3 0 .6-.3.7-2.4.8-5.6.1-7.4-1.6-1.4-1.3-1.7-3.1-.9-4.9.9-2 3.1-3 5.8-2.4 2.1.4 4.1 1.7 5.6 3.5 1.8 2.1 2.7 4.8 2.7 7.9s-.9 5.8-2.7 7.9c-1.5 1.8-3.6 3.1-5.6 3.5-2.7.5-5-.4-5.8-2.4-.8-1.8-.4-3.6.9-4.9 1.8-1.7 5-2.4 7.4-1.6"/><path d="M50.7 37.5c-.3.1-.4.4-.3.7l.8 1.6c.2.3.5.4.9.4 1.8-.3 5.2.7 4.2 2.6-1.2 2.3-8.4-.4-8.4-7.8 0-7.5 7.3-10.1 8.4-7.8 1 1.9-2.4 2.9-4.2 2.6-.3-.1-.7.1-.9.4-.4.5-.7 1.1-.8 1.6-.1.3 0 .6.3.7 2.4.8 5.6.1 7.4-1.6 1.4-1.3 1.7-3.1.9-4.9-.9-2-3.1-3-5.8-2.4-2.1.4-4.1 1.7-5.6 3.5-1.8 2.1-2.7 4.8-2.7 7.9s.9 5.8 2.7 7.9c1.5 1.8 3.6 3.1 5.6 3.5 2.7.5 4.9-.4 5.8-2.4.8-1.8.4-3.6-.9-4.9-1.8-1.7-5-2.4-7.4-1.6"/><path d="M32.5 19.4c-.1.3-.4.4-.7.3l-1.6-.8c-.3-.2-.4-.5-.4-.9.3-1.8-.7-5.2-2.6-4.2-2.3 1.2.4 8.4 7.8 8.4 7.5 0 10.1-7.3 7.8-8.4-1.9-1-2.9 2.4-2.6 4.2.1.3-.1.7-.4.9-.5.4-1.1.7-1.6.8-.3.1-.6 0-.7-.3-.8-2.4-.1-5.6 1.6-7.4 1.3-1.4 3.1-1.7 4.9-.9 2 .9 3 3.1 2.4 5.8-.4 2.1-1.7 4.1-3.5 5.6-2.1 1.8-4.8 2.7-7.9 2.7s-5.8-.9-7.9-2.7C25.3 21 24 19 23.6 16.9c-.5-2.7.4-4.9 2.4-5.8 1.8-.8 3.6-.4 4.9.9 1.7 1.8 2.4 5.1 1.6 7.4"/><path d="M32.5 50.6c-.1-.3-.4-.4-.7-.3l-1.6.8c-.3.2-.4.5-.4.9.3 1.8-.7 5.2-2.6 4.2-2.3-1.2.4-8.4 7.8-8.4 7.5 0 10.1 7.3 7.8 8.4-1.9 1-2.9-2.4-2.6-4.2.1-.3-.1-.7-.4-.9-.5-.4-1.1-.7-1.6-.8-.3-.1-.6 0-.7.3-.8 2.4-.1 5.6 1.6 7.4 1.3 1.4 3.1 1.7 4.9.9 2-.9 3-3.1 2.4-5.8-.4-2.1-1.7-4.1-3.5-5.6-2.1-1.8-4.8-2.7-7.9-2.7s-5.8.9-7.9 2.7C25.3 49 24 51 23.6 53.1c-.5 2.7.4 4.9 2.4 5.8 1.8.8 3.6.4 4.9-.9 1.7-1.8 2.4-5.1 1.6-7.4"/><path d="M42.7 25.2c.5.8 1.5 1.7 2.3 2.3.1.1.2.3.1.5-.3.6-.6 1.1-.9 1.7-.1.2-.4.3-.6.2-1.1-.5-2.9-2.3-3.3-3.2-.1-.2-.1-.5.2-.6.6-.2 1.1-.5 1.7-.9.1-.2.4-.2.5 0"/><path d="M27.3 25.2c-.5.8-1.5 1.7-2.3 2.3-.1.1-.2.3-.1.5.3.6.6 1.1.9 1.7.1.2.4.3.6.2 1.1-.5 2.9-2.3 3.3-3.2.1-.2.1-.5-.2-.6-.6-.2-1.1-.5-1.7-.9-.2-.2-.4-.2-.5 0"/><path d="M42.7 44.7c.5-.8 1.5-1.7 2.3-2.3.1-.1.2-.3.1-.5-.3-.6-.6-1.1-.9-1.7-.1-.2-.4-.3-.6-.2-1.1.5-2.9 2.3-3.3 3.2-.1.2-.1.5.2.6.6.2 1.1.5 1.7.9.1.2.4.2.5 0"/><path d="M27.3 44.7c-.5-.8-1.5-1.7-2.3-2.3-.1-.1-.2-.3-.1-.5.3-.6.6-1.1.9-1.7.1-.2.4-.3.6-.2 1.1.5 2.9 2.3 3.3 3.2.1.2.1.5-.2.6-.6.2-1.1.5-1.7.9-.2.2-.4.2-.5 0"/></svg>