<svg id="Layer_1" xmlns="http://www.w3.org/2000/svg" viewBox="0 0 108 108"><path d="M94.5 81c-.6 0-1-.5-1-1 0-.6.5-1 1-1s1 .5 1 1-.4 1-1 1zm6.2 2.1c.6 0 1-.5 1-1 0-.6-.5-1-1-1s-1 .5-1 1 .5 1 1 1zm2.1 4.1c-.6 0-1 .5-1 1 0 .6.5 1 1 1s1-.5 1-1-.4-1-1-1zm-15.6 1.1c0-.6-.5-1-1-1s-1 .5-1 1c0 .6.5 1 1 1s1-.5 1-1zm13.5 7.2c.6 0 1-.5 1-1 0-.6-.5-1-1-1s-1 .5-1 1c0 .6.5 1 1 1zM89.3 82c0-.6-.5-1-1-1s-1 .5-1 1c0 .6.5 1 1 1s1-.4 1-1zm13.5 15.6h1v5.2c0 2.9-2.3 5.2-5.2 5.2H85.1v-2.1h8.3v-2.1h-3.1c-2.9 0-5.2-2.3-5.2-5.2v-5.2h1c2.9 0 5.6 1.4 7.3 3.5v-3.6c-2.4-.5-4.2-2.6-4.2-5.1 0-2.9 2.3-5.2 5.2-5.2s5.2 2.3 5.2 5.2c0 2.5-1.8 4.6-4.2 5.1v7.7c1.9-2 4.5-3.4 7.4-3.4zm-9.4 4.2c-.5-3.2-3-5.7-6.2-6.2v3c0 1.7 1.4 3.1 3.1 3.1h3.1zm1.1-10.4c1.7 0 3.1-1.4 3.1-3.1s-1.4-3.1-3.1-3.1-3.1 1.4-3.1 3.1 1.4 3.1 3.1 3.1zm7.3 8.4c-3.2.5-5.7 3-6.2 6.2h3c1.7 0 3.1-1.4 3.1-3.1v-3.1zM68.5 27c0 8-6.5 14.5-14.5 14.5S39.5 35 39.5 27 46 12.5 54 12.5 68.5 19 68.5 27zm-2 0c0-6.9-5.6-12.5-12.5-12.5S41.5 20.1 41.5 27 47.1 39.5 54 39.5 66.5 33.9 66.5 27zm11.6-1.5c-.5.9-.5 2 0 3l1.4 2.8c1.3 2.7.3 5.8-2.4 7.2L74.3 40c-.9.5-1.6 1.4-1.8 2.4l-.5 3c-.5 2.9-3.2 4.9-6.2 4.5l-3-.4c-1-.1-2.1.2-2.8.9l-2.2 2.1c-.8.8-1.8 1.2-2.8 1.4v4.9c2.1-2.9 5.5-4.9 9.3-4.9h1v6.2c0 3.4-2.8 6.2-6.2 6.2H55v9.4c3-5.6 8.8-9.4 15.6-9.4h1v9.3c0 5.2-4.2 9.3-9.3 9.3H55v12.5c3.5-7.4 11-12.5 19.7-12.5h1v11.4c0 6.3-5.1 11.4-11.4 11.4H43.7c-6.3 0-11.4-5.1-11.4-11.4V85.2h1c8.7 0 16.2 5.1 19.7 12.5V85.2h-7.3c-5.2 0-9.3-4.2-9.3-9.3v-9.3h1c6.7 0 12.6 3.8 15.6 9.4v-9.4h-4.2c-3.4 0-6.2-2.8-6.2-6.2V54h1c3.9 0 7.3 1.9 9.3 4.9V54c-1-.2-2-.7-2.8-1.4L48 50.4c-.8-.7-1.8-1.1-2.8-.9l-3 .4c-2.9.4-5.6-1.5-6.2-4.5l-.5-3c-.2-1-.8-1.9-1.8-2.4L31 38.6c-2.6-1.4-3.7-4.6-2.4-7.2l1.4-2.8c.5-.9.5-2 0-3l-1.4-2.8c-1.3-2.7-.3-5.8 2.4-7.2l2.7-1.4c.9-.5 1.6-1.4 1.8-2.4l.5-3c.5-2.9 3.2-4.9 6.2-4.5l3 .4c1 .1 2.1-.2 2.8-.9l2.2-2.1c2.1-2.1 5.5-2.1 7.6 0l2.2 2c.8.7 1.8 1.1 2.8.9l3-.4c2.9-.4 5.6 1.5 6.2 4.5l.5 3c.2 1 .8 1.9 1.8 2.4l2.7 1.4c2.6 1.4 3.7 4.6 2.4 7.2l-1.3 2.8zM52.9 64.4c-.5-4.3-3.9-7.8-8.3-8.3v4.1c0 2.3 1.9 4.2 4.2 4.2h4.1zm-7.2 18.7H51l-7.9-6 1.3-1.6 8.4 6.5c-1-7.2-7-12.8-14.4-13.3v7.2c0 3.9 3.3 7.2 7.3 7.2zm-2.1 22.8h7.3L39 96.8l1.3-1.6 12.5 9.6c-1.1-9.5-8.9-17-18.6-17.5v9.3c.1 5.1 4.3 9.3 9.4 9.3zm11.6-1.1l12.5-9.6 1.3 1.6-11.9 9.2h7.3c5.2 0 9.3-4.2 9.3-9.3v-9.3c-9.6.4-17.5 7.9-18.5 17.4zm0-22.9l8.4-6.5 1.3 1.6-7.9 6h5.3c4 0 7.3-3.3 7.3-7.3v-7.2c-7.4.6-13.4 6.2-14.4 13.4zm-.1-17.5h4.1c2.3 0 4.2-1.9 4.2-4.2v-4.1c-4.4.5-7.8 4-8.3 8.3zm21-47L73.4 16c-1.5-.8-2.5-2.2-2.8-3.9L70 9c-.3-1.8-2-3-3.8-2.8l-3 .4c-1.7.2-3.3-.3-4.6-1.5L56.4 3C55 1.8 53 1.8 51.6 3l-2.2 2.1c-1.2 1.2-2.9 1.7-4.6 1.5l-3-.4C40 6 38.3 7.2 38 9l-.5 3c-.3 1.7-1.3 3.1-2.8 3.9L32 17.3c-1.6.9-2.3 2.8-1.5 4.5l1.4 2.8c.7 1.5.7 3.3 0 4.8l-1.4 2.8c-.8 1.7-.2 3.6 1.5 4.5l2.7 1.4c1.5.8 2.5 2.2 2.8 3.9l.5 3c.3 1.8 2 3 3.8 2.8l3-.4c.3 0 .5-.1.8-.1 1.4 0 2.8.5 3.8 1.5l2.2 2.1c.5.5 1.2.8 1.9.9h.9c.7-.1 1.4-.4 1.9-.9l2.2-2.1c1.2-1.2 2.9-1.7 4.6-1.5l3 .4c1.8.3 3.5-1 3.8-2.8l.5-3c.3-1.7 1.3-3.1 2.8-3.9l2.7-1.4c1.6-.9 2.3-2.8 1.5-4.5L76 29.3c-.7-1.5-.7-3.3 0-4.8l1.4-2.8c.9-1.5.3-3.5-1.3-4.3zM15 57.1l8.3-8.3-1.5-1.5-7.3 7.3v-5.4l.4-.4 4.2-4.2-1.5-1.5-3.1 3.1v-6.8h-2.1v6.8l-3.1-3.1-1.5 1.5 4.2 4.2.4.4v5.4l-7.3-7.3-1.5 1.5 8.3 8.3.4.4v5.4L5 55.6l-1.5 1.5 8.3 8.3.4.4v4.8h-8v2.1h18.7v-2.1h-8.3v-4.8l.4-.4 8.3-8.3-1.5-1.5-7.3 7.3v-5.4l.5-.4zM71.7 26c-.6 0-1 .5-1 1 0 .6.5 1 1 1s1-.5 1-1c0-.6-.5-1-1-1zm-34.3 1c0-.6-.5-1-1-1s-1 .5-1 1c0 .6.5 1 1 1s1-.4 1-1zM54 43.6c-.6 0-1 .5-1 1 0 .6.5 1 1 1s1-.5 1-1-.4-1-1-1zm0-33.2c.6 0 1-.5 1-1 0-.6-.5-1-1-1s-1 .5-1 1 .4 1 1 1zm16.7 10.8c.5-.2.8-.8.6-1.4-.2-.5-.8-.8-1.4-.6-.5.2-.8.8-.6 1.4.3.6.9.8 1.4.6zM37.3 32.8c-.5.2-.8.8-.6 1.4.2.5.8.8 1.4.6.5-.2.8-.8.6-1.4-.3-.6-.9-.8-1.4-.6zm23.1 9.6c-.5.2-.8.8-.6 1.4.2.5.8.8 1.4.6.5-.2.8-.8.6-1.4-.3-.6-.9-.9-1.4-.6zM47.6 11.7c.5-.2.8-.8.6-1.4-.2-.5-.8-.8-1.4-.6-.5.2-.8.8-.6 1.4.3.5.9.8 1.4.6zm19.6 3.6c.4-.4.4-1.1 0-1.5-.4-.4-1.1-.4-1.5 0s-.4 1.1 0 1.5 1.1.4 1.5 0zM40.8 38.8c-.4.4-.4 1.1 0 1.5.4.4 1.1.4 1.5 0 .4-.4.4-1.1 0-1.5-.5-.5-1.1-.5-1.5 0zm24.9 0c-.4.4-.4 1.1 0 1.5.4.4 1.1.4 1.5 0 .4-.4.4-1.1 0-1.5-.4-.5-1-.5-1.5 0zM42.3 15.3c.4-.4.4-1.1 0-1.5s-1.1-.4-1.5 0c-.4.4-.4 1.1 0 1.5.4.4 1 .4 1.5 0zm18.1-3.6c.5.2 1.1 0 1.4-.6.2-.5 0-1.1-.6-1.4-.5-.2-1.1 0-1.4.6-.2.5 0 1.1.6 1.4zM47.6 42.4c-.5-.2-1.1 0-1.4.6-.2.5 0 1.1.6 1.4.5.2 1.1 0 1.4-.6.2-.6 0-1.2-.6-1.4zm23.1-9.6c-.5-.2-1.1 0-1.4.6-.2.5 0 1.1.6 1.4.5.2 1.1 0 1.4-.6.2-.6-.1-1.2-.6-1.4zM38.1 19.3c-.5-.2-1.1 0-1.4.6-.2.5 0 1.1.6 1.4.5.2 1.1 0 1.4-.6.2-.6-.1-1.2-.6-1.4zM12.5 36.4c0 .6.5 1 1 1s1-.5 1-1c0-.6-.5-1-1-1s-1 .4-1 1zM1 43.6c-.6 0-1 .5-1 1 0 .6.5 1 1 1s1-.5 1-1c.1-.5-.4-1-1-1zm5.2-3.1c0 .6.5 1 1 1s1-.5 1-1c0-.6-.5-1-1-1s-1 .4-1 1zM26 43.6c-.6 0-1 .5-1 1 0 .6.5 1 1 1s1-.5 1-1-.5-1-1-1zM1 51.9c-.6 0-1 .5-1 1 0 .6.5 1 1 1s1-.5 1-1c.1-.5-.4-1-1-1zm25 0c-.6 0-1 .5-1 1 0 .6.5 1 1 1s1-.5 1-1-.5-1-1-1zm-7.3-11.4c0 .6.5 1 1 1s1-.5 1-1c0-.6-.5-1-1-1s-1 .4-1 1zM96 57.1l8.3-8.3-1.5-1.5-7.3 7.3v-5.4l.4-.4 4.2-4.2-1.5-1.5-3.1 3.1v-6.8h-2.1v6.8l-3.1-3.1-1.5 1.5 4.2 4.2.4.4v5.4l-7.3-7.3-1.5 1.5 8.3 8.3.4.4v5.4L86 55.6l-1.5 1.5 8.3 8.3.4.4v4.8h-8.3v2.1h18.7v-2.1h-8.3v-4.8l.4-.4 8.3-8.3-1.5-1.5-7.3 7.3v-5.4l.8-.4zm-2.5-20.7c0 .6.5 1 1 1s1-.5 1-1c0-.6-.5-1-1-1s-1 .4-1 1zM82 43.6c-.6 0-1 .5-1 1 0 .6.5 1 1 1s1-.5 1-1c.1-.5-.4-1-1-1zm5.2-3.1c0 .6.5 1 1 1s1-.5 1-1c0-.6-.5-1-1-1s-1 .4-1 1zm19.8 5.2c.6 0 1-.5 1-1 0-.6-.5-1-1-1s-1 .5-1 1c-.1.5.4 1 1 1zm-25 6.2c-.6 0-1 .5-1 1 0 .6.5 1 1 1s1-.5 1-1c.1-.5-.4-1-1-1zm25 0c-.6 0-1 .5-1 1 0 .6.5 1 1 1s1-.5 1-1-.5-1-1-1zm-7.3-11.4c0 .6.5 1 1 1s1-.5 1-1c0-.6-.5-1-1-1s-1 .4-1 1zM94.5 2.1c.6 0 1-.5 1-1 0-.6-.5-1-1-1s-1 .5-1 1 .4 1 1 1zm6.2 2.1c.6 0 1-.5 1-1 0-.6-.5-1-1-1s-1 .5-1 1 .5 1 1 1zm2.1 6.2c.6 0 1-.5 1-1 0-.6-.5-1-1-1s-1 .5-1 1 .4 1 1 1zm-16.6 0c.6 0 1-.5 1-1 0-.6-.5-1-1-1s-1 .5-1 1 .4 1 1 1zm14.5 4.1c-.6 0-1 .5-1 1 0 .6.5 1 1 1s1-.5 1-1c.1-.5-.4-1-1-1zM88.3 4.2c.6 0 1-.5 1-1 0-.6-.5-1-1-1s-1 .5-1 1c-.1.5.4 1 1 1zm5.2 24.9h-8.3V27h8.3v-2.1h-3.1c-2.9 0-5.2-2.3-5.2-5.2v-5.2h1c2.9 0 5.6 1.4 7.3 3.5v-3.6c-2.4-.5-4.2-2.6-4.2-5.1 0-2.9 2.3-5.2 5.2-5.2s5.2 2.3 5.2 5.2c0 2.5-1.8 4.6-4.2 5.1v7.7c1.7-2.1 4.3-3.5 7.3-3.5h1v5.2c0 2.9-2.3 5.2-5.2 5.2h-5.1zm-.1-6.2c-.5-3.2-3-5.7-6.2-6.2v3c0 1.7 1.4 3.1 3.1 3.1h3.1zm2.2 4.1h3c1.7 0 3.1-1.4 3.1-3.1v-3c-3.1.4-5.6 2.9-6.1 6.1zm-1.1-14.5c1.7 0 3.1-1.4 3.1-3.1s-1.4-3.1-3.1-3.1-3.1 1.4-3.1 3.1 1.4 3.1 3.1 3.1zM14.5 80c0-.6-.5-1-1-1s-1 .5-1 1c0 .6.5 1 1 1s1-.5 1-1zm-7.2 3.1c.6 0 1-.5 1-1 0-.6-.5-1-1-1s-1 .5-1 1c-.1.5.4 1 1 1zm-2.1 4.1c-.6 0-1 .5-1 1 0 .6.5 1 1 1s1-.5 1-1-.4-1-1-1zm16.6 0c-.6 0-1 .5-1 1 0 .6.5 1 1 1s1-.5 1-1-.4-1-1-1zM7.3 95.5c.6 0 1-.5 1-1 0-.6-.5-1-1-1s-1 .5-1 1c-.1.6.4 1 1 1zM20.8 82c0-.6-.5-1-1-1s-1 .5-1 1c0 .6.5 1 1 1s1-.4 1-1zm1 11.5h1v5.2c0 2.9-2.3 5.2-5.2 5.2h-3.1v2.1h8.3v2.1H9.3c-2.9 0-5.2-2.3-5.2-5.2v-5.2h1c2.9 0 5.6 1.4 7.3 3.5v-7.7c-2.4-.5-4.2-2.6-4.2-5.1 0-2.9 2.3-5.2 5.2-5.2s5.2 2.3 5.2 5.2c0 2.5-1.8 4.6-4.2 5.1V97c1.9-2.2 4.5-3.5 7.4-3.5zm-9.4 12.4c-.5-3.2-3-5.7-6.2-6.2v3c0 1.7 1.4 3.1 3.1 3.1h3.1zm1.1-14.5c1.7 0 3.1-1.4 3.1-3.1s-1.4-3.1-3.1-3.1-3.1 1.4-3.1 3.1 1.4 3.1 3.1 3.1zm7.3 4.2c-3.2.5-5.7 3-6.2 6.2h3c1.7 0 3.1-1.4 3.1-3.1v-3.1zM13.5 2.1c.6 0 1-.5 1-1 0-.6-.5-1-1-1s-1 .5-1 1 .4 1 1 1zM7.3 4.2c.6 0 1-.5 1-1 0-.6-.5-1-1-1s-1 .5-1 1c-.1.5.4 1 1 1zm-2.1 6.2c.6 0 1-.5 1-1 0-.6-.5-1-1-1s-1 .5-1 1 .4 1 1 1zm16.6 0c.6 0 1-.5 1-1 0-.6-.5-1-1-1s-1 .5-1 1 .4 1 1 1zM7.3 14.5c-.6 0-1 .5-1 1 0 .6.5 1 1 1s1-.5 1-1-.5-1-1-1zM19.7 4.2c.6 0 1-.5 1-1 0-.6-.5-1-1-1s-1 .5-1 1 .5 1 1 1zM4.2 23.9v-5.2h1c2.9 0 5.6 1.4 7.3 3.5v-7.7c-2.4-.5-4.2-2.6-4.2-5.1 0-2.9 2.3-5.2 5.2-5.2s5.2 2.3 5.2 5.2c0 2.5-1.8 4.6-4.2 5.1V18c1.7-2.1 4.3-3.5 7.3-3.5h1v5.2c0 2.9-2.3 5.2-5.2 5.2h-3.1V27h8.3v2.1H9.3c-2.8 0-5.1-2.3-5.1-5.2zm10.4-1h3c1.7 0 3.1-1.4 3.1-3.1v-3c-3.1.4-5.6 2.9-6.1 6.1zm-1.1-10.4c1.7 0 3.1-1.4 3.1-3.1s-1.4-3.1-3.1-3.1-3.1 1.4-3.1 3.1 1.4 3.1 3.1 3.1zM6.2 23.9c0 1.7 1.4 3.1 3.1 3.1h3c-.5-3.2-3-5.7-6.2-6.2v3.1z"/></svg>