<svg id="Layer_1" xmlns="http://www.w3.org/2000/svg" viewBox="0 0 108 108"><path d="M11.2 7.7c3 3 7 4.7 11.2 4.7 4.6 0 9-2 12-5.6l.6-.6-.6-.7C31.5 2 27.1 0 22.5 0c-4.2 0-8.3 1.7-11.2 4.7C8.4 1.8 4.5 0 1 0H0v12.5h1c3.5 0 7.4-1.9 10.2-4.8zm12.5 2.6c-.6-1.3-.8-2.7-.8-4.1 0-1.4.3-2.8.8-4.1 3.3.3 6.3 1.7 8.6 4.1-2.3 2.4-5.4 3.8-8.6 4.1zm-2.2-8.2c-.5 1.3-.7 2.7-.7 4.1 0 1.4.2 2.8.7 4.1-3.3-.2-6.5-1.7-8.8-4.1 2.3-2.4 5.4-3.8 8.8-4.1zM9.8 6.2C7.7 8.4 4.7 10 2.1 10.3v-3h3.1V5.2H2.1v-3c2.6.3 5.6 1.8 7.7 4zm16.2 0c0-.6.5-1 1-1s1 .5 1 1c0 .6-.5 1-1 1s-1-.4-1-1zm57.9 1.5c3 3 7 4.7 11.2 4.7 4.6 0 9-2 12-5.6l.6-.7-.6-.7c-3-3.5-7.4-5.6-12-5.6-4.2 0-8.3 1.7-11.2 4.7C81.1 1.8 77.2 0 73.7 0h-1v12.5h1c3.5 0 7.4-1.9 10.2-4.8zm12.5 2.6c-.6-1.3-.8-2.7-.8-4.1 0-1.4.3-2.8.8-4.1 3.3.3 6.3 1.7 8.6 4.1-2.3 2.4-5.4 3.8-8.6 4.1zm-2.2-8.2c-.5 1.3-.7 2.7-.7 4.1 0 1.4.2 2.8.7 4.1-3.3-.2-6.5-1.7-8.8-4.1 2.3-2.4 5.4-3.8 8.8-4.1zM82.5 6.2c-2.2 2.2-5.1 3.8-7.7 4.1v-3h3.1V5.2h-3.1v-3c2.6.3 5.6 1.8 7.7 4zm16.2 0c0-.6.5-1 1-1s1 .5 1 1c0 .6-.5 1-1 1s-1-.4-1-1zM24 22.4c-3-3-7-4.7-11.2-4.7-4.6 0-9 2-12 5.6l-.6.7.6.7c3 3.5 7.4 5.6 12 5.6 4.2 0 8.3-1.7 11.2-4.7 2.8 2.9 6.7 4.7 10.2 4.7h1V17.7h-1c-3.5 0-7.4 1.8-10.2 4.7zm-12.5-2.6c.6 1.3.8 2.7.8 4.1 0 1.4-.3 2.8-.8 4.1-3.3-.3-6.3-1.7-8.6-4.1 2.3-2.4 5.4-3.8 8.6-4.1zm2.3 8.2c.5-1.3.7-2.7.7-4.1 0-1.4-.2-2.8-.7-4.1 3.3.2 6.5 1.7 8.8 4.1-2.4 2.4-5.5 3.9-8.8 4.1zm11.6-4.1c2.2-2.2 5.1-3.8 7.7-4.1v3H30v2.1h3.1v3c-2.6-.3-5.5-1.8-7.7-4zm-16.1 0c0 .6-.5 1-1 1-.6 0-1-.5-1-1 0-.6.5-1 1-1 .5-.1 1 .4 1 1zm39.8 6.2c4.2 0 8.3-1.7 11.2-4.7 2.8 2.9 6.7 4.7 10.2 4.7h1V17.7h-1c-3.5 0-7.4 1.8-10.2 4.7-3-3-7-4.7-11.2-4.7-4.6 0-9 2-12 5.6l-.6.7.6.7c3 3.4 7.4 5.4 12 5.4zm20.4-10.3v3h-3.1v2.1h3.1v3c-2.7-.3-5.6-1.9-7.7-4.1 2.1-2.1 5-3.7 7.7-4zM50.1 28c.5-1.3.7-2.7.7-4.1 0-1.4-.2-2.8-.7-4.1 3.3.2 6.5 1.7 8.8 4.1-2.3 2.4-5.4 3.9-8.8 4.1zm-2.2-8.2c.6 1.3.8 2.7.8 4.1 0 1.4-.3 2.8-.8 4.1-3.3-.3-6.3-1.7-8.6-4.1 2.3-2.4 5.3-3.8 8.6-4.1zm-2.3 4.1c0 .6-.5 1-1 1-.6 0-1-.5-1-1 0-.6.5-1 1-1 .6-.1 1 .4 1 1zm61.4-6.2c-3.5 0-7.4 1.8-10.2 4.7-3-3-7-4.7-11.2-4.7-4.6 0-9 2-12 5.6l-.6.6.6.7c3 3.5 7.4 5.6 12 5.6 4.2 0 8.3-1.7 11.2-4.7 2.8 2.9 6.7 4.7 10.2 4.7h1V17.7h-1zm-22.7 2.1c.6 1.3.8 2.7.8 4.1 0 1.4-.3 2.8-.8 4.1-3.3-.3-6.3-1.7-8.6-4.1 2.3-2.4 5.4-3.8 8.6-4.1zm2.2 8.2c.5-1.3.7-2.7.7-4.1 0-1.4-.2-2.8-.7-4.1 3.3.2 6.5 1.7 8.8 4.1-2.3 2.4-5.4 3.9-8.8 4.1zm11.7-4.1c2.2-2.2 5.1-3.8 7.7-4.1v3h-3.1v2.1h3.1v3c-2.6-.3-5.6-1.8-7.7-4zm-16.2 0c0 .6-.5 1-1 1s-1-.5-1-1c0-.6.5-1 1-1s1 .4 1 1zM62.4 44.3l.6-.7-.6-.7c-4.7-5.5-11.5-8.7-18.7-8.7-6.8 0-13.3 2.8-18 7.8-4.4-4.8-10.7-7.8-16.3-7.8h-1V53h1c5.6 0 11.9-3 16.3-7.8 4.6 5 11.1 7.8 18 7.8 7.2 0 14.1-3.2 18.7-8.7zm-2.1-.7c-2.8 3-6.3 5.2-10.2 6.3-.8-2-1.2-4.1-1.2-6.3s.4-4.3 1.2-6.3c3.9 1.1 7.4 3.3 10.2 6.3zm-49.8 7.2v-6.2h5.6v-2.1h-5.6v-6.2c4.8.4 10.1 3.1 13.9 7.2-3.9 4.3-9.1 7-13.9 7.3zm16.6-7.2c4.3-4.6 10.2-7.3 16.6-7.3 1.5 0 2.9.1 4.4.4-.8 2.2-1.3 4.5-1.3 6.8 0 2.4.4 4.7 1.3 6.8-1.4.3-2.9.4-4.4.4-6.3.2-12.3-2.5-16.6-7.1zm25.9 0c0-.6.5-1 1-1 .6 0 1 .5 1 1 0 .6-.5 1-1 1-.5.1-1-.4-1-1zm42.2-6.2c-4.2 0-8.3 1.7-11.2 4.7-2.8-2.9-6.7-4.7-10.2-4.7h-1v12.5h1c3.5 0 7.4-1.8 10.2-4.7 3 3 7 4.7 11.2 4.7 4.6 0 9-2 12-5.6l.6-.7-.6-.7c-3-3.5-7.4-5.5-12-5.5zM74.8 47.7v-3h3.1v-2.1h-3.1v-3c2.7.3 5.6 1.9 7.7 4.1-2.1 2.1-5.1 3.7-7.7 4zm19.4-8.2c-.5 1.3-.7 2.7-.7 4.1 0 1.4.2 2.8.7 4.1-3.3-.2-6.5-1.7-8.8-4.1 2.3-2.4 5.4-3.9 8.8-4.1zm2.2 8.2c-.6-1.3-.8-2.7-.8-4.1 0-1.4.3-2.8.8-4.1 3.3.3 6.3 1.7 8.6 4.1-2.3 2.4-5.4 3.8-8.6 4.1zm2.3-4.1c0-.6.5-1 1-1s1 .5 1 1-.5 1-1 1-1-.4-1-1zM24 62.9c-3-3-7-4.7-11.2-4.7-4.6 0-9 2-12 5.6l-.6.7.6.7c3 3.5 7.4 5.6 12 5.6 4.2 0 8.3-1.7 11.2-4.7 2.8 2.9 6.7 4.7 10.2 4.7h1V58.2h-1c-3.5 0-7.4 1.8-10.2 4.7zm-12.5-2.6c.6 1.3.8 2.7.8 4.1 0 1.4-.3 2.8-.8 4.1-3.3-.3-6.3-1.7-8.6-4.1 2.3-2.4 5.4-3.8 8.6-4.1zm2.3 8.2c.5-1.3.7-2.7.7-4.1 0-1.4-.2-2.8-.7-4.1 3.3.2 6.5 1.7 8.8 4.1-2.4 2.4-5.5 3.9-8.8 4.1zm11.6-4.1c2.2-2.2 5.1-3.8 7.7-4.1v3H30v2.1h3.1v3c-2.6-.3-5.5-1.8-7.7-4zm-16.1 0c0 .6-.5 1-1 1-.6 0-1-.5-1-1 0-.6.5-1 1-1 .5-.1 1 .4 1 1zm72.9 1.5c4.4 4.8 10.7 7.8 16.3 7.8h1V55h-1c-5.6 0-11.9 3-16.3 7.8-4.6-5-11.1-7.8-18-7.8-7.2 0-14.1 3.2-18.7 8.7l-.6.7.6.7c4.7 5.5 11.5 8.7 18.7 8.7 6.9-.1 13.4-2.9 18-7.9zm15.3-8.7v6.2h-5.6v2.1h5.6v6.2c-4.8-.4-10.1-3.1-13.9-7.2 3.8-4.3 9.1-7 13.9-7.3zm-49.8 7.2c2.8-3 6.3-5.2 10.2-6.3.8 2 1.2 4.1 1.2 6.3s-.4 4.3-1.2 6.3c-3.9-1.1-7.4-3.3-10.2-6.3zm16.5 7.3c-1.5 0-2.9-.1-4.4-.4.8-2.2 1.3-4.5 1.3-6.8s-.4-4.7-1.3-6.8c1.4-.3 2.9-.4 4.4-.4 6.3 0 12.3 2.6 16.6 7.3-4.3 4.4-10.3 7.1-16.6 7.1zm-9.3-7.3c0 .6-.5 1-1 1-.6 0-1-.5-1-1 0-.6.5-1 1-1 .5-.1 1 .4 1 1zm40.3 13.5c-4.2 0-8.3 1.7-11.2 4.7-2.8-2.9-6.7-4.7-10.2-4.7h-1v12.5h1c3.5 0 7.4-1.8 10.2-4.7 3 3 7 4.7 11.2 4.7 4.6 0 9-2 12-5.6l.6-.7-.6-.7c-3-3.5-7.4-5.5-12-5.5zM74.8 88.2v-3h3.1v-2.1h-3.1v-3c2.7.3 5.6 1.9 7.7 4.1-2.1 2.1-5.1 3.7-7.7 4zM94.2 80c-.5 1.3-.7 2.7-.7 4.1 0 1.4.2 2.8.7 4.1-3.3-.2-6.5-1.7-8.8-4.1 2.3-2.4 5.4-3.9 8.8-4.1zm2.2 8.2c-.6-1.3-.8-2.7-.8-4.1 0-1.4.3-2.8.8-4.1 3.3.3 6.3 1.7 8.6 4.1-2.3 2.4-5.4 3.8-8.6 4.1zm2.3-4.1c0-.6.5-1 1-1s1 .5 1 1c0 .6-.5 1-1 1s-1-.4-1-1zm-87.5 1.5c3 3 7 4.7 11.2 4.7 4.6 0 9-2 12-5.6l.6-.7-.6-.7c-3-3.5-7.4-5.6-12-5.6-4.2 0-8.3 1.7-11.2 4.7-2.8-2.7-6.7-4.5-10.2-4.5H0v12.5h1c3.5-.1 7.4-1.9 10.2-4.8zm12.5 2.6c-.6-1.3-.8-2.7-.8-4.1 0-1.4.3-2.8.8-4.1 3.3.3 6.3 1.7 8.6 4.1-2.3 2.4-5.4 3.8-8.6 4.1zM21.5 80c-.5 1.3-.7 2.7-.7 4.1 0 1.4.2 2.8.7 4.1-3.3-.2-6.5-1.7-8.8-4.1 2.3-2.4 5.4-3.9 8.8-4.1zM9.8 84.1c-2.2 2.2-5.1 3.8-7.7 4.1v-3h3.1v-2.1H2.1v-3c2.6.3 5.6 1.8 7.7 4zm16.2 0c0-.6.5-1 1-1s1 .5 1 1c0 .6-.5 1-1 1s-1-.4-1-1zm-2 16.2c-3-3-7-4.7-11.2-4.7-4.6 0-9 2-12 5.6l-.6.7.6.7c3 3.5 7.4 5.6 12 5.6 4.2 0 8.3-1.7 11.2-4.7 2.8 2.9 6.7 4.7 10.2 4.7h1V95.5h-1c-3.5 0-7.4 1.9-10.2 4.8zm-12.5-2.6c.6 1.3.8 2.7.8 4.1 0 1.4-.3 2.8-.8 4.1-3.3-.3-6.3-1.7-8.6-4.1 2.3-2.4 5.4-3.8 8.6-4.1zm2.3 8.2c.5-1.3.7-2.7.7-4.1 0-1.4-.2-2.8-.7-4.1 3.3.2 6.5 1.7 8.8 4.1-2.4 2.4-5.5 3.8-8.8 4.1zm11.6-4.1c2.2-2.2 5.1-3.8 7.7-4.1v3H30v2.1h3.1v3c-2.6-.3-5.5-1.8-7.7-4zm-16.1 0c0 .6-.5 1-1 1-.6 0-1-.5-1-1 0-.6.5-1 1-1 .5-.1 1 .4 1 1zm51-1.5c-3-3-7-4.7-11.2-4.7-4.6 0-9 2-12 5.6l-.6.7.6.7c3 3.5 7.4 5.6 12 5.6 4.2 0 8.3-1.7 11.2-4.7 2.8 2.9 6.7 4.7 10.2 4.7h1V95.5h-1c-3.4 0-7.3 1.9-10.2 4.8zm-12.4-2.6c.6 1.3.8 2.7.8 4.1 0 1.4-.3 2.8-.8 4.1-3.3-.3-6.3-1.7-8.6-4.1 2.3-2.4 5.3-3.8 8.6-4.1zm2.2 8.2c.5-1.3.7-2.7.7-4.1 0-1.4-.2-2.8-.7-4.1 3.3.2 6.5 1.7 8.8 4.1-2.3 2.4-5.4 3.8-8.8 4.1zm11.7-4.1c2.2-2.2 5.1-3.8 7.7-4.1v3h-3.1v2.1h3.1v3c-2.7-.3-5.6-1.8-7.7-4zm-16.2 0c0 .6-.5 1-1 1-.6 0-1-.5-1-1 0-.6.5-1 1-1 .6-.1 1 .4 1 1zM37.4 5.2V3.1c2.7 0 4.8 2.3 4.9 2.4 0 0 1.6 1.7 3.4 1.7 1.8 0 3.4-1.7 3.4-1.7.1-.1 2.2-2.4 4.9-2.4s4.8 2.3 4.9 2.4c0 0 1.6 1.7 3.4 1.7 1.8 0 3.4-1.7 3.4-1.7.1-.1 2.2-2.4 4.9-2.4v2.1c-1.8 0-3.4 1.7-3.4 1.7-.1.1-2.2 2.4-4.9 2.4S57.5 7 57.4 6.9c0 0-1.6-1.7-3.4-1.7s-3.4 1.7-3.4 1.7c-.1.1-2.2 2.4-4.9 2.4S40.9 7 40.8 6.9c0 0-1.6-1.7-3.4-1.7zm24.9 77.9c-1.8 0-3.4 1.7-3.4 1.7-.1.1-2.2 2.4-4.9 2.4s-4.8-2.3-4.9-2.4c0 0-1.6-1.7-3.4-1.7-1.8 0-3.4 1.7-3.4 1.7-.1.1-2.2 2.4-4.9 2.4v-2.1c1.8 0 3.4-1.7 3.4-1.7.1-.1 2.2-2.4 4.9-2.4s4.8 2.3 4.9 2.4c0 0 1.6 1.7 3.4 1.7s3.4-1.7 3.4-1.7c.1-.1 2.2-2.4 4.9-2.4s4.8 2.3 4.9 2.4c0 0 1.6 1.7 3.4 1.7v2.1c-2.7 0-4.8-2.3-4.9-2.4 0 0-1.6-1.7-3.4-1.7zM107 98.7v2.1c-1.8 0-3.4 1.7-3.4 1.7-.1.1-2.2 2.4-4.9 2.4s-4.8-2.3-4.9-2.4c0 0-1.6-1.7-3.4-1.7s-3.4 1.7-3.4 1.7c-.1.1-2.2 2.4-4.9 2.4s-4.8-2.3-4.9-2.4c0 0-1.6-1.7-3.4-1.7v-2.1c2.7 0 4.8 2.3 4.9 2.4 0 0 1.6 1.7 3.4 1.7s3.4-1.7 3.4-1.7c.1-.1 2.2-2.4 4.9-2.4s4.8 2.3 4.9 2.4c0 0 1.6 1.7 3.4 1.7s3.4-1.7 3.4-1.7c0-.1 2.1-2.4 4.9-2.4zM54 80c-.6 0-1-.5-1-1 0-.6.5-1 1-1s1 .5 1 1-.4 1-1 1zm10.9-15.6c0 .6-.5 1-1 1-.6 0-1-.5-1-1 0-.6.5-1 1-1 .5-.1 1 .4 1 1zm-2.6-4.2c0-.6.5-1 1-1s1 .5 1 1c0 .6-.5 1-1 1s-1-.4-1-1zm2.1 8.3c0 .6-.5 1-1 1s-1-.5-1-1c0-.6.5-1 1-1s1 .5 1 1zm3.6-4.1c0 .6-.5 1-1 1-.6 0-1-.5-1-1 0-.6.5-1 1-1 .6-.1 1 .4 1 1zm-2.6-4.2c0-.6.5-1 1-1s1 .5 1 1c0 .6-.5 1-1 1s-1-.4-1-1zm2.1 8.3c0 .6-.5 1-1 1s-1-.5-1-1c0-.6.5-1 1-1s1 .5 1 1zm3.6-4.1c0 .6-.5 1-1 1s-1-.5-1-1c0-.6.5-1 1-1s1 .4 1 1zm-27-19.7c-.6 0-1-.5-1-1 0-.6.5-1 1-1 .6 0 1 .5 1 1 .1.5-.4 1-1 1zm-.5 3.1c0-.6.5-1 1-1s1 .5 1 1c0 .6-.5 1-1 1s-1-.5-1-1zm0-8.3c0-.6.5-1 1-1s1 .5 1 1c0 .6-.5 1-1 1s-1-.5-1-1zM41 44.7c-.6 0-1-.5-1-1 0-.6.5-1 1-1 .6 0 1 .5 1 1 .1.5-.4 1-1 1zm1.6 3.1c0 .6-.5 1-1 1-.6 0-1-.5-1-1 0-.6.5-1 1-1 .5-.1 1 .4 1 1zm0-8.3c0 .6-.5 1-1 1-.6 0-1-.5-1-1 0-.6.5-1 1-1 .5-.1 1 .4 1 1zm-3.7 4.1c0 .6-.5 1-1 1s-1-.5-1-1c0-.6.5-1 1-1s1 .4 1 1zm23.4 44.7c.6 0 1 .5 1 1 0 .6-.5 1-1 1-.6 0-1-.5-1-1 0-.6.4-1 1-1zM91.4 107c0 .6-.5 1-1 1s-1-.5-1-1c0-.6.5-1 1-1s1 .4 1 1zm7.3-9.4c-.6 0-1-.5-1-1 0-.6.5-1 1-1s1 .5 1 1c0 .6-.5 1-1 1zm-16.7 0c-.6 0-1-.5-1-1 0-.6.5-1 1-1s1 .5 1 1c.1.6-.4 1-1 1zm-36.3-9.3c.6 0 1 .5 1 1 0 .6-.5 1-1 1-.6 0-1-.5-1-1 0-.6.4-1 1-1zM54 10.4c.6 0 1 .5 1 1 0 .6-.5 1-1 1s-1-.5-1-1c0-.6.4-1 1-1zM61.3 1c0-.6.5-1 1-1 .6 0 1 .5 1 1 0 .6-.5 1-1 1-.6.1-1-.4-1-1zM44.7 1c0-.6.5-1 1-1 .6 0 1 .5 1 1 0 .6-.5 1-1 1-.6.1-1-.4-1-1z"/></svg>